<?xml version="1.0" encoding="UTF-8"?>
<svg width="120px" height="113px" viewBox="0 0 120 113" version="1.1" xmlns="http://www.w3.org/2000/svg" xmlns:xlink="http://www.w3.org/1999/xlink">
    <!-- Generator: sketchtool 64 (101010) - https://sketch.com -->
    <title>9D79B2EB-B9C4-4E14-A2D6-22E7DB1ED9CD</title>
    <desc>Created with sketchtool.</desc>
    <g id="Page-1" stroke="none" stroke-width="1" fill="none" fill-rule="evenodd">
        <g id="Home-HD" transform="translate(-740.000000, -6932.000000)" fill="#002856" fill-rule="nonzero">
            <g id="Group" transform="translate(431.000000, 6549.000000)">
                <g id="monogram" transform="translate(309.000000, 383.000000)">
                    <g id="VAN-HUNKS-MONOGRAM-STAMP">
                        <path d="M99.1344,112.992185 C94.5701219,113.007359 90.1320169,111.490179 86.5270588,108.682211 C84.186135,106.852898 81.3087979,105.849535 78.3413647,105.827757 L41.4288,105.827757 C38.4605057,105.849038 35.582208,106.852425 33.2405647,108.682211 C25.1336856,114.953189 13.6687523,114.314618 6.30392772,107.1819 C-1.06089683,100.049182 -2.09879265,88.578958 3.86541176,80.2328321 C5.95684996,77.3118365 7.07623422,73.8034768 7.06418824,70.2072682 L7.06418824,50.0640977 C7.06524356,49.8321892 7.09831055,49.6015442 7.16244706,49.3787343 L7.19435294,49.2073935 C9.13616512,21.4997579 32.1065146,0.0142501046 59.7986568,0.00351565792 C87.490799,-0.007210747 110.477692,21.460489 112.440847,49.1666115 L112.495341,49.4546341 C112.547172,49.6536269 112.573549,49.8584261 112.573835,50.0640977 L112.573835,70.0254486 C112.563966,73.66301 113.709829,77.2091188 115.845176,80.1492857 C120.164433,86.1261844 120.983369,93.9579775 117.99446,100.703694 C115.005552,107.449411 108.661198,112.088023 101.343812,112.877654 C100.609772,112.95361 99.8723353,112.992185 99.1344,112.992185 Z M41.4288,102.749852 L78.3408,102.749852 C81.9872675,102.772598 85.5244065,104.001305 88.4038588,106.245489 C95.3171303,111.599191 105.101864,111.04495 111.370252,104.944595 C117.638639,98.8442397 118.486322,89.0510767 113.359906,81.9584185 C110.844473,78.4921493 109.4944,74.3127192 109.505224,70.0254486 L109.487153,50.0640977 L109.396518,49.5327995 C107.625296,23.403635 85.9936104,3.10709829 59.8832102,3.07551003 C33.77281,3.04399544 12.0924313,23.2881945 10.2584471,49.4130025 C10.2392977,49.6636738 10.1972387,49.9120517 10.1328,50.1550075 L10.1328,70.2061353 C10.1466556,74.4470603 8.82575747,78.5841962 6.35830588,82.0280877 C1.28120771,89.1328353 2.16475982,98.8970108 8.43419112,104.968792 C14.7036224,111.040573 24.4633007,111.58409 31.3643294,106.245772 C34.2439753,104.00091 37.7817611,102.772051 41.4288,102.749852 L41.4288,102.749852 Z" id="Shape"></path>
                        <path d="M16.1477647,48.8763233 C15.8394353,48.8383734 15.7623529,48.8021228 15.7682824,48.5305263 C15.7744941,48.245619 15.8363294,47.952782 15.8727529,47.6571128 C15.8922353,47.4829398 15.8727529,47.1810401 16.0986353,47.1249649 C16.3150643,47.1164354 16.531737,47.133738 16.7440941,47.1765088 L24.1874824,48.0983509 C24.8526053,48.2053847 25.4155881,48.6490832 25.6766118,49.2719649 C25.8129415,49.6134139 25.8486149,49.9869566 25.7793882,50.3481554 C25.7381905,50.7090337 25.6638031,51.0653164 25.5571765,51.4124511 C25.5405176,51.436807 25.4919529,51.6081479 25.4256,51.6005013 C25.1624471,51.5277168 24.2919529,51.3138947 23.9486118,51.2323308 C23.7371294,51.1793709 23.9246118,50.9714962 23.9895529,50.8837018 C24.0882831,50.7088968 24.1572754,50.5188087 24.1936941,50.3212506 C24.189313,50.1491033 24.0936004,49.9924109 23.9426824,49.9103158 C23.8043516,49.8010992 23.6378435,49.7337048 23.4626824,49.7160351 C22.6873412,49.6200276 16.3352471,48.8967143 16.1477647,48.8763233 Z" id="Path"></path>
                        <path d="M26.9062588,43.9768246 C26.7777882,44.3755815 26.6719059,44.6681353 26.5572706,44.9867444 C26.5389176,45.0382882 26.5290353,45.1065414 26.4892235,45.1351454 C26.4496941,45.2065138 24.0192,43.6341429 23.6834824,43.4126742 C22.7342118,42.7819699 21.7917176,42.2104561 20.8235294,41.6001429 C20.0493176,41.1186892 18.1976471,39.9309148 18.0299294,39.8414211 C17.8483765,39.7459799 17.7941647,39.7411654 17.8574118,39.5624612 C18.0434824,39.1271704 18.1824,38.6601604 18.3374118,38.2265689 C18.4113882,38.0235088 18.3964235,38.1036566 18.6564706,38.0977093 C19.0599529,38.1719098 26.4443294,39.2090175 26.6151529,39.2121328 C27.0104471,39.2274261 27.3876706,39.3350451 27.7852235,39.3486391 C27.9001412,39.3469398 28.5698824,39.3591178 28.4628706,39.6519549 C28.3979294,39.8731404 28.1319529,40.6117469 28.0576941,40.814807 C28.0034824,40.9680226 28.0108235,40.9847318 27.8416941,40.9802005 C27.5983059,40.9785013 27.3080471,40.9450827 27.0660706,40.9436667 L26.7410824,40.9269574 C26.6167509,40.9157368 26.5027062,40.9967581 26.472,41.1181228 C26.2409732,41.6329983 26.0538568,42.1665828 25.9126588,42.7131504 C25.8914824,42.8479574 25.8914824,42.8921378 26.0383059,42.9586917 C26.2195765,43.054416 27.1053176,43.4605363 27.0132706,43.7154236 C26.9867503,43.8060494 26.950886,43.8936563 26.9062588,43.9768246 L26.9062588,43.9768246 Z M24.6282353,41.2673734 C24.6691765,41.1521078 24.7233882,41.0427895 24.7643294,40.9275238 C24.8473412,40.6986917 24.8656941,40.6485639 24.3667765,40.5970201 C23.8060235,40.5242356 23.3720471,40.4531504 22.8491294,40.3925439 C22.6783059,40.3880125 22.2807529,40.3013509 22.1099294,40.2968195 C22.0915765,40.3058822 22.0568471,40.3211754 22.0478118,40.3469474 C22.0432941,40.3591253 22.0599529,40.3939599 22.0811294,40.4166165 C22.4213647,40.6259073 23.8074353,41.5160301 24.0629647,41.6811404 C24.3984,41.9040251 24.4017882,41.8904311 24.5313882,41.5341554 L24.6282353,41.2673734 Z" id="Shape"></path>
                        <path d="M33.1917176,31.596386 C33.5229176,31.8314486 33.4260706,31.945015 33.2690824,32.1647845 C33.0361412,32.4969875 32.7639529,32.9988321 32.5826824,33.0200727 C32.4434824,33.0549073 27.3614118,31.8965865 26.7024,31.7767895 C26.6416941,31.7677268 26.4937412,31.744787 26.4847059,31.8051103 C26.4663529,31.8764787 26.5600941,31.9098972 26.6041412,31.9402005 C26.9805176,32.2251078 30.3515294,34.520792 30.8803765,34.895193 C31.1449412,35.0832431 31.1813647,35.1257243 31.0240941,35.3454937 L30.6355765,35.8974662 C30.519169,36.0471872 30.4131321,36.2047371 30.3182118,36.3690075 C30.2411294,36.4797419 30.1685647,36.5106115 30.0505412,36.4449073 L29.1814588,35.827797 C28.2728471,35.1480977 22.7748706,31.2774937 22.3682824,30.9880551 C22.0161882,30.7376992 22.0207059,30.5915639 22.2700235,30.2372707 C22.4304,29.987198 22.6012235,29.7444887 22.7734588,29.5009298 C22.8154306,29.4181865 22.9126718,29.3802695 22.9993412,29.4128521 C23.9028706,29.6071328 27.9803294,30.5972281 28.5052235,30.6714286 C28.6908584,30.7276667 28.8842649,30.7537682 29.0781176,30.7487444 L29.0871529,30.7365664 C29.0736,30.6623659 28.8454588,30.516797 28.7802353,30.4697845 C28.6139294,30.3531028 24.6883765,27.6966115 24.6112941,27.6419524 C24.5023059,27.5632206 24.3797647,27.5266867 24.3405176,27.415386 C24.3210353,27.3516642 24.4116706,27.2001479 24.4387765,27.1364261 C24.6364235,26.8118697 24.9255529,26.4708872 25.1328,26.1539774 C25.2415059,25.9993459 25.3442824,26.0888396 25.5105882,26.1585088 C25.6893176,26.2349749 33.0045176,31.464411 33.1917176,31.596386 Z" id="Path"></path>
                        <path d="M42.8614588,24.1440501 C42.7485176,24.1924787 42.6152471,24.3139749 42.4746353,24.2833885 C42.3052235,24.2550677 42.1118118,23.9922506 41.9712,23.8529123 C40.4080941,22.2986667 38.8783059,20.6928772 37.3832471,19.0692456 C37.0960941,18.7492206 36.7152,18.342817 36.4232471,18.0123133 L36.0166588,17.5892005 C35.9152941,17.4603409 35.4951529,17.0145714 35.4423529,16.9205464 C35.3652706,16.8072632 35.4211765,16.7143709 35.5312941,16.6373383 C35.8489412,16.4583509 36.1482353,16.2748321 36.4777412,16.0898972 C36.6426353,15.9975714 36.7860706,15.8398246 36.9631059,15.9885088 C37.2578824,16.2416967 39.8171294,19.1907419 41.1820235,20.6387845 C41.2326036,20.6854642 41.2872183,20.7275444 41.3452235,20.7645288 C41.3452235,20.7645288 41.3997176,20.7509348 41.3920941,20.7387569 L41.3573647,20.5099248 C40.8841412,18.6690727 40.1359059,16.6084511 39.7126588,14.7692982 C39.6144,14.372807 39.7126588,14.271985 40.0181647,14.1006441 C40.2886588,13.9491278 40.5667765,13.8080902 40.8299294,13.644396 C40.9711059,13.565381 41.0913882,13.5291303 41.2252235,13.686594 C41.2894745,13.7650949 41.3317657,13.8593164 41.3477647,13.9596065 C41.9234824,16.0686566 43.3855059,21.7591554 43.5848471,22.4218622 C43.6514824,22.6767494 43.7361882,22.940416 43.7904,23.2040827 C43.8070588,23.2890451 43.8782118,23.5272231 43.8087529,23.5968922 C43.6904471,23.6937494 43.0359529,24.0454937 42.8614588,24.1440501 Z" id="Path"></path>
                        <path d="M49.5103059,21.0236642 C49.1082353,21.1434612 48.8089412,21.2219098 48.4808471,21.3085714 C48.4294588,21.3221654 48.3679059,21.3524687 48.3221647,21.3368922 C48.2374588,21.3445388 48.1513412,18.4425063 48.1423059,18.037802 C48.1225412,16.8944912 48.0576,15.7922456 48.0093176,14.6427043 C47.9652706,13.7299248 47.8912941,11.5223183 47.8701176,11.3328521 C47.8444235,11.129792 47.8173176,11.0810802 48,11.0326516 C48.4641882,10.9386266 48.9283765,10.7885263 49.3728,10.6718446 C49.5814588,10.6171855 49.5057882,10.650604 49.6599529,10.8627268 C49.8276706,11.237411 53.1684706,17.9347143 53.2622118,18.0771679 C53.4753882,18.413619 53.6010353,18.785188 53.8156235,19.1233383 C53.8819765,19.2173634 54.2507294,19.7783985 53.9514353,19.8571303 C53.7323294,19.9284987 52.9750588,20.1270276 52.7655529,20.1831028 C52.6082824,20.2241679 52.5992471,20.2397444 52.5055059,20.0967243 C52.368,19.8950802 52.2319059,19.6373609 52.0944,19.4340175 L51.9249882,19.1581729 C51.8640596,19.0480722 51.7321026,18.9991002 51.6144,19.0429073 C51.059883,19.144997 50.5147662,19.2930562 49.9846588,19.4855614 C49.8607059,19.5464511 49.8259765,19.5705238 49.8533647,19.7296867 C49.8790588,19.9330301 50.0467765,20.8973534 49.7867294,20.9656065 C49.6967195,20.9940434 49.6041285,21.0134904 49.5103059,21.0236642 Z M50.4420706,17.5999624 C50.5600941,17.5696591 50.6809412,17.5512506 50.7989647,17.5195313 C51.0347294,17.4589248 51.0861176,17.4453308 50.8458353,17.0040927 C50.5872,16.4974336 50.3997176,16.0978271 50.1518118,15.6316667 C50.0580706,15.4900627 49.9039059,15.1085815 49.8101647,14.9661278 C49.7884882,14.9498891 49.7617841,14.9418636 49.7347765,14.9434712 C49.7209412,14.9465865 49.7028706,14.9797218 49.6952471,15.0100251 C49.7164235,15.4104812 49.7723294,17.061584 49.7816471,17.368015 C49.7889882,17.7713033 49.8028235,17.768188 50.1684706,17.6727469 L50.4420706,17.5999624 Z" id="Shape"></path>
                        <path d="M63.2572235,19.1961228 C63.2512941,19.6025263 63.1030588,19.5872331 62.8336941,19.5827018 C62.4302118,19.5767544 61.8618353,19.6342456 61.7424,19.4977393 C61.6365176,19.4008822 59.7168,14.5396165 59.4429176,13.9270376 C59.4146824,13.8726617 59.3508706,13.7361554 59.2963765,13.7619273 C59.2283294,13.7876992 59.2540235,13.8831404 59.2540235,13.9377995 C59.2328471,14.4107569 59.2495059,18.4974486 59.2390588,19.145995 C59.2345412,19.4719674 59.2192941,19.5252105 58.9502118,19.5206792 L58.2759529,19.5099173 C58.0871938,19.497833 57.8978136,19.4993474 57.7092706,19.5144486 C57.5745882,19.5144486 57.5065412,19.4705514 57.4960941,19.3354612 L57.5127529,18.2666341 C57.5579294,17.1309699 57.6367059,10.3934511 57.6440471,9.89387218 C57.6516706,9.4602807 57.7742118,9.38154887 58.2050824,9.38749624 C58.5026824,9.37843358 58.7980235,9.38438095 59.0953412,9.38749624 C59.1877401,9.37517322 59.2745008,9.43481853 59.2963765,9.52570175 C59.6470588,10.3838221 61.1361882,14.317015 61.3719529,14.7933709 C61.4310202,14.9790843 61.5192852,15.1541412 61.6334118,15.3119248 L61.6469647,15.3119248 C61.7014588,15.2589649 61.6924235,14.9890677 61.6938353,14.9072206 C61.6969412,14.7038772 61.6636235,9.95362907 61.6656,9.85960401 C61.6656,9.72451378 61.6291765,9.60188471 61.6972235,9.50785965 C61.7395765,9.45461654 61.9149176,9.44413784 61.9815529,9.4319599 C62.3607529,9.4107193 62.8051765,9.45773183 63.1832471,9.45008521 C63.3707294,9.4532005 63.3554824,9.58800752 63.3933176,9.76557895 C63.4297412,9.95646115 63.2603294,18.9658747 63.2572235,19.1961228 Z" id="Path"></path>
                        <path d="M77.5790118,19.8013383 C77.6724706,19.6073409 77.6467765,19.5648596 77.4776471,19.4830125 C76.9411765,19.2281253 76.3634824,18.9355714 75.8222118,18.6914461 C75.6770824,18.6203609 75.6166588,18.6520802 75.5291294,18.8047293 C75.3264,19.2295414 75.1406118,19.6523709 74.9243294,20.0737845 C74.6507294,20.6166942 74.3559529,21.3292456 74.0944941,21.8781028 C73.7695059,22.5620501 73.6879059,22.3572907 73.1164235,22.0842782 C72.4952471,21.787193 72.1987765,21.687787 72.3501176,21.3717268 L75.8315294,14.1544536 C75.9992471,13.7692907 76.2197647,13.2462055 76.3999059,12.86699 C76.4312799,12.8066009 76.468142,12.7492442 76.5100235,12.6956491 C76.5671737,12.6002888 76.6886559,12.5663448 76.7867294,12.6183333 C77.1631059,12.7684336 77.5109647,13.0111429 77.8879059,13.1612431 C78.0525176,13.2249649 78.1084235,13.2963333 78.0813176,13.5084561 C78.0601412,13.6480777 76.9973647,15.6265689 76.6255059,16.4076566 L76.5907765,16.4804411 C76.3671529,17.0468571 76.2553412,16.9352732 76.8282353,17.2688922 C77.2235294,17.5036717 77.8077176,17.7237243 78.2038588,17.9267845 C78.3608471,18.0026842 78.3792,17.9964536 78.4545882,17.83899 C78.6118588,17.508203 79.5385412,15.4356867 79.6912941,15.1485138 L79.8652235,14.7803434 C80.0690824,14.3555313 80.1506824,14.2436642 80.5530353,14.4362456 C80.8334803,14.5334239 81.1054604,14.6536281 81.3662118,14.7956366 C81.4825412,14.8667218 81.6290824,14.9655614 81.6384645,15.1071654 C81.6457412,15.1844812 81.0245647,16.5515263 80.7100235,17.2102682 C80.0131765,18.673604 78.0056471,22.7328246 77.7986824,23.2918772 C77.6959059,23.5422331 77.5327059,24.1981429 77.1365647,24.0242531 C76.7782588,23.8665063 76.4487529,23.6498521 76.0783059,23.5178772 C75.9998118,23.4935213 75.8789647,23.4663333 75.8834824,23.3632456 C75.8985672,23.2637098 75.9335238,23.1682512 75.9862588,23.0825865 L76.7768471,21.4238371 C76.7881412,21.4314837 77.3172706,20.3518947 77.5790118,19.8013383 Z" id="Path"></path>
                        <path d="M85.488,20.0652882 C85.8674824,19.6240501 86.2664471,19.182812 86.6456471,18.74299 C86.8588235,18.4974486 87.0022588,18.4974486 87.2637176,18.688614 C87.5282824,18.9007368 87.7567059,19.1525088 88.0286118,19.3541529 L88.2132706,19.5133158 C88.3674353,19.6651153 88.2132706,19.8013383 88.0983529,19.915188 C87.8851765,20.1417544 87.6824471,20.3762506 87.4771765,20.6127293 C86.3689412,21.8347719 85.1731765,23.0341579 84.1558588,24.3349323 C83.6919529,24.9353333 82.8225882,25.8815313 83.6208,26.610792 C83.9550352,26.880829 84.4183949,26.9227247 84.7953882,26.716995 C85.8096,26.1834311 86.5112471,25.1446241 87.2549647,24.303213 C88.1209412,23.3207644 88.9569882,22.3094286 89.7961412,21.3176341 C89.8932654,21.1950521 90.0708109,21.1740565 90.1936941,21.2706216 C90.4878182,21.4870521 90.7699328,21.7194403 91.0387765,21.9667469 C91.2536471,22.1729223 91.2203294,22.3578571 91.0252235,22.5821579 C89.8596706,23.9333434 88.7503059,25.155386 87.5726118,26.4791003 C86.7594353,27.4009424 85.9112471,28.6518722 84.6112941,28.7943258 C83.8925751,28.8275815 83.1878852,28.5871177 82.6384941,28.1211404 C81.7888941,27.4720276 81.2340706,26.4182105 81.4927059,25.3524987 C81.6923294,24.5229825 82.3115294,23.8254411 82.8412235,23.1919048 C83.7040941,22.1516817 84.5960471,21.0978647 85.488,20.0652882 Z" id="Path"></path>
                        <path d="M90.5791059,37.1231905 C90.2433882,37.3477744 90.1725176,37.2172155 90.0228706,36.9914987 C89.7969882,36.6547644 89.4271059,36.2197569 89.4711529,36.0421855 C89.4906353,35.9005815 92.3870118,31.554188 92.7348706,30.9795589 C92.7650824,30.9263158 92.8404706,30.7946241 92.7876706,30.7657368 C92.7272471,30.7232556 92.6637176,30.7991554 92.6199529,30.8294586 C92.2192941,31.0809474 88.8753882,33.4159975 88.3372235,33.7770877 C88.0681412,33.9574912 88.0153412,33.9753333 87.8656941,33.7513158 L87.4907294,33.1885815 C87.3941371,33.025555 87.2855036,32.8700162 87.1657412,32.7232707 C87.0900706,32.6099875 87.0872471,32.5321053 87.1914353,32.4457268 L88.0771765,31.85099 C89.0357647,31.2429424 94.6077176,27.4813734 95.0230588,27.2021303 C95.3813647,26.9625363 95.5160471,27.0188947 95.7571765,27.3797018 C95.9325176,27.6192957 96.096,27.8662531 96.2620235,28.1134937 C96.3245861,28.1827711 96.3245861,28.2883417 96.2620235,28.357619 C95.7571765,29.1355915 93.3763765,32.6000752 93.1177412,33.0656692 C92.9998012,33.2202337 92.9064579,33.3921997 92.8410353,33.5754436 L92.8486588,33.5876216 C92.9243294,33.6029148 93.1403294,33.4406366 93.2083765,33.3950401 C93.3777882,33.2817569 97.2550588,30.5567293 97.3338353,30.5037694 C97.4467765,30.4292857 97.5241412,30.3278972 97.6390588,30.3324286 C97.7071059,30.3352607 97.8160941,30.4740326 97.8649412,30.5233108 C98.0978824,30.8235113 98.3107765,31.2163208 98.5315765,31.5241679 C98.6357647,31.6819148 98.5166118,31.7453534 98.3926588,31.8773283 C98.2554353,32.0163835 90.7682824,36.9940476 90.5791059,37.1231905 Z" id="Path"></path>
                        <path d="M94.6732235,41.4593885 C94.6218353,41.4760977 94.5749647,41.504985 94.5235765,41.5216942 C93.8416941,41.7414637 93.3247059,41.852198 92.7729882,42.0314687 C92.3618824,42.1631604 92.3240471,42.1328571 92.2452706,41.8873158 C92.1323294,41.5401028 91.9945412,41.0170175 91.8567529,40.6774511 C91.8160941,40.5468922 91.8931765,40.4792055 92.0473412,40.4302105 C93.5740235,39.8388722 98.5022118,38.3197444 99.2865882,38.0662732 C99.8264471,37.8921003 101.034071,37.502406 101.076424,37.502406 C101.294118,37.4740852 101.457318,37.4508622 101.548235,37.7343534 C101.646494,38.0436165 101.784,38.4706942 101.870118,38.7822231 C101.9472,39.0705288 101.938165,39.1311353 101.660047,39.2353559 C101.192753,39.4143434 98.7998118,40.0450476 98.0848941,40.290589 C98.062826,40.301231 98.0435018,40.3168341 98.0284235,40.3361855 C98.0356452,40.3723305 98.0616086,40.4018305 98.0964706,40.4135013 C98.4319059,40.490817 102.134118,41.2019524 102.509082,41.2656742 C102.63593,41.3040947 102.730531,41.410693 102.753882,41.5415188 C102.844518,41.8247268 103.1424,42.7106015 103.208753,42.9592581 C103.221371,42.9924522 103.218304,43.0295946 103.200414,43.0602544 C103.182524,43.0909142 103.151739,43.1117848 103.116706,43.117005 C102.942765,43.1246397 102.768501,43.1144862 102.596612,43.0867018 C101.898353,42.9425489 101.412988,42.8425764 100.625506,42.6409323 C99.9269647,42.4542982 99.2075294,42.331386 98.5030588,42.2161203 C98.343989,42.1988539 98.1833375,42.2028537 98.0253176,42.228015 C97.9609597,42.2427797 97.9025203,42.2766272 97.8576,42.3251554 C97.5159529,42.719381 97.1107765,43.0923659 96.7564235,43.4911228 C96.6189176,43.6352757 94.3742118,46.0521729 94.2434824,46.2218145 C94.1528471,46.3370802 93.8112,46.773787 93.6660706,46.3220702 C93.5248941,45.8853634 93.4272,45.4894386 93.2608941,45.0603784 C93.2383032,44.995965 93.2216684,44.9296035 93.2112,44.8621328 C93.1507765,44.6270702 96.2690824,41.4868596 96.6773647,40.9000526 C96.688336,40.8668641 96.6914299,40.8315644 96.6864,40.7969649 C96.6818824,40.7850702 96.6228706,40.7757243 96.5836235,40.7879023 C96.3235765,40.8561554 95.1249882,41.3146692 94.6732235,41.4593885 Z" id="Path"></path>
                        <path d="M104.536376,51.8216867 C104.561947,52.1780096 104.531842,52.5361518 104.447153,52.8831504 C104.370071,53.1847669 104.318682,53.4866667 103.951341,53.4396541 C103.624941,53.3895263 103.346824,53.2414085 103.005176,53.1666416 C102.853835,53.1349223 102.704188,53.1165138 102.707294,52.9270476 C102.710809,52.829853 102.738365,52.7350604 102.787482,52.651203 C102.861554,52.5211656 102.91697,52.3812994 102.952094,52.2357368 C103.073224,51.7276617 102.887153,51.074584 102.302682,50.984807 C101.75179,50.8849768 101.188929,51.0810765 100.818353,51.5019449 C100.249976,52.197787 99.8055529,52.9406416 99.1372235,53.5472732 C98.5581974,54.1369665 97.7733538,54.4778719 96.9484235,54.4980025 C96.8447711,54.5011421 96.7410247,54.4975473 96.6378353,54.4872406 C96.3398976,54.4508892 96.0487254,54.3717237 95.7732706,54.2521779 C94.4292706,53.6367669 94.0983529,52.0567494 94.3332706,50.7163258 C94.3832471,50.4147093 94.4603294,49.6118145 94.8773647,49.6019023 C95.2243544,49.6169843 95.5681467,49.6751066 95.9008941,49.7749424 C95.9916348,49.7943404 96.0795094,49.8253706 96.1623529,49.8672682 C96.3286588,49.9536466 96.2984471,50.1176241 96.2106353,50.2586617 C96.037985,50.4947805 95.8981618,50.7533602 95.7950118,51.0272882 C95.6498824,51.5625514 95.7752471,52.3555338 96.3314824,52.663381 C96.9350097,52.8890807 97.6139755,52.7508991 98.0820706,52.3071053 C98.3361882,52.0219148 98.5205647,51.6990576 98.7597176,51.4152832 C98.9985882,51.1037544 99.2662588,50.8179975 99.5336471,50.531391 C99.8280044,50.1862932 100.165356,49.880568 100.537412,49.6217268 C100.89685,49.42676 101.302368,49.3334679 101.710588,49.3518296 C102.240743,49.3442415 102.763907,49.4737704 103.229647,49.7279298 C103.736619,50.041085 104.131922,50.5069729 104.359059,51.0590075 C104.450674,51.3045105 104.510274,51.56086 104.536376,51.8216867 Z" id="Path"></path>
                        <ellipse id="Oval" cx="25.5687529" cy="73.9382506" rx="2.85515294" ry="2.8637995"></ellipse>
                        <ellipse id="Oval" cx="94.1528471" cy="73.9382506" rx="2.85515294" ry="2.8637995"></ellipse>
                        <path d="M71.5730824,74.3809048 L70.1023059,76.9045714 L79.5168,76.9045714 L78.0384,74.4689825 C77.6540554,73.871396 77.4522729,73.1741422 77.4578824,72.4630201 L77.4578824,35.6955388 C77.4487534,35.0125412 77.6338646,34.3410775 77.9915294,33.759812 L79.4851765,31.2537043 L70.1006118,31.2537043 L71.5262118,33.6977895 C71.9052012,34.294309 72.1037028,34.9882175 72.0976941,35.6955388 L72.0976941,45.4243008 C72.1212457,46.7196003 71.2578269,47.8627647 70.0082824,48.1906767 L50.5499294,53.9814311 C49.8827503,54.1723257 49.1650932,54.0442398 48.6045176,53.634218 C48.0483826,53.2154402 47.7204389,52.5591392 47.7187765,51.861619 L47.7187765,35.6955388 C47.7107575,35.0131846 47.8951617,34.3424492 48.2507294,33.7606617 L49.7457882,31.2537043 L40.3222588,31.2537043 L41.7523765,33.7552807 C42.135654,34.3303964 42.346076,35.003879 42.3585882,35.6955388 L42.3585882,72.4635865 C42.3457844,73.0555714 42.1840746,73.6347162 41.8884706,74.1472581 L41.7842824,74.3415388 L40.3208471,76.9045714 L49.7460706,76.9045714 L48.2433882,74.3840201 C48.2151529,74.3392732 48.1891765,74.2882957 48.1634824,74.2367519 C47.8746732,73.664819 47.7225193,73.0333202 47.7190588,72.392218 L47.7190588,62.6634561 C47.735165,61.4088631 48.5386745,60.3009756 49.7237647,59.8993459 L69.2741647,54.1740125 C69.9407572,53.9783188 70.660317,54.1091937 71.2159633,54.5271905 C71.7716097,54.9451873 72.0983469,55.6014116 72.0976941,56.2980727 L72.0976941,72.4650025 C72.1077394,73.1406451 71.9257741,73.8051892 71.5730824,74.3809048 Z" id="Path"></path>
                        <path d="M79.6630588,72.4633033 L79.6630588,71.1005063 C88.0565208,61.3627889 88.0565208,46.9229304 79.6630588,37.185213 L79.6630588,35.6949724 C79.6573473,35.4173897 79.7317708,35.1440704 79.8773647,34.9079373 L83.3714824,29.042416 L66.8597647,29.042416 C62.3615237,27.7664751 57.5986646,27.7664751 53.1004235,29.042416 L36.5161412,29.042416 L39.8685176,34.9079373 C40.0362694,35.1377382 40.1351976,35.410762 40.1536941,35.6949724 L40.1536941,37.3438095 C31.9519588,47.0324545 31.9519588,61.2532648 40.1536941,70.9419098 L40.1536941,72.4633033 C40.1232635,72.7447796 40.0254242,73.014701 39.8685176,73.2500551 L36.5164235,79.1158596 L52.6082824,79.1158596 C57.4173115,80.561736 62.5434415,80.561736 67.3524706,79.1158596 L83.4437647,79.1158596 L79.8779294,73.2500551 C79.7322494,73.0140381 79.6576356,72.7408386 79.6630588,72.4633033 L79.6630588,72.4633033 Z M83.992943,54.1439925 C83.9946073,59.0668739 82.4826029,63.8704921 79.6630588,67.8999724 L79.6630588,40.3868797 C82.4828245,44.4166764 83.9948396,49.2207246 83.992943,54.1439925 Z M59.9799529,30.0591328 C62.5650243,30.0626617 65.1323692,30.4872413 67.5817412,31.3162932 L69.6790588,34.9090702 C69.824217,35.1453673 69.8984238,35.4186107 69.8928,35.6961053 L69.8928,45.4248672 C69.9073536,45.7334757 69.6954222,46.0066467 69.3936,46.0683158 L49.9236706,51.8627519 L49.9236706,35.6949724 C49.9180032,35.4174338 49.9923183,35.1441526 50.1376941,34.9079373 L52.2502588,31.3621729 C54.7375685,30.5031769 57.3493419,30.0625121 59.9799529,30.058 L59.9799529,30.0591328 Z M35.9672362,54.1439925 C35.9626339,49.3015095 37.4222541,44.5714716 40.1534118,40.5783283 L40.1534118,67.7051253 C37.4232077,63.7132166 35.9636364,58.9849172 35.9672362,54.1439925 L35.9672362,54.1439925 Z M59.9799529,78.2285689 C57.3842676,78.2242969 54.8066412,77.7955597 52.3485176,76.9592306 L50.1385412,73.2492055 C50.000974,72.9839029 49.9276525,72.6898256 49.9245176,72.390802 L49.9245176,62.6628897 C49.9314927,62.383621 50.0979338,62.1332583 50.3522824,62.0194411 L69.8928,56.2963734 L69.8928,72.4627368 C69.8983693,72.7401355 69.8241646,73.013273 69.6790588,73.2494887 L67.4868706,77.0048271 C65.0657444,77.8119737 62.531306,78.2247433 59.9799529,78.2274361 L59.9799529,78.2285689 Z M69.168,77.4426667 L71.1196235,74.0962807 C71.4172348,73.6050099 71.5706844,73.0395122 71.5623529,72.4647193 L71.5623529,56.2963734 C71.5631007,55.7686655 71.3155649,55.2715399 70.8945061,54.9551379 C70.4734473,54.6387358 69.9282334,54.5401547 69.4235294,54.6891679 L49.8847059,60.4099699 C48.921341,60.7392588 48.2688157,61.6409986 48.2552471,62.6617569 L48.2552471,72.3905188 C48.2582045,72.9483868 48.3912567,73.4978223 48.6437647,73.9948922 C48.661575,74.031944 48.6812715,74.0680535 48.7027765,74.1030777 L50.6905412,77.4398346 L39.3986824,77.4398346 L41.4152471,73.8940702 C41.6706322,73.4593039 41.8111614,72.9663523 41.8235294,72.4618872 L41.8235294,35.6955388 C41.8097623,35.102314 41.6260757,34.5255962 41.2944,34.0342406 L39.3972706,30.7167419 L50.6894118,30.7167419 L48.7030588,34.0481178 C48.4006569,34.5434322 48.2449517,35.1148036 48.2541176,35.6955388 L48.2541176,51.861619 C48.2543217,52.3898589 48.5029185,52.8870572 48.9248739,53.2031442 C49.3468293,53.5192312 49.8927058,53.6171733 50.3977412,53.4674085 L69.8693647,47.6729724 C70.8847224,47.4067993 71.5854376,46.4767113 71.5634824,45.4243008 L71.5634824,35.6955388 C71.5696296,35.0885921 71.398871,34.4930642 71.0721882,33.9821303 L69.1677176,30.7167419 L80.4293647,30.7167419 L78.4447059,34.0481178 C78.1400333,34.5425751 77.9832384,35.1143489 77.9929412,35.6955388 L77.9929412,72.4635865 C77.98782,73.0722285 78.1602618,73.6690872 78.4890353,74.1806767 L80.4691765,77.4415338 L69.168,77.4426667 Z" id="Shape"></path>
                        <path d="M77.4578824,72.4635865 L77.4578824,35.6955388 C77.4487534,35.0125412 77.6338646,34.3410775 77.9915294,33.759812 L79.4851765,31.2537043 L70.1006118,31.2537043 L71.5262118,33.6977895 C71.9052012,34.294309 72.1037028,34.9882175 72.0976941,35.6955388 L72.0976941,45.4243008 C72.1212457,46.7196003 71.2578269,47.8627647 70.0082824,48.1906767 L50.5499294,53.9814311 C49.8827503,54.1723257 49.1650932,54.0442398 48.6045176,53.634218 C48.0483826,53.2154402 47.7204389,52.5591392 47.7187765,51.861619 L47.7187765,35.6955388 C47.7107575,35.0131846 47.8951617,34.3424492 48.2507294,33.7606617 L49.7457882,31.2537043 L40.3222588,31.2537043 L41.7523765,33.7552807 C42.135654,34.3303964 42.346076,35.003879 42.3585882,35.6955388 L42.3585882,72.4635865 C42.3457844,73.0555714 42.1840746,73.6347162 41.8884706,74.1472581 L41.7842824,74.3415388 L40.3208471,76.9045714 L49.7460706,76.9045714 L48.2433882,74.3840201 C48.2151529,74.3392732 48.1891765,74.2882957 48.1634824,74.2367519 C47.8746732,73.664819 47.7225193,73.0333202 47.7190588,72.392218 L47.7190588,62.6634561 C47.735165,61.4088631 48.5386745,60.3009756 49.7237647,59.8993459 L69.2741647,54.1740125 C69.9407572,53.9783188 70.660317,54.1091937 71.2159633,54.5271905 C71.7716097,54.9451873 72.0983469,55.6014116 72.0976941,56.2980727 L72.0976941,72.4650025 C72.1080084,73.1411247 71.926033,73.8061972 71.5730824,74.3823208 L70.1023059,76.9059875 L79.5168,76.9059875 L78.0384,74.4703985 C77.6538967,73.8725697 77.4521074,73.1749972 77.4578824,72.4635865 L77.4578824,72.4635865 Z" id="Path"></path>
                        <path d="M18.5680941,87.158401 C18.5687313,87.1970718 18.5513901,87.2338376 18.521178,87.2578695 C18.490966,87.2819014 18.4513245,87.2904621 18.4139294,87.2810301 C17.7410824,87.2045639 17.0216471,87.1272481 16.3488,87.3577794 C15.1696941,87.7412431 14.6346353,89.0315388 14.4502588,90.152193 C14.2993484,91.0230675 14.3568321,91.9174416 14.6179765,92.7616717 C14.8478118,93.5447419 15.2620235,94.3734085 15.9967059,94.7880251 C16.4260256,94.9723047 16.8929417,95.0513306 17.3587765,95.0185564 C17.8334118,95.0185564 18.5983059,94.7418622 18.5983059,95.1103158 C18.5983059,95.38701 18.6132706,95.3717168 18.5983059,95.648411 L18.5528471,96.523807 C18.5470824,96.5862919 18.5131848,96.6427155 18.4608,96.6770226 C18.3958383,96.7184799 18.3223938,96.7447134 18.2459294,96.7537719 C16.5772235,97.0151729 14.6346353,96.523807 13.5780706,95.1267419 C13.0018374,94.3031911 12.6628554,93.3363715 12.5983059,92.3323283 C12.4577411,91.2622744 12.5094763,90.1756144 12.7510588,89.1238647 C12.856564,88.6763371 13.0159461,88.2433423 13.2256941,87.8344185 C14.0248313,86.3626183 15.5089319,85.3931793 17.1741176,85.2552431 C17.5411765,85.2399499 18.5680941,85.1787769 18.5680941,85.746609 C18.5680941,86.2371253 18.5830588,86.6517419 18.5680941,87.158401 Z" id="Path"></path>
                        <path d="M21.5384471,96.7384787 C21.0638118,96.7537719 20.7114353,96.7537719 20.3291294,96.7537719 C20.2670118,96.7537719 20.1916235,96.7696316 20.1447529,96.7384787 C20.0538353,96.7234687 20.7885176,93.5141554 20.8960941,93.0692356 C21.2013176,91.8106591 21.4461176,90.5826692 21.7214118,89.3082331 C21.936,88.295198 22.4863059,85.8530952 22.5179294,85.6387068 C22.5481412,85.4084586 22.5331765,85.3478521 22.7477647,85.3478521 C23.2842353,85.3781554 23.8345412,85.3478521 24.3546353,85.3478521 C24.5994353,85.3478521 24.5073882,85.3628622 24.6146824,85.6387068 C24.6903529,86.0997694 26.4361412,94.4051278 26.4965647,94.5880802 C26.6343529,95.01799 26.6659765,95.4629098 26.8034824,95.8928195 C26.8489412,96.0157318 27.0937412,96.7373459 26.7416471,96.7373459 C26.4816,96.7526391 25.5941647,96.7526391 25.3493647,96.7526391 C25.1649882,96.7526391 25.1497412,96.7684987 25.0893176,96.5827143 C24.9969882,96.3218797 24.9199059,95.999589 24.8292706,95.7387544 L24.7219765,95.385594 C24.6858458,95.2483329 24.5559594,95.1574846 24.4150588,95.1709223 C23.7784096,95.1217806 23.1387517,95.1268967 22.5029647,95.1862155 C22.3488,95.2165188 22.3033412,95.2315288 22.2880941,95.4167469 C22.2578824,95.6464286 22.1658353,96.7517895 21.8589176,96.7517895 C21.7519156,96.7576474 21.6445999,96.75319 21.5384471,96.7384787 Z M23.5431529,93.2533208 C23.6806588,93.2533208 23.8181647,93.268614 23.9559529,93.268614 C24.2323765,93.268614 24.2930824,93.268614 24.1552941,92.7166416 C24.0177882,92.086787 23.9257412,91.5954211 23.7882353,91.0122957 C23.7278118,90.8282105 23.6659765,90.3671479 23.6055529,90.1830627 C23.5859124,90.1593525 23.5586613,90.1432327 23.5284706,90.1374662 C23.5132235,90.1374662 23.4830118,90.1677694 23.4663529,90.1980727 C23.3757176,90.6438421 22.9615059,92.4711003 22.8858353,92.808401 C22.7785412,93.2533208 22.7937882,93.2533208 23.2215529,93.2533208 L23.5431529,93.2533208 Z" id="Shape"></path>
                        <path d="M28.4738824,87.3577794 C28.4589176,86.8817068 28.4134588,85.5169273 28.536,85.4237519 C28.6544096,85.3652822 28.7876098,85.3438701 28.9183059,85.3622957 C29.4533647,85.3622957 30.0194824,85.3472857 30.5706353,85.3472857 C33.7541647,85.3472857 34.0308706,87.9564812 34.0308706,89.3688396 C34.0308706,90.9341303 33.3249882,92.7763985 30.7702588,92.7763985 C30.6477176,92.7763985 30.2199529,92.7310852 30.2199529,92.9463233 C30.2199529,93.1445689 30.2803765,96.7696316 30.1730824,96.8149449 C30.049528,96.8540904 29.9197916,96.8698404 29.7904941,96.861391 C29.2706824,96.876401 29.2706824,96.861391 28.7505882,96.861391 C28.5207529,96.861391 28.4905412,96.8149449 28.4905412,96.5846967 C28.4896941,95.9548421 28.4896941,88.2637619 28.4738824,87.3577794 Z M30.2349176,90.5206466 C30.2199529,90.6888722 30.2199529,90.8579474 30.2199529,91.0270226 C30.2260978,91.1454562 30.3158483,91.2425133 30.4331294,91.2575539 C30.8969824,91.2672089 31.3427125,91.076973 31.6574118,90.7350351 C32.0868706,90.259812 32.1639529,89.3691228 32.1018353,88.7701378 C32.0247529,87.9414712 31.5199059,87.158401 30.6336,87.0969449 C30.4811294,87.0816516 30.2815059,87.0816516 30.2360471,87.2501604 C30.2285541,87.352544 30.2285541,87.4553407 30.2360471,87.5577243 C30.2199529,88.1720025 30.2349176,90.1824962 30.2349176,90.5206466 L30.2349176,90.5206466 Z" id="Shape"></path>
                        <path d="M35.5767529,93.713817 C35.5465412,92.8539975 35.6083765,89.0006692 35.6083765,87.9261779 C35.6083765,87.2963233 35.5917176,86.6670351 35.6236235,86.0530401 C35.6385882,85.2696867 35.6840471,85.3166992 36.3264,85.3166992 C36.7708235,85.3166992 38.6075294,85.3166992 39.0672,85.301406 C39.5265882,85.2702531 39.6338824,85.2702531 40.0921412,85.2552431 C40.3685647,85.2552431 40.4442353,85.301406 40.4744471,85.5472306 C40.5213176,85.9921504 40.4744471,86.4534962 40.5063529,86.8981328 C40.5213176,87.1898371 40.4292706,87.1739774 40.1392941,87.2051303 L37.9804235,87.2201404 C37.7508706,87.2354336 37.6901647,87.2815965 37.6752,87.5274211 C37.5926527,88.1428748 37.5718427,88.7650802 37.6130824,89.3846992 C37.6283294,89.5829449 37.6585412,89.6152306 37.8731294,89.6152306 C38.5157647,89.5690677 38.8224,89.6613935 39.48,89.6152306 C39.6494118,89.5999373 39.8171294,89.5840777 39.9851294,89.5840777 C40.2448941,89.5840777 40.3372235,89.6766867 40.3688471,89.9375213 L40.4143059,90.3983008 C40.4143059,90.7205915 40.3840941,90.7356015 40.3840941,91.0578922 C40.3999815,91.1982979 40.3488573,91.3379869 40.2461752,91.4347346 C40.1434931,91.5314823 40.001304,91.5739342 39.8625882,91.5492581 L37.9502118,91.5492581 C37.6432941,91.5492581 37.6130824,91.6568772 37.6130824,91.9797343 C37.6130824,92.5778697 37.5981176,93.3306366 37.5981176,93.9137619 C37.5981176,94.6353759 37.4908235,94.5430501 38.1800471,94.5277569 C38.5928471,94.5277569 39.6177882,94.5589098 39.8323765,94.5430501 C40.0119922,94.5241915 40.1904955,94.58768 40.3181421,94.7158231 C40.4457887,94.8439662 40.5089324,95.0230646 40.4899765,95.203208 C40.4788415,95.4590356 40.4844063,95.7153198 40.5066353,95.9704185 C40.5066353,96.4314812 40.3990588,96.6005564 40.0924235,96.6620125 C39.8184972,96.7002443 39.5418601,96.7154017 39.2654118,96.7073258 C38.4400941,96.7384787 37.6130824,96.6770226 36.7863529,96.7073258 C36.467414,96.7148043 36.1487277,96.6839991 35.8370824,96.6155664 C35.6843294,96.5846967 35.6394353,96.5391003 35.6394353,96.3700251 C35.6092235,95.8786591 35.5776,95.3875764 35.5623529,94.8973434 C35.5473882,94.4977368 35.5623529,94.0989799 35.5623529,93.7155163 L35.5767529,93.713817 Z" id="Path"></path>
                        <path d="M47.8096941,95.1876316 C47.7794824,93.8055764 47.8548706,88.6630852 47.8548706,87.5577243 C47.8548706,87.5115614 47.8399059,87.4653985 47.8399059,87.4192356 C47.8096941,87.2493108 47.7024,87.2045639 47.5496471,87.2045639 C47.3048471,87.1892707 46.4326588,87.1892707 46.2177882,87.1892707 C45.8507294,87.1892707 45.8656941,86.7587945 45.8656941,86.3297343 C45.8656941,85.6534336 45.8504471,85.3472857 46.2327529,85.3472857 C46.7376,85.3472857 47.1518118,85.3622957 47.6566588,85.3622957 C48.6816,85.3472857 51.1773176,85.3472857 51.4373647,85.3472857 C51.8044235,85.3472857 51.6821647,85.9301278 51.6821647,86.2674286 C51.6821647,86.6517419 51.7578353,87.2045639 51.4373647,87.2045639 L50.0896941,87.2045639 C49.7827765,87.2045639 49.7071059,87.2810301 49.7071059,87.5115614 L49.6602353,96.1086241 C49.6754824,96.3694586 49.7373176,96.8608246 49.4470588,96.8608246 L48.0686118,96.8608246 C47.8537412,96.8608246 47.8387765,96.8296717 47.8387765,96.615 C47.8246588,96.1389273 47.8246588,95.6637043 47.8096941,95.1876316 Z" id="Path"></path>
                        <path d="M60.7753412,91.1649449 C60.7607122,92.001306 60.6373171,92.8321753 60.4082824,93.6365013 C60.1329882,94.6039398 59.6741647,95.4773534 58.848,96.0471679 C58.2655661,96.495493 57.5726653,96.7767229 56.8432941,96.8608246 C56.736,96.8608246 56.6456471,96.8758346 56.5377882,96.8758346 C56.4457412,96.8758346 56.3534118,96.8608246 56.2461176,96.8608246 C54.4951063,96.6552992 53.0648736,95.3621472 52.68,93.6365013 C52.4437139,92.8337656 52.3201716,92.0019047 52.3129412,91.1649449 C52.2829059,90.1521805 52.4176611,89.1412775 52.7119059,88.1720025 C53.2280621,86.4822949 54.7835053,85.328576 56.5454118,85.328576 C58.3073182,85.328576 59.8627614,86.4822949 60.3789176,88.1720025 C60.672456,89.1413866 60.8063559,90.152312 60.7753412,91.1649449 Z M58.8008471,89.460599 C58.6181647,88.6169223 58.2508235,87.787406 57.5463529,87.2798972 C57.426011,87.1877365 57.2918157,87.115369 57.1488,87.0655088 C56.9559198,86.9806069 56.7469765,86.9386723 56.5363765,86.9425965 C56.3307774,86.9385646 56.1268678,86.9805537 55.9394824,87.0655088 C55.7950051,87.1119763 55.6602558,87.1846426 55.5419294,87.2798972 C54.8222118,87.7862732 54.4548706,88.6157895 54.2857412,89.460599 C54.0873011,90.3892413 54.0565078,91.346053 54.1948235,92.285599 C54.3475765,93.1301253 54.6530824,94.2663559 55.4496,94.6962657 C55.7822985,94.8861656 56.1542148,94.9964598 56.5363765,95.0185564 C56.9230802,94.9964364 57.2996733,94.8862157 57.6375529,94.6962657 C58.4326588,94.2663559 58.7387294,93.1301253 58.8923294,92.285599 C59.0306624,91.3458416 58.9996769,90.3888075 58.8008471,89.4600326 L58.8008471,89.460599 Z" id="Shape"></path>
                        <path d="M62.3232,85.3311429 C62.7523765,85.3311429 63.0124235,85.3472857 63.3495529,85.3311429 C63.5387258,85.3181466 63.7110462,85.4400347 63.7623529,85.6231303 C63.8092235,85.7610526 65.1393882,91.3954762 65.1546353,91.4572155 C65.1710118,91.4880852 65.1862588,91.5648346 65.2466824,91.5648346 C65.2935529,91.5648346 65.3088,91.5033784 65.3088,91.4722256 C65.4160941,90.9508396 66.2123294,86.5908521 66.3337412,85.915401 C66.3487059,85.8386516 66.3487059,85.7613358 66.3639529,85.6998797 C66.4410353,85.4081754 66.4862118,85.3778722 66.8083765,85.3625789 C67.2059294,85.3314261 67.4205176,85.3778722 67.8180706,85.3475689 L68.0024471,85.3475689 C68.3548235,85.3625789 68.4621176,85.5619574 68.4923294,85.8992581 C68.5996235,86.7590777 69.3645176,91.1652281 69.3794824,91.2266842 C69.4099765,91.3804662 69.4416,91.5489749 69.5488941,91.5489749 C69.6107294,91.5489749 69.6711529,91.3192932 69.6711529,91.3031504 C69.8405647,90.582386 70.0537412,89.875782 70.2533647,89.1547343 C70.5283765,88.1872957 70.7429647,87.0669248 70.9728,86.084193 C71.0182588,85.930411 71.0953412,85.7613358 71.1405176,85.6081203 C71.1923512,85.4582028 71.3347372,85.3589861 71.4928941,85.3625789 C71.5997112,85.3500928 71.7072651,85.3450774 71.8147765,85.3475689 C72.1519059,85.3314261 72.4421647,85.3625789 72.7792941,85.3625789 C73.4518588,85.3625789 73.0543059,86.3300175 72.9470118,86.6520251 C72.6417882,87.6188972 72.3823059,88.6936717 72.1366588,89.6764035 C71.8147765,90.9043935 71.4928941,92.1173734 71.1873882,93.3456466 C70.9425882,94.3433885 70.6825412,95.4790526 70.4815059,96.4926541 C70.4546091,96.7059902 70.2661767,96.8610473 70.0523294,96.8458145 L68.8277647,96.8458145 C68.7069176,96.8458145 68.6600471,96.7693484 68.6301176,96.6758897 C68.4457412,95.9239724 67.5289412,91.563985 67.4510118,91.3798997 C67.4367626,91.3511735 67.4073254,91.3332153 67.3753412,91.3337368 C67.3482032,91.3374762 67.3248663,91.3548982 67.3135059,91.3798997 C67.2793606,91.4639871 67.2540014,91.5513995 67.2378353,91.6407343 C66.8690824,93.1607118 66.4864941,94.7262857 66.1812706,96.3077193 C66.1344,96.5685539 66.1191529,96.8458145 65.9212235,96.8458145 L64.5893647,96.8458145 C64.4049882,96.8458145 64.3900235,96.8458145 64.3445647,96.6617293 C64.2220235,96.2318195 61.8502588,86.3906241 61.7263059,85.915401 C61.6983476,85.810288 61.693244,85.7003747 61.7113412,85.5931103 C61.7429647,85.3928822 61.8502588,85.3164121 62.0634353,85.3164121 C62.1856941,85.3161328 62.3079529,85.3311429 62.3232,85.3311429 Z" id="Path"></path>
                        <path d="M81.2309647,96.4006115 C81.2309647,96.8608246 81.0615529,96.8455313 80.7563294,96.8455313 C80.2969412,96.8455313 79.6551529,96.9222807 79.5168,96.7690652 C79.3942588,96.6614461 77.1283765,91.1802381 76.8062118,90.4894937 C76.776,90.4280376 76.7003294,90.2748221 76.6368,90.3051253 C76.5597176,90.3362782 76.5916235,90.4433308 76.5916235,90.5053534 C76.5763765,91.0420326 76.6672941,95.6787143 76.6672941,96.4156216 C76.6672941,96.783792 76.6520471,96.8455313 76.3468235,96.8455313 L75.5802353,96.8455313 C75.3660303,96.835071 75.1513513,96.8401821 74.9378824,96.8608246 C74.7851294,96.8608246 74.7080471,96.8143784 74.6928,96.6625789 L74.6928,95.449599 C74.7247059,94.1598697 74.6928,86.514386 74.6928,85.9465539 C74.6928,85.455188 74.8305882,85.3634286 75.3201882,85.3634286 C75.6573176,85.3484185 75.9944471,85.3484185 76.3315765,85.3484185 C76.435566,85.3327467 76.5343772,85.3989839 76.5597176,85.5013509 C76.9739294,86.4687895 78.7338353,90.9052431 79.0088471,91.4427719 C79.0557176,91.5498246 79.2234353,91.9808672 79.3154824,92.0258972 L79.3307294,92.0258972 C79.3925647,91.9644411 79.3776,91.6577268 79.3776,91.5656842 C79.3776,91.3351529 79.2536471,85.9465539 79.2536471,85.8395013 C79.2536471,85.6857193 79.2081882,85.547797 79.2852706,85.4398947 C79.3307294,85.3787218 79.5303529,85.3634286 79.6057412,85.3484185 C80.0352,85.3172657 80.5400471,85.3634286 80.9678118,85.3484185 C81.1824,85.3484185 81.1674353,85.5013509 81.2126118,85.7007293 C81.2614588,85.9151178 81.2309647,96.1389273 81.2309647,96.4006115 Z" id="Path"></path>
                        <path d="M89.7280941,85.2685539 C90.1325198,85.2638004 90.5352922,85.3211043 90.9224471,85.4384787 C91.2578824,85.546381 91.5950118,85.6228471 91.5179294,86.0374637 C91.4422588,86.4056341 91.2578824,86.7129148 91.1508706,87.0966617 C91.1054118,87.2665865 91.0752,87.434812 90.8606118,87.4189524 C90.7511639,87.4087636 90.6458298,87.3720231 90.5536941,87.3118997 C90.4120901,87.2185422 90.2578583,87.1460569 90.0957176,87.0966617 C89.5287529,86.9267368 88.7791059,87.0966617 88.6416,87.7568195 C88.4933278,88.3764784 88.6790465,89.0287845 89.1312,89.4764586 C89.8811294,90.1669198 90.6928941,90.7197419 91.3352471,91.5181053 C91.9640921,92.2140997 92.2982565,93.1282172 92.2670118,94.0669774 C92.2644245,94.1850446 92.2542386,94.302821 92.2365176,94.4195714 C92.1764666,94.7557885 92.0685392,95.0816005 91.9160471,95.38701 C91.1347765,96.8758346 89.3282824,97.1525288 87.8287059,96.7993684 C87.4929882,96.7229023 86.5891765,96.5841303 86.6041412,96.1086241 C86.6440801,95.7156475 86.7314003,95.3289817 86.8641882,94.9571003 C86.8926308,94.8549895 86.9338029,94.7568858 86.9867294,94.6651128 C87.0940235,94.4810276 87.2784,94.5271905 87.4311529,94.6348095 C87.6867249,94.8464765 87.9700214,95.0220005 88.2731294,95.1564787 C88.8703059,95.3547243 89.7727059,95.2640977 90.1550118,94.6501028 C90.4771765,94.0972807 90.3077647,93.0845288 89.8647529,92.6393258 C89.5581176,92.3323283 89.2071529,92.1026466 88.9005176,91.8106591 C88.5633882,91.5189549 88.2578824,91.1966642 87.9509647,90.8743734 C87.5797732,90.5181826 87.2557122,90.115663 86.9867294,89.6766867 C86.7892416,89.2555891 86.7102545,88.7883601 86.7583059,88.3255013 C86.7825651,87.7220498 86.9617083,87.1350958 87.2784,86.6214386 C87.6649893,86.0656592 88.2168262,85.6466623 88.8550588,85.4243183 C89.13817,85.3349086 89.4316097,85.282554 89.7280941,85.2685539 Z" id="Path"></path>
                        <path d="M95.6992941,95.893386 C95.7016102,96.1317361 95.6140731,96.3621662 95.4542118,96.5385338 C95.1726405,96.8517166 94.7235739,96.9504324 94.3372235,96.7840752 C93.3879529,96.3694586 93.8007529,94.834188 94.8420706,94.9432231 C95.3269444,94.9955774 95.6956409,95.4042476 95.6992941,95.893386 Z" id="Path"></path>
                        <path d="M98.6394353,96.7384787 C98.1648,96.7537719 97.8124235,96.7537719 97.4301176,96.7537719 C97.368,96.7537719 97.2926118,96.7696316 97.2457412,96.7384787 C97.1548235,96.7234687 97.8895059,93.5141554 97.9970824,93.0692356 C98.3023059,91.8106591 98.5471059,90.5826692 98.8224,89.3082331 C99.0369882,88.295198 99.5872941,85.8530952 99.6189176,85.6387068 C99.6491294,85.4084586 99.6341647,85.3478521 99.8487529,85.3478521 C100.385224,85.3781554 100.935529,85.3478521 101.455624,85.3478521 C101.700424,85.3478521 101.608376,85.3628622 101.715671,85.6387068 C101.791341,86.0997694 103.537129,94.4051278 103.597553,94.5880802 C103.735341,95.01799 103.766965,95.4629098 103.904471,95.8928195 C103.949929,96.0157318 104.194729,96.7373459 103.842635,96.7373459 C103.582588,96.7526391 102.695153,96.7526391 102.450353,96.7526391 C102.265976,96.7526391 102.250729,96.7684987 102.190306,96.5827143 C102.097976,96.3218797 102.020894,95.999589 101.930259,95.7387544 L101.822965,95.385594 C101.786834,95.2483329 101.656948,95.1574846 101.516047,95.1709223 C100.879398,95.1217806 100.23974,95.1268967 99.6039529,95.1862155 C99.4497882,95.2165188 99.4043294,95.2315288 99.3890824,95.4167469 C99.3588706,95.6464286 99.2668235,96.7517895 98.9599059,96.7517895 C98.8529038,96.7576474 98.7455882,96.75319 98.6394353,96.7384787 Z M100.644141,93.2533208 C100.781647,93.2533208 100.919153,93.268614 101.056941,93.268614 C101.333365,93.268614 101.394071,93.268614 101.256282,92.7166416 C101.118776,92.086787 101.026729,91.5954211 100.889224,91.0122957 C100.8288,90.8282105 100.766965,90.3671479 100.706541,90.1830627 C100.686901,90.1593525 100.65965,90.1432327 100.629459,90.1374662 C100.614212,90.1374662 100.584,90.1677694 100.567341,90.1980727 C100.476706,90.6438421 100.062494,92.4711003 99.9868235,92.808401 C99.8795294,93.2533208 99.8947765,93.2533208 100.322541,93.2533208 L100.644141,93.2533208 Z" id="Shape"></path>
                        <path d="M107.457035,95.893386 C107.459351,96.1317361 107.371814,96.3621662 107.211953,96.5385338 C106.930382,96.8517166 106.481315,96.9504324 106.094965,96.7840752 C105.145694,96.3694586 105.558494,94.834188 106.599812,94.9432231 C107.084686,94.9955774 107.453382,95.4042476 107.457035,95.893386 Z" id="Path"></path>
                        <path d="M66.5906824,62.6685539 L65.6817882,64.1998596 C65.6504898,64.2445789 65.6260314,64.2937394 65.6092235,64.3457118 L61.7376,73.1333734 C61.6885834,73.2577221 61.6952694,73.397212 61.7559529,73.5162707 L62.8288941,75.3571228 L56.9754353,75.3571228 L58.0294588,73.5162707 C58.0994767,73.3998837 58.1063752,73.2559609 58.0478118,73.1333734 C57.5570824,72.0393409 57.0844235,70.9458747 56.5936941,69.8702506 C55.7748706,68.0293985 54.9760941,66.1885464 54.1397647,64.3457118 L54.0852706,64.2182682 L53.1763765,62.6685539 L57.5387294,62.6685539 L56.8483765,63.8353709 C56.7783585,63.9517579 56.7714601,64.0956807 56.8300235,64.2182682 L59.8836706,71.0549098 L62.9192471,64.2012757 C62.9679575,64.076973 62.9612769,63.9376997 62.9008941,63.8186617 L62.2283294,62.6699699 L66.5906824,62.6685539 Z" id="Path"></path>
                        <path d="M63.6629647,32.8017193 L62.7074824,34.2806316 C62.6703328,34.3407611 62.6514007,34.4104216 62.6529882,34.4811429 L62.6529882,41.9119549 C62.6482842,43.3589627 61.7779193,44.6616785 60.4453929,45.216166 C59.1128666,45.7706535 57.5787138,45.4684995 56.5541647,44.449782 L54.7905882,44.0852932 L57.84,40.8346316 L58.2801882,42.6247895 C58.2801882,42.6426316 58.2985412,42.6426316 58.2985412,42.6607569 L58.3177412,42.6607569 C58.5116329,42.8734075 58.7830446,42.9983388 59.0702118,43.0071203 C59.6691107,43.0003179 60.1517352,42.5127011 60.1541647,41.9119549 L60.1541647,34.4811429 C60.1555746,34.4104436 60.136656,34.3408327 60.0996706,34.2806316 L59.2176,32.8017193 L63.6629647,32.8017193 Z" id="Path"></path>
                    </g>
                </g>
            </g>
        </g>
    </g>
</svg>