<svg xmlns="http://www.w3.org/2000/svg" width="77" height="73" viewBox="0 0 77 73">
    <g fill="none" fill-rule="evenodd">
        <g fill="#002856" fill-rule="nonzero">
            <g>
                <g transform="translate(-375 -46) translate(17 16) translate(358 30)">
                    <path d="M63.134 72.995c-2.907.01-5.734-.97-8.03-2.784-1.49-1.182-3.323-1.83-5.212-1.844H26.384c-1.89.013-3.724.662-5.215 1.844-5.163 4.05-12.464 3.638-17.154-.97-4.69-4.607-5.352-12.017-1.553-17.41 1.332-1.886 2.044-4.153 2.037-6.476V32.342c0-.15.022-.299.062-.442l.02-.111C5.819 13.889 20.448.009 38.084.002c17.635-.007 32.275 13.862 33.525 31.76l.035.187c.033.128.05.26.05.393v12.896c-.007 2.35.723 4.64 2.083 6.54 2.75 3.861 3.272 8.92 1.369 13.278-1.904 4.358-5.944 7.355-10.604 7.865-.468.049-.937.074-1.407.074zm-36.75-6.617H49.89c2.323.015 4.575.809 6.409 2.258 4.403 3.46 10.634 3.101 14.626-.84 3.992-3.94 4.532-10.267 1.267-14.85-1.602-2.239-2.462-4.939-2.455-7.708l-.011-12.896-.058-.343C68.541 15.12 54.765 2.007 38.137 1.987 21.508 1.967 7.7 15.045 6.533 31.922c-.012.162-.039.322-.08.479v12.953c.009 2.74-.832 5.413-2.404 7.638-3.233 4.59-2.67 10.897 1.322 14.82 3.993 3.922 10.208 4.273 14.603.825 1.834-1.45 4.087-2.244 6.41-2.259z"/>
                    <path d="M10.284 31.575c-.197-.025-.246-.048-.242-.223.004-.184.043-.374.067-.565.012-.112 0-.307.143-.343.138-.006.276.005.411.033l4.74.595c.424.07.783.356.95.759.086.22.109.461.065.695-.027.233-.074.463-.142.687-.01.016-.041.127-.084.122-.167-.047-.722-.185-.94-.238-.135-.034-.016-.169.026-.225.063-.113.107-.236.13-.364-.003-.11-.064-.212-.16-.265-.088-.07-.194-.114-.306-.126-.494-.062-4.539-.529-4.658-.542zM17.135 28.41c-.082.257-.149.446-.222.652-.012.034-.018.078-.043.096-.026.046-1.573-.97-1.787-1.113-.605-.407-1.205-.776-1.822-1.17-.493-.312-1.672-1.079-1.779-1.137-.115-.061-.15-.065-.11-.18.119-.281.207-.583.306-.863.047-.131.038-.08.203-.083.257.048 4.96.718 5.069.72.252.01.492.08.745.088.073-.001.5.007.432.196-.042.143-.211.62-.258.751-.035.1-.03.11-.138.107-.155-.001-.34-.023-.494-.024l-.207-.01c-.08-.008-.152.045-.171.123-.147.333-.267.677-.357 1.03-.013.088-.013.116.08.16.116.06.68.323.621.488-.017.058-.04.115-.068.169zm-1.45-1.75c.026-.075.06-.146.086-.22.053-.148.065-.18-.253-.214-.357-.047-.634-.093-.967-.132-.108-.003-.362-.059-.47-.062-.012.006-.034.016-.04.033-.003.008.008.03.021.045.217.135 1.1.71 1.262.817.214.144.216.135.299-.095l.061-.173zM21.138 20.412c.211.152.15.225.05.367-.149.215-.322.539-.438.553-.088.022-3.325-.726-3.745-.804-.038-.005-.132-.02-.138.019-.012.046.048.067.076.087.24.184 2.386 1.667 2.723 1.909.169.121.192.149.092.29l-.248.357c-.074.097-.141.199-.202.305-.049.072-.095.092-.17.05l-.554-.4c-.578-.439-4.08-2.94-4.339-3.126-.224-.162-.221-.256-.062-.485.102-.162.21-.319.32-.476.027-.053.089-.078.144-.057.576.126 3.172.765 3.507.813.118.037.24.053.364.05l.006-.008c-.009-.048-.154-.142-.195-.172-.106-.075-2.606-1.791-2.655-1.827-.07-.05-.148-.074-.173-.146-.012-.041.046-.14.063-.18.126-.21.31-.43.442-.635.069-.1.134-.042.24.003.114.05 4.773 3.428 4.892 3.513zM27.296 15.597c-.072.032-.157.11-.246.09-.108-.018-.231-.188-.32-.278-.996-1.004-1.97-2.041-2.923-3.09-.182-.207-.425-.47-.61-.683l-.26-.273c-.064-.083-.332-.371-.366-.432-.049-.073-.013-.133.057-.183.202-.116.393-.234.603-.354.105-.06.196-.161.309-.065.188.163 1.817 2.069 2.687 3.004.032.03.067.057.104.081 0 0 .034-.009.03-.016l-.023-.148c-.301-1.19-.777-2.52-1.047-3.709-.063-.256 0-.321.195-.432.172-.098.349-.189.516-.294.09-.052.167-.075.252.027.041.05.068.111.078.176.367 1.363 1.298 5.039 1.425 5.467.042.165.096.335.13.505.011.055.057.209.013.254-.076.063-.493.29-.604.353zM31.53 13.582c-.255.077-.446.128-.655.184-.033.008-.072.028-.101.018-.054.005-.109-1.87-.115-2.131-.012-.739-.054-1.45-.084-2.194-.028-.59-.075-2.015-.089-2.138-.016-.131-.034-.162.083-.194.295-.06.591-.157.874-.233.133-.035.085-.014.183.124.107.242 2.234 4.568 2.294 4.66.136.218.216.458.352.676.043.06.278.423.087.474-.14.046-.622.174-.755.21-.1.027-.106.037-.166-.055-.087-.13-.174-.297-.262-.428l-.108-.178c-.038-.072-.122-.103-.197-.075-.354.066-.7.162-1.038.286-.08.04-.101.055-.084.158.016.131.123.754-.042.798-.058.019-.117.031-.176.038zm.594-2.212c.075-.02.152-.032.227-.052.15-.04.183-.048.03-.333-.165-.327-.284-.586-.442-.887-.06-.091-.158-.338-.217-.43-.014-.01-.031-.015-.048-.014-.01.002-.02.023-.026.043.014.258.05 1.325.055 1.523.005.26.014.259.247.197l.174-.047zM40.285 12.401c-.003.263-.098.253-.27.25-.256-.004-.618.033-.694-.055-.068-.063-1.29-3.203-1.465-3.599-.018-.035-.058-.123-.093-.107-.044.017-.027.079-.027.114-.014.306-.003 2.946-.01 3.365-.003.21-.012.245-.184.242l-.429-.007c-.12-.008-.24-.007-.36.003-.087 0-.13-.029-.137-.116l.01-.69c.03-.734.08-5.087.085-5.41.004-.28.082-.33.357-.327.19-.005.377-.002.567 0 .059-.007.114.031.128.09.223.554 1.172 3.095 1.322 3.403.037.12.093.233.166.335h.009c.035-.034.029-.209.03-.262.002-.131-.02-3.2-.018-3.26 0-.088-.024-.167.02-.228.027-.034.138-.04.18-.049.242-.014.525.017.766.012.12.002.11.089.134.204.023.123-.085 5.943-.087 6.092zM49.406 12.792c.06-.125.043-.153-.064-.206-.342-.164-.71-.353-1.055-.511-.092-.046-.13-.025-.186.073-.13.275-.248.548-.386.82-.174.35-.361.811-.528 1.166-.207.441-.259.31-.623.133-.395-.192-.584-.256-.488-.46l2.217-4.663c.107-.249.247-.587.362-.832.02-.039.044-.076.07-.11.037-.062.114-.084.177-.05.24.097.46.253.7.35.106.042.141.088.124.225-.013.09-.69 1.368-.927 1.873l-.022.047c-.143.366-.214.293.151.509.252.152.624.294.876.425.1.05.112.045.16-.057.1-.213.69-1.552.787-1.738l.111-.238c.13-.274.182-.346.438-.222.179.063.352.14.518.232.074.046.167.11.173.201.005.05-.39.934-.59 1.36-.445.944-1.723 3.567-1.855 3.928-.065.162-.17.585-.422.473-.228-.102-.438-.242-.674-.327-.05-.016-.127-.033-.124-.1.01-.064.032-.126.066-.181l.503-1.072c.007.005.344-.692.511-1.048zM54.443 12.963c.242-.286.496-.57.737-.855.136-.158.227-.158.394-.035.168.137.314.3.487.43l.118.103c.098.098 0 .186-.074.26-.135.146-.265.297-.395.45-.706.79-1.468 1.564-2.115 2.405-.296.388-.85.999-.341 1.47.213.174.508.202.748.069.646-.345 1.093-1.016 1.566-1.56.552-.634 1.084-1.288 1.619-1.928.061-.08.175-.093.253-.03.187.139.367.29.538.449.137.133.116.253-.009.397-.742.873-1.448 1.663-2.198 2.518-.518.595-1.059 1.404-1.886 1.496-.458.021-.907-.134-1.257-.435-.54-.42-.894-1.1-.73-1.789.128-.536.522-.986.86-1.396.549-.672 1.117-1.352 1.685-2.02zM57.685 23.982c-.214.145-.259.061-.354-.085-.144-.217-.38-.498-.351-.613.012-.092 1.857-2.9 2.078-3.27.02-.035.067-.12.034-.139-.039-.027-.08.022-.107.041-.255.163-2.385 1.671-2.728 1.905-.17.116-.205.128-.3-.017l-.239-.364c-.061-.105-.13-.205-.207-.3-.048-.073-.05-.124.017-.18l.564-.384c.61-.393 4.159-2.823 4.423-3.003.229-.155.314-.118.468.115.112.155.216.314.321.474.04.045.04.113 0 .158-.321.502-1.837 2.74-2.002 3.041-.075.1-.135.211-.176.33l.005.007c.048.01.185-.095.229-.124.108-.073 2.577-1.834 2.627-1.868.072-.048.121-.114.194-.11.044.001.113.09.144.123.149.194.284.447.425.646.066.102-.01.143-.089.228-.087.09-4.855 3.306-4.976 3.39zM60.293 26.783c-.033.011-.063.03-.096.04-.434.143-.763.214-1.115.33-.261.085-.286.066-.336-.093-.072-.224-.16-.562-.247-.782-.026-.084.023-.128.121-.16.973-.381 4.111-1.363 4.61-1.527.344-.112 1.113-.364 1.14-.364.14-.018.243-.033.3.15.063.2.151.476.206.677.049.186.043.225-.134.293-.298.115-1.821.523-2.277.681-.014.007-.026.017-.036.03.005.023.021.042.044.05.213.05 2.571.51 2.81.55.08.025.14.094.156.179.057.183.247.755.29.915.007.022.005.046-.006.066-.011.02-.03.033-.053.036-.111.005-.222-.001-.331-.02-.445-.092-.754-.157-1.256-.287-.445-.12-.903-.2-1.351-.275-.102-.01-.204-.008-.305.008-.04.01-.078.031-.106.063-.218.254-.476.495-.702.753-.087.093-1.517 1.655-1.6 1.764-.058.075-.275.357-.368.065-.09-.282-.152-.538-.258-.815-.014-.042-.025-.085-.032-.128-.038-.152 1.948-2.18 2.208-2.56.007-.021.009-.044.006-.066-.003-.008-.04-.014-.066-.006-.165.044-.929.34-1.216.433zM66.574 33.478c.016.23-.003.461-.057.685-.049.195-.082.39-.316.36-.208-.032-.385-.128-.602-.176-.097-.02-.192-.033-.19-.155.002-.063.02-.124.051-.178.047-.084.083-.175.105-.269.077-.328-.041-.75-.414-.808-.35-.064-.709.062-.945.334-.362.45-.645.93-1.07 1.321-.37.381-.87.602-1.394.615-.067.002-.133 0-.198-.007-.19-.024-.375-.075-.55-.152-.857-.398-1.068-1.418-.918-2.284.032-.195.081-.714.347-.72.22.01.44.047.651.111.058.013.114.033.167.06.106.056.087.162.03.253-.11.153-.198.32-.264.497-.092.345-.013.858.342 1.056.384.146.816.057 1.114-.23.162-.184.28-.392.432-.576.152-.201.323-.386.493-.57.187-.224.402-.421.64-.588.228-.126.486-.187.746-.175.338-.005.671.079.968.243.323.202.574.503.719.86.058.159.096.324.113.493z"/>
                    <ellipse cx="16.283" cy="47.765" rx="1.818" ry="1.85"/>
                    <ellipse cx="59.961" cy="47.765" rx="1.818" ry="1.85"/>
                    <path d="M45.581 48.051l-.936 1.63h5.995l-.941-1.573c-.245-.386-.374-.836-.37-1.296V23.06c-.006-.441.112-.875.34-1.25l.951-1.62h-5.976l.907 1.58c.242.385.368.833.364 1.29v6.285c.015.837-.535 1.575-1.33 1.787l-12.392 3.741c-.425.123-.882.04-1.24-.224-.353-.27-.562-.695-.563-1.145V23.06c-.005-.44.112-.874.338-1.25l.953-1.62h-6.002l.911 1.617c.244.371.378.806.386 1.253v23.753c-.008.382-.111.756-.3 1.087l-.066.126-.932 1.656h6.003l-.957-1.629c-.018-.029-.035-.061-.051-.095-.184-.37-.281-.777-.283-1.191v-6.285c.01-.81.522-1.527 1.277-1.786l12.45-3.699c.425-.126.883-.042 1.237.229.354.27.562.693.561 1.144v10.444c.007.436-.11.865-.334 1.237z"/>
                    <path d="M50.733 46.813v-.88c5.346-6.292 5.346-15.62 0-21.91v-.963c-.003-.18.044-.356.137-.509l2.225-3.79H42.58c-2.865-.823-5.898-.823-8.763 0H23.255l2.135 3.79c.107.149.17.325.182.509v1.065c-5.223 6.259-5.223 15.446 0 21.705v.983c-.02.181-.082.356-.182.508l-2.135 3.79h10.249c3.062.933 6.327.933 9.39 0H53.14l-2.27-3.79c-.094-.153-.141-.33-.138-.508zm2.758-11.835c0 3.18-.962 6.283-2.758 8.887V26.09c1.796 2.603 2.759 5.706 2.758 8.887zm-15.293-15.56c1.646.003 3.281.277 4.841.813l1.336 2.32c.092.154.14.33.136.51v6.284c.01.2-.126.376-.318.416l-12.4 3.743V23.06c-.003-.18.045-.356.137-.509l1.346-2.29c1.584-.555 3.247-.84 4.922-.843zm-15.292 15.56c-.003-3.128.926-6.184 2.666-8.764V43.74c-1.74-2.58-2.669-5.634-2.666-8.761zm15.292 15.559c-1.653-.003-3.294-.28-4.86-.82l-1.407-2.397c-.088-.171-.135-.361-.137-.554V40.48c.005-.18.11-.342.273-.415l12.444-3.698v10.444c.004.18-.044.356-.136.508l-1.396 2.426c-1.542.522-3.156.789-4.78.79v.001zm5.852-.508l1.242-2.161c.19-.318.288-.683.282-1.055V36.368c0-.34-.157-.662-.425-.866-.268-.204-.615-.268-.937-.172L31.77 39.026c-.613.213-1.03.795-1.038 1.455v6.285c.002.36.087.715.248 1.036.011.024.024.047.037.07l1.266 2.156h-7.191l1.284-2.291c.163-.281.252-.6.26-.925V23.06c-.008-.383-.125-.756-.337-1.073l-1.208-2.143h7.191l-1.265 2.152c-.192.32-.291.689-.285 1.064v10.444c0 .34.158.662.427.866.268.204.616.268.938.17l12.4-3.742c.647-.172 1.093-.773 1.08-1.453V23.06c.003-.392-.106-.777-.314-1.107l-1.213-2.11h7.172l-1.264 2.153c-.194.32-.293.688-.287 1.064v23.753c-.004.393.106.779.316 1.109l1.26 2.107H44.05z"/>
                    <path d="M49.329 46.813V23.06c-.006-.441.112-.875.34-1.25l.951-1.62h-5.976l.907 1.58c.242.385.368.833.364 1.29v6.285c.015.837-.535 1.575-1.33 1.787l-12.392 3.741c-.425.123-.882.04-1.24-.224-.353-.27-.562-.695-.563-1.145V23.06c-.005-.44.112-.874.338-1.25l.953-1.62h-6.002l.911 1.617c.244.371.378.806.386 1.253v23.753c-.008.382-.111.756-.3 1.087l-.066.126-.932 1.656h6.003l-.957-1.629c-.018-.029-.035-.061-.051-.095-.184-.37-.281-.777-.283-1.191v-6.285c.01-.81.522-1.527 1.277-1.786l12.45-3.699c.425-.126.883-.042 1.237.229.354.27.562.693.561 1.144v10.444c.007.436-.109.866-.334 1.238l-.936 1.63h5.995L49.7 48.11c-.245-.386-.374-.837-.37-1.296zM11.825 56.306c0 .025-.01.049-.03.064-.019.016-.044.021-.068.015-.429-.05-.887-.1-1.315.05-.751.247-1.092 1.08-1.21 1.805-.095.563-.059 1.14.107 1.686.147.506.41 1.04.878 1.309.274.119.571.17.868.149.302 0 .79-.18.79.059 0 .179.009.169 0 .348l-.03.565c-.003.04-.025.077-.058.1-.042.026-.088.043-.137.049-1.063.169-2.3-.149-2.973-1.051-.367-.532-.583-1.157-.624-1.806-.09-.691-.056-1.393.097-2.072.068-.29.17-.57.303-.833.509-.951 1.454-1.577 2.514-1.667.234-.01.888-.049.888.318 0 .317.01.585 0 .912zM13.717 62.495c-.303.01-.527.01-.77.01-.04 0-.088.01-.118-.01-.058-.01.41-2.083.479-2.37.194-.814.35-1.607.525-2.43.137-.655.487-2.232.508-2.37.019-.15.01-.189.146-.189.342.02.692 0 1.023 0 .156 0 .098.01.166.188.048.298 1.16 5.663 1.198 5.782.088.277.108.565.196.842.029.08.185.546-.04.546-.165.01-.73.01-.886.01-.118 0-.127.01-.166-.11-.059-.168-.108-.377-.166-.545l-.068-.228c-.023-.089-.106-.148-.195-.139-.406-.032-.813-.028-1.218.01-.098.02-.127.03-.137.149-.02.148-.078.862-.273.862-.068.004-.137.001-.204-.008zm1.276-2.252c.088 0 .176.01.263.01.176 0 .215 0 .127-.356-.087-.407-.146-.725-.233-1.101-.039-.12-.078-.417-.117-.536-.012-.015-.03-.026-.049-.03-.01 0-.029.02-.04.04-.057.288-.321 1.468-.37 1.686-.068.287-.058.287.215.287h.204zM18.134 56.435c-.01-.308-.039-1.19.04-1.25.075-.038.16-.051.243-.04.34 0 .7-.01 1.052-.01 2.027 0 2.204 1.686 2.204 2.599 0 1.011-.45 2.201-2.077 2.201-.078 0-.35-.03-.35.11 0 .128.038 2.47-.03 2.5-.079.024-.162.035-.244.03-.331.009-.331 0-.662 0-.147 0-.166-.03-.166-.18 0-.406 0-5.375-.01-5.96zm1.121 2.043c-.01.109-.01.218-.01.327.004.077.062.14.136.149.296.006.58-.117.78-.338.273-.307.323-.882.283-1.269-.05-.535-.37-1.041-.935-1.08-.097-.01-.224-.01-.253.098-.005.066-.005.133 0 .199-.01.397 0 1.695 0 1.914zM22.657 60.54c-.02-.555.02-3.044.02-3.738 0-.407-.01-.814.01-1.21.01-.506.038-.476.447-.476.283 0 1.453 0 1.746-.01.292-.02.36-.02.653-.03.176 0 .224.03.243.189.03.287 0 .585.02.873.01.188-.049.178-.233.198l-1.375.01c-.146.01-.185.04-.195.198-.052.398-.065.8-.04 1.2.01.128.03.149.166.149.41-.03.605.03 1.024 0 .108-.01.214-.02.321-.02.166 0 .225.06.245.228l.029.298c0 .208-.02.218-.02.426.01.09-.022.181-.087.243-.066.063-.156.09-.245.074H24.17c-.196 0-.215.07-.215.279 0 .386-.01.872-.01 1.249 0 .466-.068.406.37.397.264 0 .917.02 1.053.01.115-.013.228.028.31.111.08.083.121.199.109.315-.007.165-.004.33.01.496 0 .297-.068.407-.263.446-.175.025-.35.035-.527.03-.525.02-1.052-.02-1.579 0-.203.004-.406-.015-.604-.06-.097-.02-.126-.049-.126-.158-.02-.318-.04-.635-.05-.952-.009-.258 0-.515 0-.763l.01-.001zM30.448 61.493c-.02-.893.028-4.215.028-4.93 0-.029-.01-.059-.01-.089-.018-.11-.087-.138-.184-.138-.156-.01-.711-.01-.848-.01-.234 0-.224-.278-.224-.555 0-.437-.01-.635.233-.635.322 0 .586.01.907.01.653-.01 2.242-.01 2.408-.01.234 0 .156.376.156.594 0 .249.048.606-.156.606H31.9c-.196 0-.244.05-.244.198l-.03 5.554c.01.168.05.486-.136.486h-.878c-.136 0-.146-.02-.146-.159-.009-.308-.009-.615-.018-.922zM38.705 58.894c-.01.54-.088 1.077-.234 1.597-.175.625-.468 1.19-.994 1.557-.37.29-.812.471-1.276.526-.069 0-.126.01-.195.01-.059 0-.117-.01-.186-.01-1.115-.133-2.026-.968-2.27-2.083-.151-.519-.23-1.056-.235-1.597-.019-.654.067-1.307.255-1.933.328-1.092 1.319-1.837 2.44-1.837 1.123 0 2.114.745 2.442 1.837.187.626.272 1.279.253 1.933zm-1.258-1.1c-.116-.546-.35-1.082-.799-1.41-.076-.06-.162-.106-.253-.138-.123-.055-.256-.082-.39-.08-.13-.002-.26.025-.38.08-.092.03-.178.077-.253.138-.459.327-.692.863-.8 1.41-.127.599-.146 1.217-.058 1.824.097.546.292 1.28.799 1.557.212.123.449.194.692.209.246-.015.486-.086.701-.209.507-.277.702-1.011.8-1.557.088-.607.068-1.225-.059-1.825zM39.69 55.125c.274 0 .44.01.654 0 .12-.008.23.07.263.19.03.088.877 3.728.887 3.768.01.02.02.07.058.07.03 0 .04-.04.04-.06.068-.337.575-3.154.653-3.59.01-.05.01-.1.019-.14.049-.188.078-.207.283-.217.253-.02.39.01.643-.01h.117c.225.01.293.139.312.356.069.556.556 3.402.565 3.442.02.1.04.208.108.208.04 0 .078-.148.078-.159.108-.465.244-.922.37-1.387.176-.625.313-1.35.459-1.984.029-.1.078-.209.107-.308.033-.096.123-.16.224-.158.068-.008.137-.012.205-.01.215-.01.4.01.614.01.429 0 .176.625.107.833-.194.624-.36 1.319-.516 1.954-.205.793-.41 1.576-.604 2.37-.156.644-.322 1.378-.45 2.033-.017.138-.137.238-.273.228h-.78c-.077 0-.107-.05-.126-.11-.117-.485-.701-3.302-.75-3.421-.01-.019-.029-.03-.05-.03-.016.003-.031.014-.038.03-.022.054-.038.11-.049.169-.234.981-.478 1.993-.673 3.014-.03.169-.04.348-.165.348h-.848c-.118 0-.127 0-.156-.119-.078-.278-1.589-6.635-1.668-6.942-.017-.068-.02-.139-.01-.208.02-.13.09-.18.225-.18.078 0 .156.01.165.01zM51.732 62.277c0 .297-.108.287-.302.287-.293 0-.702.05-.79-.05-.078-.069-1.52-3.61-1.726-4.056-.02-.04-.067-.139-.108-.12-.049.02-.029.09-.029.13-.01.347.048 3.342.048 3.818 0 .238-.01.278-.204.278h-.488c-.136-.007-.273-.004-.409.01-.097 0-.146-.03-.156-.128v-.784c.02-.833 0-5.772 0-6.139 0-.317.088-.377.4-.377.214-.01.429-.01.644-.01.066-.01.129.033.145.1.264.624 1.385 3.49 1.56 3.838.03.069.136.347.195.376h.01c.04-.04.03-.237.03-.297 0-.149-.08-3.63-.08-3.7 0-.099-.028-.188.02-.257.03-.04.157-.05.205-.06.273-.02.595.01.867 0 .137 0 .127.1.156.228.031.139.012 6.743.012 6.913zM57.143 55.085c.258-.003.514.034.76.11.214.07.43.119.38.387-.048.238-.166.436-.234.684-.029.11-.048.218-.185.208-.07-.006-.136-.03-.195-.069-.09-.06-.188-.107-.292-.139-.36-.11-.838 0-.926.426-.094.4.024.822.312 1.111.478.446.995.804 1.404 1.32.4.449.613 1.04.593 1.646-.001.076-.008.152-.02.228-.038.217-.106.427-.203.625-.498.962-1.648 1.14-2.603.912-.214-.05-.79-.139-.78-.446.025-.254.08-.504.165-.744.018-.066.045-.13.078-.189.069-.119.186-.089.283-.02.163.138.344.25.537.338.38.128.955.07 1.198-.327.205-.357.097-1.012-.185-1.3-.195-.198-.419-.346-.614-.535-.214-.188-.41-.396-.605-.605-.236-.23-.442-.49-.614-.773-.125-.272-.176-.574-.145-.873.015-.39.13-.77.331-1.101.246-.36.598-.63 1.004-.773.18-.058.367-.092.556-.101zM60.946 61.949c.001.154-.054.303-.156.417-.18.202-.465.266-.711.158-.605-.268-.342-1.26.321-1.189.309.034.544.298.546.614zM62.818 62.495c-.302.01-.526.01-.77.01-.04 0-.087.01-.117-.01-.058-.01.41-2.083.478-2.37.195-.814.35-1.607.526-2.43.137-.655.487-2.232.507-2.37.02-.15.01-.189.147-.189.341.02.692 0 1.023 0 .156 0 .097.01.166.188.048.298 1.16 5.663 1.198 5.782.088.277.108.565.195.842.03.08.185.546-.039.546-.166.01-.73.01-.887.01-.117 0-.127.01-.165-.11-.059-.168-.108-.377-.166-.545l-.068-.228c-.023-.089-.106-.148-.196-.139-.405-.032-.812-.028-1.217.01-.099.02-.127.03-.137.149-.02.148-.078.862-.273.862-.069.004-.137.001-.205-.008zm1.277-2.252c.088 0 .175.01.263.01.176 0 .215 0 .127-.356-.088-.407-.146-.725-.234-1.101-.038-.12-.078-.417-.116-.536-.013-.015-.03-.026-.05-.03-.009 0-.028.02-.039.04-.058.288-.321 1.468-.37 1.686-.068.287-.058.287.214.287h.205zM68.434 61.949c.001.154-.054.303-.156.417-.18.202-.465.266-.712.158-.604-.268-.341-1.26.322-1.189.309.034.544.298.546.614z"/>
                    <path d="M42.408 40.485l-.579.99c-.02.028-.035.06-.046.093l-2.465 5.677c-.032.08-.027.17.011.248l.684 1.189h-3.728l.671-1.19c.045-.074.049-.167.012-.247-.313-.706-.614-1.413-.926-2.108-.522-1.189-1.03-2.378-1.563-3.569l-.035-.082-.579-1.001h2.778l-.44.754c-.044.075-.048.168-.01.247l1.944 4.417 1.933-4.428c.031-.08.027-.17-.012-.247l-.428-.742 2.778-.001zM40.544 21.19l-.609.956c-.023.039-.036.084-.035.13v4.8c-.003.935-.557 1.776-1.405 2.134-.849.359-1.826.163-2.479-.495l-1.123-.235 1.942-2.1.28 1.156c0 .012.012.012.012.024h.013c.123.137.296.218.479.223.381-.004.689-.319.69-.707v-4.8c.001-.046-.011-.091-.035-.13l-.561-.956h2.83z"/>
                </g>
            </g>
        </g>
    </g>
</svg>
