<?xml version="1.0" encoding="utf-8"?>
<!-- Generator: Adobe Illustrator 23.0.1, SVG Export Plug-In . SVG Version: 6.00 Build 0)  -->
<!DOCTYPE svg PUBLIC "-//W3C//DTD SVG 1.1//EN" "http://www.w3.org/Graphics/SVG/1.1/DTD/svg11.dtd" [
	<!ENTITY ns_extend "http://ns.adobe.com/Extensibility/1.0/">
	<!ENTITY ns_ai "http://ns.adobe.com/AdobeIllustrator/10.0/">
	<!ENTITY ns_graphs "http://ns.adobe.com/Graphs/1.0/">
	<!ENTITY ns_vars "http://ns.adobe.com/Variables/1.0/">
	<!ENTITY ns_imrep "http://ns.adobe.com/ImageReplacement/1.0/">
	<!ENTITY ns_sfw "http://ns.adobe.com/SaveForWeb/1.0/">
	<!ENTITY ns_custom "http://ns.adobe.com/GenericCustomNamespace/1.0/">
	<!ENTITY ns_adobe_xpath "http://ns.adobe.com/XPath/1.0/">
]>
<svg version="1.1" id="Layer_1" xmlns:x="&ns_extend;" xmlns:i="&ns_ai;" xmlns:graph="&ns_graphs;"
	 xmlns="http://www.w3.org/2000/svg" xmlns:xlink="http://www.w3.org/1999/xlink" x="0px" y="0px" viewBox="0 0 118 72"
	 style="enable-background:new 0 0 118 72;" xml:space="preserve">
<style type="text/css">
	.st0{fill:#F792DD;}
	.st1{fill:#FFFFFF;}
	.st2{fill:#FF5BA8;}
	.st3{fill:#01ECA5;}
	.st4{fill:#6583FE;}
	.st5{opacity:0.1;fill:#2626BC;enable-background:new    ;}
	.st6{fill:#2626BC;}
	.st7{fill:#B7C5FF;}
	.st8{fill:#9FB0FE;}
	.st9{fill:#8399FE;}
	.st10{fill:#02FFB3;}
	.st11{fill:#97FFD2;}
	.st12{fill:#FF7EB8;}
	.st13{fill:#FFC4DF;}
</style>
<metadata>
	<sfw  xmlns="&ns_sfw;">
		<slices></slices>
		<sliceSourceBounds  bottomLeftOrigin="true" height="69.9" width="114.5" x="1.5" y="-71"></sliceSourceBounds>
	</sfw>
</metadata>
<g>
	<g>
		<path class="st0" d="M111.4,54.1c5.4-5.8,6-15.8,2-22.1c-3.4-5.5-10.3-10.7-19.3-11.3c-3.3-0.2-6.7,0.1-10-0.3
			C73,19.1,68.8,10,60.1,5.2C54,1.8,45.6,0.6,37.7,1.2s-15.3,3-21.8,6c-5.1,2.4-10,5.3-12.5,9C-1.9,24.1,4.3,33.6,14,39.5
			c3,1.8,6.4,3.4,8.9,5.6c2.5,2.1,4.1,5,2.9,7.5c-1,2.1-3.6,3.6-4.5,5.7c-1.3,2.8,0.7,5.9,4,7.9c3.3,2,7.7,3,12,3.6
			C55.4,72.6,95.2,71.6,111.4,54.1L111.4,54.1z"/>
	</g>
	<g>
		<path class="st1" d="M16.2,19.6c0-0.1-0.1-0.2-0.2-0.4c-0.1-0.1-0.2-0.3-0.3-0.6c-0.1-0.2-0.2-0.4-0.3-0.5
			c-0.1-0.1-0.1-0.2-0.1-0.2c0-0.2,0.2-0.5,0.6-0.9c0.4-0.4,0.7-0.6,0.9-0.6c0.1,0.1,0.2,0.1,0.3,0.2h0.3c0.2,0.1,0.3,0.2,0.5,0.2
			s0.4,0.2,0.5,0.2c0.5,0.2,0.8,0.4,0.9,0.6s0.3,0.3,0.6,0.5c0,0,0.1,0.1,0.2,0.2s0.3,0.3,0.5,0.4c0,0,0.1,0.1,0.1,0.1
			c0,0,0.1,0.1,0.1,0.2c0.3,0.3,0.5,0.6,0.7,0.9c0.2,0.3,0.3,0.5,0.4,0.7c0.1,0.3,0.2,0.6,0.3,0.9c0.1,0.3,0.1,0.7,0.1,1
			c0,0.7-0.1,1.3-0.3,1.7c-0.2,0.5-0.5,0.8-0.9,1.1c0,0-0.1,0.1-0.2,0.1c-0.1,0-0.1,0.1-0.2,0.1l-0.1,0.1c-0.1,0.1-0.3,0.2-0.5,0.4
			c-0.2,0.1-0.6,0.3-1,0.4c-0.5,0.2-1.1,0.4-1.7,0.7c-0.2,0.1-0.3,0.1-0.4,0.2c-0.1,0-0.2,0.1-0.3,0.1c-0.2,0-0.3,0-0.3,0
			c0,0-0.1,0.3-0.1,0.8c0,0.3,0,0.6-0.1,0.9c0,0.1,0,0.2,0.1,0.4c0.1,0.1,0.2,0.3,0.3,0.5c-0.1,0.1-0.1,0.2-0.2,0.4
			c-0.1,0.1-0.2,0.2-0.3,0.4c-0.1,0.2-0.2,0.3-0.3,0.4c-0.1,0.1-0.2,0.1-0.3,0.1c-0.2,0-0.4-0.1-0.5-0.3c-0.1-0.2-0.1-0.5-0.1-1
			c0-0.1,0-0.3,0.1-0.5c0-0.2,0.1-0.5,0.2-0.8l0-0.5c-0.1,0-0.2-0.1-0.2-0.1s-0.2-0.1-0.2-0.1c-0.1-0.1-0.2-0.1-0.2-0.2
			c0-0.1-0.1-0.1-0.1-0.2c0-0.1,0.2-0.2,0.5-0.3c0.3-0.1,0.5-0.3,0.5-0.6c0-0.1,0-0.2,0-0.3s0-0.2,0-0.3c0.1-0.4,0.1-0.7,0.2-1.1
			c0,0,0-0.1,0-0.3c0-0.2,0-0.5,0.1-0.8c0-0.1,0-0.2,0.1-0.4s0.1-0.3,0.1-0.6l-0.1-0.3L16.2,19.6z M17,18.5
			C17,18.5,16.9,18.5,17,18.5c-0.1,0-0.1,0.1-0.1,0.1c0.7,0.8,1.1,1.3,1.1,1.7c0,0.1-0.1,0.6-0.4,1.5c-0.2,0.9-0.4,1.4-0.5,1.6
			l0.1,0.4c-0.2,0.6-0.3,1.2-0.4,1.6c-0.1,0.5-0.1,0.8-0.1,1.1c0,0.1,0,0.1,0,0.1c0,0,0.1,0,0.1,0c0.1,0,0.2,0,0.3-0.1
			s0.4-0.2,0.6-0.3c0.2-0.1,0.3-0.2,0.5-0.2c0.2-0.1,0.3-0.2,0.5-0.2c0.1,0,0.1-0.1,0.2-0.1s0.2-0.1,0.3-0.2
			c0.1-0.1,0.3-0.2,0.4-0.3c0.1-0.1,0.1-0.1,0.2-0.1c0.3-0.2,0.5-0.4,0.6-0.7s0.2-0.6,0.2-1c0-0.2,0-0.5-0.1-0.7
			c-0.1-0.2-0.1-0.5-0.2-0.7l0-0.2c0,0,0-0.1-0.1-0.1s-0.1-0.1-0.1-0.1c0,0-0.1-0.1-0.1-0.1S20,21.1,19.9,21
			c-0.1-0.2-0.3-0.4-0.5-0.7c-0.3-0.3-0.6-0.6-1-1c0,0-0.1-0.1-0.2-0.2C18.1,19.1,18.1,19,18,19c-0.1-0.1-0.3-0.1-0.4-0.2
			C17.4,18.7,17.2,18.6,17,18.5z"/>
		<path class="st1" d="M32.2,17.3c0.1,0,0.2,0.1,0.2,0.2c0,0.1,0.1,0.3,0.1,0.5c0,0.1,0,0.4-0.1,0.8c0,0.4-0.1,0.9-0.2,1.5l0.1,0.6
			c0,0.1-0.1,0.3-0.2,0.5c0,0.2-0.1,0.4-0.1,0.6c0,0.3-0.1,0.5-0.1,0.7c0,0.2-0.1,0.3-0.1,0.4c0,0.2-0.1,0.4-0.1,0.5
			s-0.1,0.3-0.1,0.5c0,0.4-0.1,0.8-0.2,1.1c-0.1,0.4-0.2,0.7-0.3,1c-0.1,0.2-0.2,0.7-0.4,1.4c-0.2,0.7-0.4,1.5-0.6,2.6
			c-0.1,0.5-0.2,0.9-0.4,1.1c-0.1,0.2-0.3,0.4-0.5,0.4c-0.1,0-0.1,0-0.2-0.1c0,0-0.1-0.1-0.1-0.2c0,0,0-0.1,0-0.1c0,0,0-0.1,0-0.3
			c0-0.1,0-0.1-0.1-0.2l0.2-0.7c0-0.1,0-0.2,0-0.3c0-0.2,0.1-0.7,0.2-1.3s0.3-1.6,0.5-2.7c0.1-0.4,0.1-0.8,0.2-1.2
			c0-0.1,0-0.1,0-0.2c0,0,0,0-0.1,0c-0.1,0-0.1,0.1-0.2,0.1l-0.2-0.1c0,0-0.1,0.1-0.2,0.2c-0.1,0.1-0.2,0.2-0.3,0.2
			c-0.1,0-0.3,0-0.5-0.1c-0.2,0-0.4-0.1-0.5-0.1c-0.1,0-0.3,0-0.4,0.1S27.1,24.8,27,25c-0.3,0-0.6,0.1-0.8,0.2
			c-0.2,0.1-0.4,0.2-0.6,0.4c-0.1,0.1-0.2,0.1-0.3,0.2c0,0-0.1,0.2-0.1,0.5c0,0.3,0,0.6,0,1.1c0,0.4,0,0.7,0.1,0.9
			c0,0.2,0.1,0.3,0.2,0.3c0.1,0,0.1,0,0.1,0c0,0,0.1-0.1,0.2-0.1c0,0,0.1-0.1,0.1-0.1c0,0,0.1-0.1,0.1-0.1l0.1,0c0,0,0.1,0,0.1,0
			c0,0,0,0.1,0,0.1c-0.1,0.1-0.1,0.3-0.2,0.4c-0.1,0.1-0.1,0.2-0.2,0.3c-0.2,0.3-0.4,0.6-0.6,0.9c-0.1,0.2-0.2,0.3-0.4,0.3
			c-0.2,0.1-0.3,0.1-0.5,0.1c-0.2,0-0.3-0.2-0.4-0.7c-0.1-0.5-0.1-1.1-0.1-2c0-0.4,0-0.7-0.1-0.9c0-0.3-0.1-0.5-0.2-0.7
			c-0.1-0.2-0.2-0.3-0.2-0.4c0-0.1-0.1-0.2-0.1-0.3c0-0.1,0-0.1,0.1-0.2s0.1-0.2,0.2-0.3c0.1-0.1,0.1-0.2,0.2-0.2s0.1-0.1,0.1-0.2
			c0-0.1,0.1-0.2,0.1-0.4s0.1-0.3,0.1-0.6c0-0.1,0.1-0.3,0.1-0.6c0-0.3,0.1-0.6,0.1-0.9c0-0.7,0.1-1.2,0.2-1.6
			c0.1-0.4,0.1-0.6,0.1-0.6l-0.1-0.2c0-0.1,0-0.3,0.1-0.5c0-0.2,0.1-0.4,0.1-0.7c0.1,0,0.1-0.1,0.2-0.2c0.1-0.1,0.1-0.2,0.2-0.3
			c0.4-0.2,0.7-0.2,0.7-0.2c0.2,0,0.4,0.1,0.5,0.2s0.2,0.3,0.2,0.5c0,0.1,0,0.1-0.1,0.3s-0.1,0.3-0.1,0.4c-0.1,0.1-0.1,0.4-0.2,0.8
			c-0.1,0.4-0.1,0.9-0.2,1.5c-0.1,0.4-0.1,0.8-0.2,1.2c-0.1,0.4-0.1,0.7-0.2,1.1c0,0,0,0.1,0,0.2c0,0.1,0,0.2,0,0.2
			c0,0,0.1,0.1,0.1,0.1c0.2,0,0.4,0,0.6-0.1c0.1,0,0.3-0.1,0.6-0.2h0.7c0.1,0,0.2,0,0.4,0c0.2,0,0.3,0,0.4,0c0.1,0,0.2,0,0.4,0.1
			c0.2,0,0.3,0.1,0.4,0.1c0.1,0,0.2,0,0.3,0c0.1,0,0.3-0.1,0.4-0.1c0.1,0,0.1,0,0.2,0c0.1,0,0.1,0,0.1-0.1c0-0.1,0.1-0.2,0.1-0.3
			s0.1-0.3,0.1-0.4c0-0.1,0-0.3,0.1-0.5s0.1-0.4,0.1-0.7c0.1-0.5,0.2-0.9,0.2-1.2c0-0.3,0.1-0.5,0.1-0.7c0,0,0-0.1,0-0.1
			c0,0,0-0.1-0.1-0.1c0-0.1-0.1-0.1-0.2-0.2c0-0.1,0.1-0.2,0.1-0.3c0.1-0.2,0.3-0.4,0.4-0.5s0.2-0.3,0.2-0.3
			c0.1-0.1,0.2-0.2,0.4-0.3C31.8,17.5,32,17.4,32.2,17.3z"/>
		<path class="st1" d="M33,24.2c0-0.1,0-0.2,0.1-0.3c0-0.1,0.1-0.2,0.2-0.4c0.1-0.2,0.2-0.3,0.3-0.4c0.1-0.1,0.1-0.2,0.1-0.2
			c0-0.1,0.1-0.2,0.1-0.3s0.1-0.2,0.2-0.4c0.1-0.1,0.1-0.2,0.2-0.4c0.1-0.2,0.2-0.5,0.3-0.9c0-0.1,0.1-0.2,0.2-0.4
			c0.1-0.1,0.1-0.3,0.2-0.5c0-0.1,0.1-0.3,0.1-0.5c0.1-0.2,0.2-0.4,0.3-0.6c0.1-0.2,0.3-0.4,0.4-0.7c0.1-0.2,0.3-0.4,0.6-0.5
			c0.1,0.1,0.2,0.1,0.2,0.2c0.1,0.1,0.1,0.1,0.1,0.2c0,0.2-0.1,0.4-0.2,0.6c-0.1,0.3-0.2,0.4-0.2,0.5c0,0,0,0.1,0.1,0.1
			c0,0,0.1-0.1,0.3-0.2s0.3-0.3,0.5-0.5c0.2-0.2,0.3-0.3,0.5-0.4c0.1-0.1,0.3-0.2,0.4-0.2c0.1,0,0.2-0.1,0.3-0.1
			c0.1,0,0.3-0.1,0.4-0.1c0.1,0,0.1-0.1,0.2-0.1c0,0,0.1-0.1,0.2-0.1l0.1,0c0.1,0.1,0.2,0.1,0.5,0.2c0.3,0.1,0.4,0.1,0.5,0.1
			c0.1,0,0.1,0.1,0.2,0.1c0.1,0.1,0.2,0.1,0.3,0.2c0.2,0.1,0.5,0.4,0.7,0.7c0.2,0.3,0.4,0.7,0.6,1.1c0.2,0.4,0.3,0.8,0.4,1.1
			c0.1,0.4,0.1,0.7,0.1,1c0,1-0.1,1.9-0.4,2.7c-0.3,0.8-0.7,1.4-1.2,1.9c0,0-0.1,0.1-0.2,0.2c-0.1,0.1-0.2,0.2-0.3,0.3v0.1
			c0,0.1,0,0.1-0.1,0.2c-0.1,0.1-0.1,0.2-0.2,0.2c-0.2,0.2-0.5,0.4-0.7,0.6c-0.2,0.2-0.5,0.4-0.7,0.6c-0.3,0.3-0.6,0.5-0.9,0.6
			c-0.3,0.2-0.6,0.3-0.8,0.3c-0.1,0.1-0.3,0.2-0.4,0.2s-0.4,0.1-0.6,0.1c-0.3,0-0.6,0-0.9-0.1c-0.2,0-0.4-0.1-0.5-0.2
			c-0.1-0.1-0.1-0.1-0.2-0.2c-0.1-0.1-0.2-0.1-0.3-0.2c-0.1-0.1-0.2-0.2-0.3-0.4c-0.1-0.2-0.2-0.5-0.3-0.8c0-0.3-0.1-0.5-0.1-0.7
			c0-0.2,0-0.5,0-0.7c0-0.1,0-0.2,0-0.3c0-0.1,0-0.3,0-0.3c0-0.1,0-0.3,0-0.4c0-0.1,0-0.3,0.1-0.5c0.1-0.2,0.1-0.4,0.1-0.6
			c0,0,0-0.1-0.1-0.1c-0.1,0.1-0.2,0.2-0.2,0.3c0,0.1-0.1,0.1-0.1,0.1s-0.1,0-0.1,0c-0.1,0-0.1,0-0.2-0.1s-0.1-0.1-0.1-0.3
			c0-0.1,0-0.2,0.1-0.3C33,24.4,33,24.3,33,24.2z M38.6,19.6c-0.1,0-0.3,0-0.5,0.1c-0.2,0-0.3,0.1-0.5,0.2l-0.9,0.4
			c-0.1,0-0.1,0.1-0.2,0.1c-0.1,0.1-0.2,0.2-0.3,0.3l-0.4,0.5c-0.1,0.2-0.3,0.5-0.4,0.9s-0.2,1-0.3,1.7c-0.1,0.5-0.1,1-0.1,1.5
			c0,0.5,0,0.9,0,1.3c0,0.8,0.1,1.4,0.4,1.8s0.6,0.6,1.1,0.6c0.2,0,0.5-0.1,0.8-0.2s0.6-0.3,0.9-0.6c0.3-0.2,0.5-0.4,0.8-0.6
			s0.4-0.4,0.5-0.7c0.1-0.1,0.2-0.3,0.3-0.6c0.1-0.3,0.3-0.7,0.6-1.2c0.2-0.4,0.3-0.7,0.4-1.1s0.1-0.7,0.1-1.1
			c0-0.2-0.1-0.4-0.1-0.6l0.1-0.4c-0.1-0.1-0.1-0.1-0.2-0.2c0,0,0-0.1,0-0.1c-0.2-0.7-0.5-1.2-0.8-1.5
			C39.5,19.8,39.1,19.6,38.6,19.6z"/>
		<path class="st1" d="M44.6,20l-0.2-0.6c0-0.1,0.1-0.3,0.1-0.4c0-0.1,0.1-0.3,0.1-0.4c0-0.1,0.1-0.2,0.2-0.2c0.1,0,0.2-0.1,0.4-0.1
			c0.1,0,0.1,0,0.3,0c0.1,0,0.2,0,0.2,0c0.1,0,0.1,0,0.2,0.1c0.1,0.1,0.2,0.1,0.2,0.1c0,0,0.1-0.1,0.2-0.2c0.1-0.1,0.1-0.2,0.2-0.3
			c0.1-0.1,0.2-0.2,0.2-0.2c0.1-0.1,0.2-0.1,0.2-0.1c0.1,0,0.2,0.1,0.3,0.1c0,0,0.1,0.1,0.1,0.1c0,0,0,0.1,0,0.1c0,0,0,0.1,0,0.2
			c0,0.1-0.1,0.2-0.1,0.4c-0.1,0.2-0.1,0.3-0.2,0.5c0,0.1-0.1,0.2-0.1,0.3c-0.1,0.1-0.2,0.3-0.2,0.4c-0.1,0.1-0.1,0.2-0.1,0.3
			c0,0.1,0,0.3,0.1,0.6c0.1,0.2,0.2,0.6,0.3,0.9c0.2,0.5,0.4,1,0.6,1.6c0.2,0.6,0.4,1.2,0.6,1.7c0.2,0.6,0.4,1.1,0.6,1.6
			c0.2,0.5,0.4,0.9,0.6,1.2c0.1,0.3,0.3,0.4,0.3,0.4c0.1,0,0.1,0,0.1-0.1c0-0.1,0-0.2,0-0.3c0-0.1,0-0.1,0-0.2s0-0.2,0.1-0.3
			c0.1-0.2,0.1-0.4,0.2-0.6c0.1-0.3,0.1-0.6,0.2-0.9c0.1-0.2,0.1-0.5,0.1-0.6c0-0.1,0.1-0.3,0.1-0.7c0-0.4,0.1-0.9,0.1-1.5
			c0-0.1,0-0.1,0-0.3c0-0.1,0-0.2,0.1-0.4c0-0.1,0-0.3,0.1-0.4c0-0.1,0-0.2,0-0.3c0-0.1,0-0.4,0-0.6c0-0.3,0-0.5,0-0.6
			c0.1-0.4,0.2-0.8,0.3-1.2c0.1-0.3,0.1-0.6,0.2-0.8c0.1-0.2,0.1-0.4,0.2-0.5c0.1-0.2,0.2-0.4,0.4-0.6c0.1-0.2,0.3-0.3,0.5-0.4h0.1
			c0.1,0,0.1,0,0.1,0c0,0,0,0.1,0,0.1c0,0.1-0.1,0.2-0.1,0.3c0,0.1,0,0.2,0.1,0.4c0,0.2,0,0.3-0.1,0.4c0,0.1,0,0.2,0,0.3
			c0,0.1,0,0.3,0,0.5c0,0.1,0,0.2,0,0.5s-0.1,0.6-0.1,1c0,0.6-0.1,1.2-0.1,1.8c-0.1,0.6-0.1,1.2-0.2,1.7c0,0.7-0.1,1.3-0.2,1.9
			c-0.1,0.6-0.2,1.1-0.3,1.5c0,0.3-0.1,0.6-0.2,0.9c-0.1,0.3-0.2,0.7-0.3,1.1l-0.3,0.5c0,0-0.2,0.1-0.6,0.2
			c-0.4,0.1-0.6,0.2-0.6,0.2c-0.1,0-0.2-0.1-0.4-0.4s-0.4-0.6-0.7-1.1c-0.2-0.5-0.4-0.8-0.6-1.1c-0.1-0.3-0.2-0.5-0.3-0.7
			c0-0.1,0-0.1-0.1-0.2s-0.1-0.2-0.1-0.3c-0.1-0.3-0.3-0.6-0.5-1c-0.2-0.4-0.4-0.9-0.7-1.4c0-0.1-0.1-0.3-0.2-0.4
			c-0.1-0.1-0.1-0.3-0.2-0.4l-0.1,0c0,0.1-0.1,0.3-0.1,0.5c0,0.2-0.1,0.4-0.1,0.7c-0.1,0.2-0.1,0.3-0.2,0.4
			c-0.1,0.4-0.2,0.8-0.3,1.2c-0.1,0.4-0.2,0.9-0.4,1.4c0,0.2-0.1,0.3-0.1,0.5c0,0.2-0.1,0.4-0.1,0.5l-0.2,0.3c0,0.2-0.1,0.4-0.1,0.6
			c0,0.1-0.1,0.3-0.2,0.5c-0.1,0.2-0.1,0.4-0.2,0.7c0,0.1-0.1,0.3-0.1,0.3c-0.1,0.1-0.2,0.1-0.3,0.1c0,0,0,0.1-0.1,0.1
			c0,0-0.1,0.1-0.2,0.1c-0.1,0-0.1,0-0.1-0.1c0-0.1,0-0.2,0-0.3c0-0.1,0-0.2,0-0.4c0-0.2,0.1-0.4,0.1-0.7c0.1-0.3,0.1-0.6,0.2-0.8
			c0-0.2,0.1-0.3,0.1-0.4c0-0.1,0.1-0.3,0.1-0.6c0-0.2,0.1-0.5,0.1-0.8c0-0.1,0-0.2,0.1-0.3s0.1-0.3,0.1-0.4c0-0.1,0.1-0.5,0.2-1
			s0.2-1.3,0.4-2.3C44.3,22,44.5,21,44.6,20z"/>
		<path class="st1" d="M60.6,27.6l0.4,0.9c-0.1,0.1-0.2,0.1-0.2,0.2c-0.1,0.1-0.2,0.1-0.3,0.2c-0.1,0-0.3,0.1-0.5,0.2
			c-0.2,0.1-0.4,0.2-0.6,0.3c-0.2,0.1-0.3,0.2-0.4,0.3c-0.1,0.1-0.2,0.1-0.2,0.1c-0.1,0-0.2,0-0.4,0.1c-0.2,0.1-0.5,0.2-0.8,0.3
			c-0.2,0.1-0.4,0.1-0.6,0.2c-0.2,0.1-0.4,0.1-0.7,0.2l-0.6-0.1l-0.4,0.2c-0.1,0-0.2,0-0.4,0c-0.1,0-0.2,0-0.4,0
			c-0.2,0-0.3,0-0.4-0.1c-0.1,0-0.1-0.1-0.1-0.2l0.1-0.4l-0.1-0.1c-0.2,0-0.4,0-0.4-0.1c-0.1-0.1-0.1-0.2-0.1-0.4c0-0.1,0-0.2,0-0.5
			s0-0.5,0-0.9c0,0,0-0.1,0.1-0.2s0.1-0.2,0.1-0.2c0-0.1,0-0.1-0.1-0.1c0,0,0-0.1,0-0.1c0-0.2,0-0.5,0.1-0.9c0-0.4,0.1-0.8,0.2-1.3
			c0.1-0.3,0.1-0.6,0.2-1c0-0.3,0-0.6,0-0.8c0.2-1,0.5-2.1,0.7-3.1c0-0.2,0.1-0.4,0.2-0.5s0.2-0.3,0.4-0.5c0.1,0,0.1-0.1,0.1-0.1
			c0-0.1,0.1-0.1,0.1-0.2c0-0.1,0.1-0.2,0.2-0.3c0,0,0.1-0.1,0.2-0.1c0.1,0,0.2-0.1,0.3-0.2c0.1,0,0.1-0.1,0.2-0.2
			c0.1-0.1,0.2-0.1,0.3-0.2c0.2-0.1,0.5-0.3,0.7-0.5c0.2-0.2,0.5-0.3,0.8-0.3c0.1,0,0.3,0,0.4,0c0.1,0,0.3,0,0.4,0
			c0.1,0,0.2,0,0.3,0c0.1,0,0.1,0,0.2,0c0,0,0.1,0,0.1,0s0.1,0,0.2,0c0.1,0,0.2,0,0.3,0c0.1,0,0.2,0,0.2,0c0.1,0,0.1,0,0.2,0
			c0.2,0.1,0.4,0.2,0.6,0.3c0.1,0.1,0.2,0.3,0.2,0.5c0,0.4,0,0.8-0.1,1c-0.1,0.2-0.2,0.3-0.4,0.3c-0.1,0-0.3-0.1-0.5-0.2
			s-0.6-0.2-1.4-0.2c-0.3,0.1-0.6,0.1-0.9,0.2c0,0-0.1,0.1-0.1,0.1c0,0-0.1,0-0.1,0.1l-0.3-0.1c-0.1,0-0.2,0.1-0.3,0.3
			c-0.1,0.2-0.3,0.4-0.4,0.7c0,0.1-0.1,0.1-0.1,0.2c0,0.1,0,0.2,0,0.3c-0.1,0.4-0.2,0.9-0.3,1.3c-0.1,0.4-0.2,0.8-0.3,1
			c-0.1,0.2-0.1,0.4-0.1,0.4c0,0.1,0,0.1,0,0.2s0,0.1,0,0.2c0,0.1,0,0.1,0,0.2c0,0,0.1,0.1,0.1,0.1c0.1,0,0.2-0.1,0.4-0.3
			c0.2-0.2,0.4-0.3,0.5-0.3c0.1,0,0.3-0.1,0.4-0.1c0.1,0,0.3-0.1,0.4-0.2c0.1,0,0.2,0,0.4-0.1s0.6-0.1,1-0.1l0.3,0.1l0.5-0.1
			l0.3,0.1c0.1,0.1,0.1,0.1,0.2,0.2c0.1,0.1,0.1,0.2,0.1,0.3c0,0.4,0,0.7-0.1,0.9c-0.1,0.2-0.2,0.3-0.4,0.3l-0.5-0.2
			c-0.4,0-0.8,0.1-1.3,0.1c-0.4,0-0.8,0.1-1.3,0.1c-0.5,0.1-0.9,0.3-1.2,0.5C55.2,25.3,55,25.6,55,26c0,0.1,0,0.2-0.1,0.4
			s-0.1,0.4-0.1,0.6l0.1,0.3c-0.1,0.3-0.1,0.5-0.1,0.8c0,0.2,0,0.4,0,0.6c0,0.1,0,0.1,0,0.1c0,0,0,0,0.1,0c0.3,0,0.5,0,0.7-0.1
			s0.3,0,0.4,0c0.2,0,0.3,0,0.5,0l0.6,0c0.1,0,0.2-0.1,0.4-0.1c0.2-0.1,0.4-0.1,0.6-0.1c0.2,0,0.4,0,0.5-0.1c0.2,0,0.4-0.1,0.5-0.1
			c0.2-0.1,0.3-0.1,0.5-0.2c0.2-0.1,0.3-0.1,0.5-0.2c0.1,0,0.1-0.1,0.2-0.1C60.4,27.7,60.5,27.7,60.6,27.6z"/>
	</g>
	<g>
		<path class="st1" d="M53.9,37.5c0.2,0,0.3,0.1,0.5,0.2c0.2,0.1,0.3,0.1,0.5,0.2c0.1,0,0.1,0.1,0.2,0.2c0.1,0.1,0.2,0.3,0.4,0.5
			c0.2,0.2,0.3,0.4,0.3,0.5c0,0.1,0.1,0.3,0.2,0.6c0.1,0.1,0.2,0.3,0.3,0.6c0.1,0.3,0.2,0.5,0.2,0.6c0,0.2-0.2,0.5-0.5,0.9
			c-0.4,0.3-0.6,0.5-0.8,0.5c-0.1,0-0.2,0-0.3-0.1c-0.1-0.1-0.1-0.2-0.1-0.4c-0.1-0.3-0.1-0.5-0.1-0.7c-0.2-0.7-0.4-1.3-0.7-1.6
			c-0.3-0.4-0.7-0.5-1.1-0.5c-0.2,0-0.4,0-0.7,0.1c-0.2,0.1-0.4,0.2-0.6,0.3c-0.1,0.1-0.2,0.2-0.4,0.4c-0.2,0.2-0.3,0.4-0.5,0.6
			c0,0-0.1,0.1-0.1,0.2c0,0.1-0.1,0.1-0.2,0.2c-0.1,0.1-0.1,0.2-0.2,0.4c-0.1,0.2-0.2,0.3-0.4,0.5c-0.1,0.2-0.1,0.3-0.2,0.5
			s-0.1,0.3-0.2,0.4c0,0,0,0.1-0.1,0.2c0,0.1,0,0.2-0.1,0.3c0,0.2-0.1,0.3-0.2,0.5c-0.1,0.2-0.1,0.4-0.2,0.6
			c-0.1,0.7-0.2,1.3-0.2,1.7c0,0.4-0.1,0.7-0.1,0.8c0,0.3,0,0.6,0.1,0.9c0,0.3,0.1,0.6,0.2,0.9c0.1,0.2,0.2,0.4,0.2,0.5
			c0.1,0.1,0.1,0.3,0.2,0.3c0.1,0.1,0.2,0.2,0.4,0.2c0.2,0.1,0.3,0.1,0.5,0.1c0.3,0,0.5,0,0.8-0.1c0.2-0.1,0.5-0.2,0.7-0.4
			c0.1-0.1,0.2-0.2,0.4-0.4c0.2-0.2,0.4-0.4,0.7-0.8c0.1-0.1,0.1-0.1,0.2-0.2c0.1-0.1,0.2-0.2,0.3-0.3c0.1-0.2,0.2-0.3,0.4-0.5
			s0.2-0.3,0.3-0.5c0.1-0.2,0.3-0.3,0.5-0.4c0.2-0.1,0.4-0.1,0.6-0.1c0.3,0,0.5,0.1,0.6,0.2c0.1,0.1,0.2,0.3,0.2,0.5
			c0,0.1,0,0.2-0.1,0.3c0,0.1-0.1,0.3-0.1,0.3c0,0.1,0,0.3-0.1,0.4c0,0.2-0.1,0.4-0.1,0.6c0,0.3,0,0.6-0.1,0.8
			c0,0.2-0.1,0.4-0.2,0.6c-0.1,0.2-0.2,0.6-0.3,1.1s-0.2,0.9-0.3,1.1c0,0.1-0.1,0.2-0.1,0.3s-0.1,0.3-0.1,0.5c0,0.1-0.1,0.3-0.1,0.4
			c0,0.1-0.1,0.2-0.2,0.2c-0.1,0-0.1,0.1-0.2,0.1c-0.1,0-0.2,0.1-0.4,0.1c0,0.2-0.1,0.3-0.1,0.3c-0.1,0.1-0.2,0.1-0.3,0.1
			c-0.1,0-0.2,0-0.2-0.1c0-0.1-0.1-0.2-0.1-0.4c0-0.1,0-0.2,0-0.3c0-0.1,0.1-0.3,0.1-0.5c0-0.1,0-0.2,0.1-0.4c0-0.2,0-0.4,0-0.7
			c0-0.1,0-0.3,0.1-0.6c0.1-0.3,0.1-0.6,0.2-1.1l-0.1-0.6c0-0.1,0-0.2,0.1-0.3c0,0,0-0.1,0-0.1c0,0-0.1,0-0.1,0
			c-0.2,0.2-0.4,0.3-0.6,0.5c-0.3,0.3-0.6,0.5-0.9,0.7c-0.2,0.2-0.4,0.3-0.5,0.4c-0.3,0.2-0.5,0.3-0.8,0.4c-0.3,0.1-0.5,0.2-0.8,0.2
			l-0.4-0.1c-0.1,0-0.2,0-0.3,0.1c-0.1,0-0.3,0-0.5-0.1c-0.2-0.1-0.3-0.2-0.5-0.3c-0.2-0.1-0.3-0.3-0.5-0.5
			c-0.1-0.2-0.3-0.4-0.4-0.7c0-0.1-0.1-0.2-0.1-0.5s-0.1-0.5-0.2-0.9c0.1-0.2,0.1-0.3,0.1-0.5c0-0.2,0-0.4,0-0.6l0.2-1.5
			c0.2-1.2,0.5-2.3,0.9-3.3c0.5-1,1.1-1.8,1.8-2.5c0.3-0.3,0.5-0.5,0.6-0.6c0.2-0.2,0.3-0.3,0.3-0.3c0.1-0.1,0.3-0.2,0.5-0.3
			c0.2-0.1,0.4-0.2,0.6-0.3c0.1-0.1,0.2-0.1,0.4-0.2c0.1-0.1,0.3-0.1,0.5-0.2l0.9-0.1l0.3,0.1L53.9,37.5z"/>
		<path class="st1" d="M56.2,47.2c0-0.1,0-0.1,0-0.2c0,0,0-0.1,0-0.1c0-0.2,0-0.4,0.1-0.6c0.1-0.2,0.1-0.3,0.2-0.4
			c0,0,0.1-0.1,0.2-0.1s0.3-0.1,0.4-0.2c0.1-0.1,0.2-0.1,0.3-0.2c0.1-0.1,0.1-0.2,0.1-0.3c0-0.1,0.1-0.2,0.1-0.3
			c0.1-0.1,0.1-0.2,0.2-0.4c0,0,0.1-0.3,0.2-0.7c0.1-0.4,0.3-1,0.6-1.8c0.1-0.2,0.1-0.5,0.2-0.6S59,41,59,40.9
			c0.2-0.6,0.4-0.9,0.5-1.1c0.1-0.2,0.2-0.3,0.3-0.4v0l-0.3-0.5l0.4-0.4l0.5-0.1c0.1,0,0.2-0.1,0.3-0.3c0.1-0.2,0.2-0.4,0.4-0.6
			c0,0,0.1-0.1,0.2-0.1c0.1-0.1,0.2-0.2,0.4-0.3c0.1-0.1,0.3-0.2,0.4-0.2c0.1-0.1,0.2-0.1,0.2-0.1c0.2,0,0.3,0,0.4,0.1
			c0.1,0.1,0.1,0.2,0.1,0.3c0,0.1-0.1,0.4-0.2,0.6c-0.2,0.3-0.2,0.5-0.2,0.6c0,0.1,0,0.1,0,0.2c0,0,0.1,0.1,0.1,0.1l1.2,0.6
			c0.1,0,0.1,0.1,0.2,0.3C64,39.7,64,40,64,40.3c0,0.3,0.1,0.5,0.1,0.7c0,0.2,0,0.3,0,0.4c0,0.3-0.1,0.6-0.1,0.9
			c0.1,0.4,0.1,0.8,0.2,1.2c0,0.4-0.1,0.8-0.1,1.2c0,0,0,0.1,0,0.1c0,0,0,0,0.1,0.1c0.1,0,0.2,0,0.3,0.1c0.1,0.1,0.1,0.1,0.1,0.2
			c0,0.1,0,0.2-0.1,0.3c0,0.1-0.1,0.1-0.2,0.2c-0.1,0.1-0.2,0.1-0.2,0.1c0,0-0.1,0.1-0.1,0.1l0.1,0.6L64,47.8c0,0.1,0,0.3,0,0.5
			c0,0.2,0,0.4-0.1,0.6c-0.1,0.2-0.1,0.3-0.1,0.4s0,0.2,0,0.2c0,0.1,0.1,0.2,0.1,0.4c0,0.2-0.1,0.4-0.1,0.5s-0.1,0.4-0.1,0.5
			c-0.1,0.2-0.2,0.4-0.3,0.5c-0.1,0.1-0.3,0.2-0.4,0.2c-0.1,0-0.2,0-0.2-0.1s-0.1-0.2-0.1-0.3c0-0.1,0-0.2,0-0.3c0-0.1,0-0.2,0-0.3
			c0,0,0-0.1,0-0.2c0-0.1,0-0.1,0-0.2c0-0.2,0-0.5,0.1-0.9c0-0.4,0.1-0.7,0.1-0.9c0-0.1-0.1-0.2-0.1-0.3c0-0.1,0-0.3,0-0.4
			s0-0.2,0-0.4l0.1-0.3l-0.1-0.9l-0.1,0c0,0-0.1,0-0.2,0c-0.1,0-0.2,0.1-0.3,0.1c-0.1,0-0.2,0.1-0.4,0.1c-0.2,0-0.4,0-0.7,0.1
			c-0.1,0.1-0.2,0.1-0.3,0.2c-0.2,0-0.3,0.1-0.6,0.2c-0.2,0.1-0.5,0.2-0.8,0.3c-0.2,0.1-0.3,0.2-0.5,0.2s-0.3,0.1-0.4,0.1
			c-0.1,0-0.1,0-0.2,0.1c-0.1,0.1-0.1,0.1-0.1,0.3c0,0.1-0.1,0.3-0.1,0.4c-0.1,0.2-0.2,0.4-0.3,0.7c0,0.1-0.1,0.2-0.1,0.3
			c0,0.2-0.1,0.3-0.2,0.6c0,0.1-0.1,0.2-0.1,0.3c-0.1,0.1-0.1,0.3-0.2,0.5c0,0.1,0,0.2,0,0.3s0,0.2-0.1,0.4c0,0.1-0.1,0.2-0.1,0.4
			c-0.1,0.1-0.1,0.3-0.2,0.5c-0.1,0.1-0.1,0.2-0.2,0.2c-0.1,0-0.2,0.1-0.4,0.1c-0.1,0-0.2,0-0.3-0.1c-0.1-0.1-0.1-0.2-0.1-0.4
			c0-0.2,0-0.4,0.1-0.6c0-0.2,0.1-0.5,0.2-0.7c0.1-0.4,0.2-0.6,0.2-0.9c0.1-0.2,0.1-0.4,0.1-0.5c0,0,0-0.1,0.1-0.2
			c0-0.1,0.1-0.3,0.1-0.4c0.1-0.2,0.1-0.4,0.2-0.6l0-0.1l-0.3,0c-0.1,0-0.1,0-0.2-0.1c0-0.1,0-0.1,0-0.2c0,0,0-0.1,0-0.2
			C56.2,47.4,56.2,47.3,56.2,47.2z M59.8,45.4c0.2,0,0.4,0,0.7-0.1c0.3-0.1,0.5-0.1,0.7-0.1c0.1,0,0.2,0,0.3,0
			c0.2,0,0.3-0.1,0.5-0.1c0.2,0,0.3-0.1,0.5-0.1c0.1,0,0.1,0,0.1-0.1s0-0.1,0-0.1c0-0.2,0-0.3,0-0.4c0-0.1,0-0.3,0-0.4
			s0-0.3,0.1-0.5L62.6,43l0-0.4c0-0.1,0-0.3-0.1-0.4c0-0.1,0-0.2,0-0.3c0,0,0-0.1-0.1-0.1c0-0.1-0.1-0.1-0.1-0.2
			c-0.1-0.1-0.1-0.2-0.2-0.3C62.1,41.2,62,41.1,62,41c-0.1-0.1-0.2-0.2-0.3-0.3c-0.1-0.1-0.2-0.1-0.3-0.1c-0.1,0-0.3,0.1-0.4,0.3
			c-0.1,0.2-0.3,0.5-0.4,1c0,0.1-0.1,0.2-0.2,0.3c-0.1,0.2-0.2,0.4-0.4,0.6c0,0.3-0.1,0.6-0.3,0.9c-0.2,0.4-0.4,0.8-0.6,1.3
			c0,0-0.1,0.1-0.1,0.1c0,0,0,0.1,0,0.1c0,0,0,0.1,0,0.1c0,0,0.1,0,0.1,0c0.1,0,0.2,0,0.3,0C59.6,45.4,59.7,45.4,59.8,45.4z"/>
		<path class="st1" d="M71.5,48.2c0.3,0.6,0.4,0.9,0.4,0.9c-0.1,0.1-0.2,0.2-0.2,0.4c-0.1,0.1-0.2,0.3-0.2,0.4
			c-0.1,0.1-0.2,0.2-0.3,0.3c-0.1,0.1-0.3,0.2-0.4,0.2c-0.2,0.1-0.5,0.2-0.7,0.3c-0.2,0.1-0.4,0.2-0.6,0.3c-0.2,0.1-0.4,0.2-0.6,0.2
			c-0.2,0-0.4,0.1-0.6,0.1c-0.1,0-0.3,0.1-0.4,0.1c-0.1,0-0.3,0-0.4,0c-0.1,0-0.2,0-0.2,0c-0.1,0-0.1,0-0.2-0.1
			c-0.1,0-0.1-0.1-0.2-0.1S66.6,51,66.6,51c-0.1-0.1-0.2-0.1-0.3-0.1c-0.1,0-0.1-0.2-0.2-0.4c0-0.2-0.1-0.5-0.1-1
			c0-0.3,0.1-0.8,0.2-1.4c0.2-0.6,0.2-1.1,0.2-1.3c0,0,0-0.1,0-0.2c0-0.1,0-0.2,0-0.2c0-0.2,0.1-0.6,0.2-1.3
			c0.1-0.7,0.2-1.1,0.2-1.4c0-0.1,0-0.2-0.1-0.3c-0.1-0.1-0.1-0.1-0.1-0.3c0-0.2,0-0.3,0-0.5c0-0.2,0.1-0.4,0.1-0.7
			c0.1-0.2,0.1-0.4,0.1-0.6s0.1-0.4,0.1-0.6c0-0.2,0.1-0.4,0.1-0.7c0-0.2,0.1-0.4,0.1-0.7c0-0.1,0.1-0.3,0.2-0.5
			c0.1-0.2,0.2-0.5,0.3-0.7c0.1-0.1,0.1-0.3,0.2-0.4c0-0.1,0.1-0.2,0.1-0.4c0.1-0.1,0.1-0.2,0.2-0.3s0.2-0.2,0.4-0.2
			c0.1,0,0.2-0.1,0.3-0.1c0.1,0,0.2,0,0.2,0c0.2,0,0.3,0.1,0.4,0.2c0.1,0.1,0.1,0.3,0.1,0.6c0,0.1,0,0.2,0,0.3c0,0.1,0,0.2-0.1,0.4
			c0,0.1-0.1,0.3-0.1,0.4s0,0.2-0.1,0.2c0,0.2,0,0.3,0,0.4s0,0.3,0,0.4c0,0.1-0.1,0.2-0.2,0.3c0,0.3-0.1,0.6-0.1,0.8
			c0,0.2,0,0.4,0,0.4c0,0.3-0.1,0.6-0.2,1c-0.1,0.4-0.2,0.7-0.2,1c0,0.1,0,0.2,0,0.4s-0.1,0.3-0.1,0.5c-0.1,0.3-0.1,0.5-0.2,0.6
			c0,0.2-0.1,0.2-0.1,0.3c0,0.1,0,0.2,0,0.3c0,0.1,0,0.3-0.1,0.5c-0.2,0.7-0.3,1.3-0.3,1.8s-0.1,0.8-0.1,1.1c0,0.2,0,0.4,0.1,0.5
			s0.1,0.2,0.2,0.2c0.4,0,0.8,0,1.3-0.1c0.4-0.1,0.9-0.2,1.3-0.4c0.1,0,0.1,0,0.2,0c0,0,0.1,0,0.2-0.1c0.1-0.1,0.1-0.2,0.2-0.3
			c0.1-0.1,0.2-0.1,0.2-0.2S71.4,48.2,71.5,48.2z"/>
		<path class="st1" d="M77.9,48.2c0.3,0.6,0.4,0.9,0.4,0.9c-0.1,0.1-0.2,0.2-0.2,0.4c-0.1,0.1-0.2,0.3-0.2,0.4
			c-0.1,0.1-0.2,0.2-0.3,0.3c-0.1,0.1-0.3,0.2-0.4,0.2c-0.2,0.1-0.5,0.2-0.7,0.3c-0.2,0.1-0.4,0.2-0.6,0.3c-0.2,0.1-0.4,0.2-0.6,0.2
			c-0.2,0-0.4,0.1-0.6,0.1c-0.1,0-0.3,0.1-0.4,0.1c-0.1,0-0.3,0-0.4,0c-0.1,0-0.2,0-0.2,0c-0.1,0-0.1,0-0.2-0.1
			c-0.1,0-0.1-0.1-0.2-0.1S73,51,72.9,51c-0.1-0.1-0.2-0.1-0.3-0.1c-0.1,0-0.1-0.2-0.2-0.4c0-0.2-0.1-0.5-0.1-1
			c0-0.3,0.1-0.8,0.2-1.4c0.2-0.6,0.2-1.1,0.2-1.3c0,0,0-0.1,0-0.2c0-0.1,0-0.2,0-0.2c0-0.2,0.1-0.6,0.2-1.3
			c0.1-0.7,0.2-1.1,0.2-1.4c0-0.1,0-0.2-0.1-0.3c-0.1-0.1-0.1-0.1-0.1-0.3c0-0.2,0-0.3,0-0.5c0-0.2,0.1-0.4,0.1-0.7
			c0.1-0.2,0.1-0.4,0.1-0.6c0-0.2,0.1-0.4,0.1-0.6c0-0.2,0.1-0.4,0.1-0.7c0-0.2,0.1-0.4,0.1-0.7c0-0.1,0.1-0.3,0.2-0.5
			c0.1-0.2,0.2-0.5,0.3-0.7c0.1-0.1,0.1-0.3,0.2-0.4c0-0.1,0.1-0.2,0.1-0.4c0.1-0.1,0.1-0.2,0.2-0.3s0.2-0.2,0.4-0.2
			c0.1,0,0.2-0.1,0.3-0.1c0.1,0,0.2,0,0.2,0c0.2,0,0.3,0.1,0.4,0.2c0.1,0.1,0.1,0.3,0.1,0.6c0,0.1,0,0.2,0,0.3c0,0.1,0,0.2-0.1,0.4
			c0,0.1-0.1,0.3-0.1,0.4s0,0.2-0.1,0.2c0,0.2,0,0.3,0,0.4s0,0.3,0,0.4c0,0.1-0.1,0.2-0.2,0.3c0,0.3-0.1,0.6-0.1,0.8s0,0.4,0,0.4
			c0,0.3-0.1,0.6-0.2,1c-0.1,0.4-0.2,0.7-0.2,1c0,0.1,0,0.2,0,0.4s-0.1,0.3-0.1,0.5c-0.1,0.3-0.1,0.5-0.2,0.6c0,0.2-0.1,0.2-0.1,0.3
			c0,0.1,0,0.2,0,0.3c0,0.1,0,0.3-0.1,0.5c-0.2,0.7-0.3,1.3-0.3,1.8s-0.1,0.8-0.1,1.1c0,0.2,0,0.4,0.1,0.5s0.1,0.2,0.2,0.2
			c0.4,0,0.8,0,1.3-0.1c0.4-0.1,0.9-0.2,1.3-0.4c0.1,0,0.1,0,0.2,0c0,0,0.1,0,0.2-0.1c0.1-0.1,0.1-0.2,0.2-0.3
			c0.1-0.1,0.2-0.1,0.2-0.2S77.8,48.2,77.9,48.2z"/>
		<path class="st1" d="M77.9,47.2c0-0.1,0-0.1,0-0.2c0,0,0-0.1,0-0.1c0-0.2,0-0.4,0.1-0.6c0.1-0.2,0.1-0.3,0.2-0.4
			c0,0,0.1-0.1,0.2-0.1s0.3-0.1,0.4-0.2c0.1-0.1,0.2-0.1,0.3-0.2c0.1-0.1,0.1-0.2,0.1-0.3c0-0.1,0.1-0.2,0.1-0.3
			c0.1-0.1,0.1-0.2,0.2-0.4c0,0,0.1-0.3,0.2-0.7c0.1-0.4,0.3-1,0.6-1.8c0.1-0.2,0.1-0.5,0.2-0.6s0.1-0.3,0.2-0.5
			c0.2-0.6,0.4-0.9,0.5-1.1c0.1-0.2,0.2-0.3,0.3-0.4v0l-0.3-0.5l0.4-0.4l0.5-0.1c0.1,0,0.2-0.1,0.3-0.3c0.1-0.2,0.2-0.4,0.4-0.6
			c0,0,0.1-0.1,0.2-0.1c0.1-0.1,0.2-0.2,0.4-0.3c0.1-0.1,0.3-0.2,0.4-0.2c0.1-0.1,0.2-0.1,0.2-0.1c0.2,0,0.3,0,0.4,0.1
			s0.1,0.2,0.1,0.3c0,0.1-0.1,0.4-0.2,0.6c-0.2,0.3-0.2,0.5-0.2,0.6c0,0.1,0,0.1,0,0.2c0,0,0.1,0.1,0.1,0.1l1.2,0.6
			c0.1,0,0.1,0.1,0.2,0.3c0.1,0.2,0.1,0.4,0.1,0.7c0,0.3,0.1,0.5,0.1,0.7c0,0.2,0,0.3,0,0.4c0,0.3-0.1,0.6-0.1,0.9
			c0.1,0.4,0.1,0.8,0.2,1.2c0,0.4-0.1,0.8-0.1,1.2c0,0,0,0.1,0,0.1c0,0,0,0,0.1,0.1c0.1,0,0.2,0,0.3,0.1c0.1,0.1,0.1,0.1,0.1,0.2
			c0,0.1,0,0.2-0.1,0.3c0,0.1-0.1,0.1-0.2,0.2c-0.1,0.1-0.2,0.1-0.2,0.1c0,0-0.1,0.1-0.1,0.1l0.1,0.6l-0.2,1.4c0,0.1,0,0.3,0,0.5
			c0,0.2,0,0.4-0.1,0.6c-0.1,0.2-0.1,0.3-0.1,0.4s0,0.2,0,0.2c0,0.1,0.1,0.2,0.1,0.4c0,0.2-0.1,0.4-0.1,0.5s-0.1,0.4-0.1,0.5
			c-0.1,0.2-0.2,0.4-0.3,0.5c-0.1,0.1-0.3,0.2-0.4,0.2c-0.1,0-0.2,0-0.2-0.1c0-0.1-0.1-0.2-0.1-0.3c0-0.1,0-0.2,0-0.3s0-0.2,0-0.3
			c0,0,0-0.1,0-0.2c0-0.1,0-0.1,0-0.2c0-0.2,0-0.5,0.1-0.9c0-0.4,0.1-0.7,0.1-0.9c0-0.1-0.1-0.2-0.1-0.3c0-0.1,0-0.3,0-0.4
			c0-0.1,0-0.2,0-0.4l0.1-0.3l-0.1-0.9l-0.1,0c0,0-0.1,0-0.2,0c-0.1,0-0.2,0.1-0.3,0.1c-0.1,0-0.2,0.1-0.4,0.1c-0.2,0-0.4,0-0.7,0.1
			c-0.1,0.1-0.2,0.1-0.3,0.2c-0.2,0-0.3,0.1-0.6,0.2c-0.2,0.1-0.5,0.2-0.8,0.3c-0.2,0.1-0.3,0.2-0.5,0.2c-0.1,0-0.3,0.1-0.4,0.1
			c-0.1,0-0.1,0-0.2,0.1c-0.1,0.1-0.1,0.1-0.1,0.3c0,0.1-0.1,0.3-0.1,0.4c-0.1,0.2-0.2,0.4-0.3,0.7c0,0.1-0.1,0.2-0.1,0.3
			c0,0.2-0.1,0.3-0.2,0.6c0,0.1-0.1,0.2-0.1,0.3c-0.1,0.1-0.1,0.3-0.2,0.5c0,0.1,0,0.2,0,0.3c0,0.1,0,0.2-0.1,0.4
			c0,0.1-0.1,0.2-0.1,0.4c-0.1,0.1-0.1,0.3-0.2,0.5c-0.1,0.1-0.1,0.2-0.2,0.2s-0.2,0.1-0.4,0.1c-0.1,0-0.2,0-0.3-0.1
			c-0.1-0.1-0.1-0.2-0.1-0.4c0-0.2,0-0.4,0.1-0.6c0-0.2,0.1-0.5,0.2-0.7c0.1-0.4,0.2-0.6,0.2-0.9c0.1-0.2,0.1-0.4,0.1-0.5
			c0,0,0-0.1,0.1-0.2c0-0.1,0.1-0.3,0.1-0.4c0.1-0.2,0.1-0.4,0.2-0.6l0-0.1l-0.3,0c-0.1,0-0.1,0-0.2-0.1c0-0.1,0-0.1,0-0.2
			c0,0,0-0.1,0-0.2C77.9,47.4,77.9,47.3,77.9,47.2z M81.5,45.4c0.2,0,0.4,0,0.7-0.1c0.3-0.1,0.5-0.1,0.7-0.1c0.1,0,0.2,0,0.3,0
			c0.2,0,0.3-0.1,0.5-0.1c0.2,0,0.3-0.1,0.5-0.1c0.1,0,0.1,0,0.1-0.1s0-0.1,0-0.1c0-0.2,0-0.3,0-0.4c0-0.1,0-0.3,0-0.4
			c0-0.2,0-0.3,0.1-0.5L84.3,43l0-0.4c0-0.1,0-0.3-0.1-0.4c0-0.1,0-0.2,0-0.3c0,0,0-0.1-0.1-0.1c0-0.1-0.1-0.1-0.1-0.2
			c-0.1-0.1-0.1-0.2-0.2-0.3c-0.1-0.1-0.1-0.2-0.2-0.3c-0.1-0.1-0.2-0.2-0.3-0.3c-0.1-0.1-0.2-0.1-0.3-0.1c-0.1,0-0.3,0.1-0.4,0.3
			c-0.1,0.2-0.3,0.5-0.4,1c0,0.1-0.1,0.2-0.2,0.3s-0.2,0.4-0.4,0.6c0,0.3-0.1,0.6-0.3,0.9s-0.4,0.8-0.6,1.3c0,0-0.1,0.1-0.1,0.1
			c0,0,0,0.1,0,0.1c0,0,0,0.1,0,0.1c0,0,0.1,0,0.1,0c0.1,0,0.2,0,0.3,0C81.3,45.4,81.5,45.4,81.5,45.4z"/>
		<path class="st1" d="M90.6,45.5c0,0.1,0.1,0.3,0.3,0.5s0.5,0.5,0.8,0.8c0.2,0.2,0.5,0.4,0.8,0.6c0.3,0.2,0.5,0.4,0.8,0.6
			c0.1,0.1,0.3,0.2,0.4,0.4s0.4,0.3,0.6,0.5c0.2,0.1,0.4,0.3,0.5,0.4c0.2,0.1,0.4,0.3,0.6,0.4c0.1,0.1,0.3,0.2,0.5,0.4
			s0.4,0.3,0.6,0.4c0.1,0.1,0.2,0.2,0.3,0.4c0.1,0.2,0.1,0.5,0.1,0.8l-0.1,0.3l-0.1,0c-0.1,0-0.2,0-0.3-0.1s-0.2-0.1-0.4-0.2
			c0,0-0.2-0.1-0.5-0.2c-0.3-0.1-0.7-0.3-1.2-0.5c-0.3-0.1-0.5-0.3-0.8-0.4c-0.2-0.1-0.4-0.3-0.6-0.5c-0.1-0.1-0.3-0.2-0.4-0.3
			c-0.2-0.1-0.4-0.2-0.6-0.4c-0.2-0.1-0.5-0.3-0.6-0.4s-0.3-0.2-0.4-0.3c-0.4-0.3-0.6-0.5-0.9-0.7s-0.4-0.2-0.5-0.2
			c-0.1,0.1-0.1,0.2-0.1,0.3c-0.1,0.3-0.2,0.7-0.3,1.2c-0.1,0.5-0.2,1-0.3,1.7c0,0.1,0,0.2-0.1,0.3c0,0.1-0.1,0.1-0.2,0.1
			c-0.3,0-0.5-0.1-0.6-0.2S88,50.8,88,50.5c0-0.3,0-0.7,0.1-1.1c0-0.4,0.1-0.8,0.2-1.2c0-0.2,0.1-0.3,0.1-0.5c0-0.1,0-0.3,0-0.4
			c0-0.3-0.1-0.6-0.4-0.8c-0.3-0.2-0.4-0.4-0.4-0.5c0-0.1,0-0.3,0.1-0.4s0.1-0.2,0.2-0.3c0.2-0.1,0.4-0.3,0.6-0.4
			c0,0,0.1-0.1,0.1-0.1c0-0.1,0-0.2,0-0.3c0-0.1,0-0.1,0-0.2s0-0.1,0-0.2c0-0.6,0-1.2,0-1.8c0,0,0-0.1,0-0.2s0-0.2,0-0.4
			c0-0.1,0-0.2,0-0.3c0-0.1,0-0.2,0-0.3c0-0.1-0.1-0.2-0.1-0.3c0-0.1,0-0.2,0-0.3c0-0.1,0-0.2,0-0.4s0-0.3,0-0.4c0-0.1,0-0.2,0-0.4
			c0-0.2,0-0.3,0-0.4c0-0.2,0.1-0.5,0.2-0.7c0.1-0.2,0.3-0.4,0.5-0.6c0.2-0.2,0.4-0.3,0.7-0.4s0.5-0.1,0.7-0.1c0.1,0,0.3,0,0.5,0
			s0.4,0,0.5,0c0.1,0,0.3,0.1,0.7,0.2c0.2,0,0.3,0,0.4,0.1s0.2,0,0.3,0.1c0.2,0.1,0.3,0.1,0.4,0.2s0.2,0.1,0.2,0.1
			c0.1,0,0.2,0.1,0.3,0.1c0.1,0,0.2,0.1,0.2,0.1c0.1,0,0.2,0.1,0.3,0.1c0.1,0.1,0.2,0.1,0.4,0.2c0.2,0.1,0.5,0.3,0.7,0.4
			c0.2,0.2,0.4,0.3,0.6,0.5c0.2,0.2,0.4,0.5,0.5,0.7c0.1,0.2,0.2,0.5,0.2,0.7c0,0.1,0,0.2,0,0.3s0,0.3-0.1,0.4
			c0,0.2-0.1,0.4-0.3,0.6s-0.4,0.5-0.8,0.7c-0.3,0.2-0.6,0.4-0.8,0.6c-0.3,0.2-0.5,0.3-0.7,0.3c-0.1,0.1-0.2,0.1-0.2,0.2
			c-0.1,0.1-0.2,0.2-0.4,0.3s-0.5,0.3-0.9,0.4c-0.7,0.3-1.1,0.5-1.4,0.6C90.7,45.3,90.6,45.4,90.6,45.5z M89.6,40.8
			c0.1-0.1,0.2-0.2,0.4-0.3c0.1-0.1,0.3-0.1,0.4-0.1c0.1,0,0.2,0.1,0.3,0.3c0.1,0.2,0.2,0.3,0.2,0.4c0,0,0,0.2,0,0.3
			s-0.1,0.4-0.2,0.7c-0.2,0.6-0.2,1-0.3,1.2c0,0.2-0.1,0.4-0.1,0.8c0,0.1-0.1,0.2-0.1,0.3c0,0.1,0,0.1,0,0.1s0.1,0,0.1,0
			c1.3-0.7,2-1,2-1c0.1,0,0.1,0,0.2-0.1c0.1,0,0.1,0,0.2-0.1l0.1-0.2c0.4-0.2,0.8-0.5,1.2-0.8c0.3-0.2,0.5-0.4,0.6-0.6
			c0.1-0.2,0.2-0.4,0.2-0.6c0-0.2-0.1-0.5-0.4-0.7c-0.3-0.2-0.7-0.5-1.3-0.7c-0.5-0.2-0.9-0.3-1.3-0.4s-0.8-0.1-1.1-0.1
			c-0.4,0-0.7,0.1-1,0.2c-0.2,0.1-0.3,0.4-0.3,0.7c0,0.2,0,0.4,0,0.5S89.5,40.8,89.6,40.8z"/>
		<path class="st1" d="M104.6,37.1c0.1,0,0.3,0,0.3,0.1s0.1,0.2,0.1,0.4c0,0.3,0,0.7,0,0.9s-0.1,0.5-0.2,0.8
			c-0.1,0.3-0.2,0.6-0.3,0.8s-0.2,0.6-0.3,0.8c-0.1,0.1-0.2,0.2-0.2,0.3c0,0.1,0,0.3,0,0.4c0,0.1,0,0.1-0.1,0.1c0,0-0.1,0.1-0.2,0.2
			c0,0.1,0,0.1-0.1,0.2s-0.1,0.2-0.1,0.3c-0.2,0.3-0.4,0.7-0.7,1.2c-0.3,0.5-0.6,1-1,1.6c0,0.1,0,0.2,0,0.3l-0.6,1.2
			c-0.2,0.4-0.4,0.8-0.5,1.2s-0.2,0.8-0.3,1.1c0,0.2-0.1,0.4-0.1,0.5s0,0.2,0,0.3c0,0.1,0,0.2,0.1,0.3c0.1,0.1,0.1,0.2,0.1,0.3
			c0,0.1-0.2,0.3-0.6,0.6s-0.6,0.3-0.7,0.3c-0.1,0-0.2,0-0.3-0.1s-0.2,0-0.3-0.1c-0.1,0-0.2-0.1-0.3-0.1c-0.1-0.1-0.1-0.1-0.1-0.2
			c0-0.1,0-0.2,0.1-0.4c0.1-0.3,0.1-0.6,0.2-0.8c0.1-0.2,0.2-0.5,0.3-0.7l0,0c0,0,0-0.1,0-0.1c0,0,0-0.1,0-0.1
			c0-0.1,0.1-0.3,0.1-0.4s0.1-0.4,0.2-0.6c0.1-0.1,0.1-0.2,0.2-0.4s0.1-0.4,0.2-0.6c-0.2-0.2-0.4-0.4-0.6-0.6
			c-0.2-0.2-0.3-0.4-0.3-0.7c-0.1-0.1-0.1-0.3-0.2-0.4s-0.2-0.4-0.3-0.6l-0.7-2.5c0-0.2,0-0.4-0.1-0.7c0-0.3-0.1-0.6-0.2-0.9
			l0.1-0.2l-0.2-0.2c0-0.1,0-0.1,0-0.2c0-0.1,0-0.2,0-0.4c0-0.1,0-0.2,0-0.3c0-0.1,0-0.2,0-0.2c0-0.2,0-0.4,0.1-0.6
			c0.1-0.1,0.2-0.2,0.3-0.2c0,0,0.1,0,0.2,0c0.1,0,0.1,0,0.2,0c0.1,0,0.3-0.1,0.7-0.3c0.2,0,0.3,0,0.4,0.1c0.1,0.1,0.2,0.2,0.2,0.4
			c0,0.1,0,0.2,0,0.4c0,0.2,0,0.4,0,0.6c0,0.1,0,0.3,0,0.5s0,0.4,0,0.5c0,0,0,0.1,0,0.1s0,0.1,0,0.2c0,0.2,0,0.5,0.1,0.8
			s0.1,0.7,0.2,1.1c0,0.2,0.1,0.5,0.2,0.9s0.2,0.8,0.3,1.2c0.1,0.1,0.1,0.1,0.2,0.2c0.1,0.1,0.1,0.2,0.2,0.3l0.1,0
			c0,0,0.1-0.2,0.3-0.5c0.2-0.3,0.4-0.8,0.6-1.4c0-0.1,0.1-0.2,0.1-0.3c0.1-0.1,0.1-0.3,0.2-0.5c0,0,0.1-0.1,0.1-0.2
			c0-0.1,0.1-0.1,0.1-0.2c0-0.1,0.1-0.3,0.1-0.4c0.1-0.2,0.1-0.4,0.2-0.6c0.1-0.2,0.2-0.3,0.3-0.6c0.1-0.2,0.2-0.5,0.4-0.8
			c0,0,0.1-0.3,0.4-0.7s0.6-1,1-1.7c0.1-0.1,0.1-0.2,0.2-0.2S104.5,37.1,104.6,37.1z"/>
	</g>
	<path class="st2" d="M67.6,33.4c-1.2,0-2.2-1-2.2-2.2s1-2.2,2.2-2.2c1.2,0,2.2,1,2.2,2.2S68.8,33.4,67.6,33.4L67.6,33.4z
		 M67.6,30.5c-0.4,0-0.7,0.3-0.7,0.7s0.3,0.7,0.7,0.7s0.7-0.3,0.7-0.7S68,30.5,67.6,30.5z"/>
	<path class="st3" d="M68.6,33.4c-1.2,0-2.2-1-2.2-2.2s1-2.2,2.2-2.2c1.2,0,2.2,1,2.2,2.2S69.8,33.4,68.6,33.4L68.6,33.4z
		 M68.6,30.5c-0.4,0-0.7,0.3-0.7,0.7s0.3,0.7,0.7,0.7s0.7-0.3,0.7-0.7S69,30.5,68.6,30.5z"/>
	<path class="st2" d="M41.6,62.4c-1.2,0-2.2-1-2.2-2.2s1-2.2,2.2-2.2c1.2,0,2.2,1,2.2,2.2S42.8,62.4,41.6,62.4L41.6,62.4z
		 M41.6,59.5c-0.4,0-0.7,0.3-0.7,0.7c0,0.4,0.3,0.7,0.7,0.7s0.7-0.3,0.7-0.7C42.3,59.8,42,59.5,41.6,59.5z"/>
	<path class="st4" d="M41.3,11.2c-1.4,0-2.6-1.2-2.6-2.6S39.9,6,41.3,6c1.4,0,2.6,1.2,2.6,2.6S42.7,11.2,41.3,11.2L41.3,11.2z
		 M41.3,7.8c-0.4,0-0.8,0.3-0.8,0.8c0,0.4,0.3,0.8,0.8,0.8c0.4,0,0.8-0.3,0.8-0.8C42.1,8.2,41.7,7.8,41.3,7.8z"/>
	<path class="st4" d="M40.3,63.2c-1.4,0-2.6-1.2-2.6-2.6c0-1.4,1.2-2.6,2.6-2.6c1.4,0,2.6,1.2,2.6,2.6C42.9,62,41.7,63.2,40.3,63.2
		L40.3,63.2z M40.3,59.8c-0.4,0-0.8,0.3-0.8,0.8c0,0.4,0.3,0.8,0.8,0.8c0.4,0,0.8-0.3,0.8-0.8C41.1,60.2,40.7,59.8,40.3,59.8z"/>
	<path class="st3" d="M65.2,66.3c-0.5,0-1-0.4-1-1c0-0.7-0.5-1.2-1.2-1.2c-0.5,0-1-0.4-1-1s0.4-1,1-1c0.7,0,1.2-0.5,1.2-1.2
		c0-0.5,0.4-1,1-1c0.5,0,1,0.4,1,1c0,0.7,0.5,1.2,1.2,1.2c0.5,0,1,0.4,1,1s-0.4,1-1,1c-0.7,0-1.2,0.5-1.2,1.2
		C66.1,65.8,65.7,66.3,65.2,66.3z"/>
	<g>
		<g>
			<path class="st5" d="M38.9,53.2H32c-0.6,0-1.1-0.5-1.1-1.1V38.2c0-0.6,0.5-1.1,1.1-1.1h6.9c0.6,0,1.1,0.5,1.1,1.1v13.9
				C40,52.7,39.5,53.2,38.9,53.2z"/>
			<path class="st4" d="M38.9,52.3H32c-0.6,0-1.1-0.5-1.1-1.1V37.3c0-0.6,0.5-1.1,1.1-1.1h6.9c0.6,0,1.1,0.5,1.1,1.1v13.9
				C40,51.8,39.5,52.3,38.9,52.3z"/>
			<path class="st1" d="M31,37.8H40v13H31V37.8z"/>
			<path class="st6" d="M38.9,52.5H32c-0.7,0-1.3-0.6-1.3-1.3V37.3c0-0.7,0.6-1.3,1.3-1.3h6.9c0.7,0,1.3,0.6,1.3,1.3v13.9
				C40.2,51.9,39.6,52.5,38.9,52.5L38.9,52.5z M32,36.4c-0.5,0-0.9,0.4-0.9,0.9v13.9c0,0.5,0.4,0.9,0.9,0.9h6.9
				c0.5,0,0.9-0.4,0.9-0.9V37.3c0-0.5-0.4-0.9-0.9-0.9H32z"/>
			<g>
				<path class="st7" d="M36.1,37.2h-1.3c-0.1,0-0.2-0.1-0.2-0.2c0-0.1,0.1-0.2,0.2-0.2h1.3c0.1,0,0.2,0.1,0.2,0.2
					C36.3,37.1,36.2,37.2,36.1,37.2z"/>
			</g>
			<circle class="st7" cx="37" cy="37" r="0.2"/>
		</g>
		<path class="st8" d="M39,39v3.1c0,0.2-0.2,0.4-0.4,0.4h-6.2c-0.2,0-0.4-0.2-0.4-0.4V39c0-0.2,0.2-0.4,0.4-0.4h6.2
			C38.8,38.6,39,38.8,39,39z"/>
		<path class="st9" d="M39,39.7v2.4c0,0.2-0.2,0.4-0.4,0.4h-4.5c0-0.1,0-0.2,0-0.4c0-1.7,1.4-3,3-3C37.8,39.1,38.5,39.3,39,39.7z"/>
		<path class="st10" d="M39,49.3v1.5h-7v-1.5c0-0.2,0.2-0.4,0.4-0.4h6.2C38.8,48.9,39,49.1,39,49.3z"/>
		<path class="st11" d="M34.9,49.8c0,0.3-0.1,0.6-0.2,0.9H32v-1.5c0-0.2,0.2-0.4,0.4-0.4h2.3C34.8,49.2,34.9,49.5,34.9,49.8z"/>
		<g>
			<g>
				<path class="st12" d="M35.1,45.1h-2.9c-0.1,0-0.2-0.1-0.2-0.2v-1.5c0-0.1,0.1-0.2,0.2-0.2h2.9c0.1,0,0.2,0.1,0.2,0.2V45
					C35.2,45.1,35.2,45.1,35.1,45.1z"/>
				<path class="st10" d="M38.8,45.1h-2.9c-0.1,0-0.2-0.1-0.2-0.2v-1.5c0-0.1,0.1-0.2,0.2-0.2h2.9c0.1,0,0.2,0.1,0.2,0.2V45
					C39,45.1,38.9,45.1,38.8,45.1z"/>
			</g>
			<g>
				<path class="st9" d="M35.1,47.4h-2.9c-0.1,0-0.2-0.1-0.2-0.2v-1.5c0-0.1,0.1-0.2,0.2-0.2h2.9c0.1,0,0.2,0.1,0.2,0.2v1.5
					C35.2,47.3,35.2,47.4,35.1,47.4L35.1,47.4z"/>
				<path class="st13" d="M38.8,47.4h-2.9c-0.1,0-0.2-0.1-0.2-0.2v-1.5c0-0.1,0.1-0.2,0.2-0.2h2.9c0.1,0,0.2,0.1,0.2,0.2v1.5
					C39,47.3,38.9,47.4,38.8,47.4L38.8,47.4z"/>
			</g>
		</g>
		<g>
			<g>
				<path class="st1" d="M35.3,40.8h-2.4c-0.1,0-0.2,0.1-0.2,0.2s0.1,0.2,0.2,0.2h2.4c0.1,0,0.2-0.1,0.2-0.2S35.4,40.8,35.3,40.8z"
					/>
			</g>
			<g>
				<path class="st1" d="M35.3,40.1h-2.4c-0.1,0-0.2,0.1-0.2,0.2c0,0.1,0.1,0.2,0.2,0.2h2.4c0.1,0,0.2-0.1,0.2-0.2
					C35.5,40.1,35.4,40.1,35.3,40.1z"/>
			</g>
			<g>
				<path class="st13" d="M33.4,39.2h-0.4c-0.1,0-0.2,0.1-0.2,0.2c0,0.1,0.1,0.2,0.2,0.2h0.4c0.1,0,0.2-0.1,0.2-0.2
					C33.5,39.3,33.5,39.2,33.4,39.2z"/>
			</g>
		</g>
		<g>
			<path class="st9" d="M33.7,48.2h-1.5c-0.1,0-0.2,0.1-0.2,0.2s0.1,0.2,0.2,0.2h1.5c0.1,0,0.2-0.1,0.2-0.2S33.8,48.2,33.7,48.2z"/>
		</g>
		<path class="st3" d="M39,49.3v0.9c-0.7,0-1.3-0.6-1.3-1.3v0h0.9C38.8,48.9,39,49.1,39,49.3z"/>
	</g>
	<path class="st2" d="M9.8,24.6c-0.7,0-1.2-0.5-1.2-1.2C8.6,22.6,8,22,7.2,22C6.5,22,6,21.4,6,20.8s0.5-1.2,1.2-1.2
		c0.8,0,1.4-0.6,1.4-1.4c0-0.7,0.5-1.2,1.2-1.2s1.2,0.5,1.2,1.2c0,0.8,0.6,1.4,1.4,1.4c0.7,0,1.2,0.5,1.2,1.2S13,22,12.4,22
		c-0.8,0-1.4,0.6-1.4,1.4C11,24,10.4,24.6,9.8,24.6z"/>
	<path class="st2" d="M65.8,65.6c-0.5,0-0.9-0.4-0.9-0.9c0-0.6-0.5-1-1-1c-0.5,0-0.9-0.4-0.9-0.9s0.4-0.9,0.9-0.9c0.6,0,1-0.5,1-1
		c0-0.5,0.4-0.9,0.9-0.9s0.9,0.4,0.9,0.9c0,0.6,0.5,1,1,1c0.5,0,0.9,0.4,0.9,0.9s-0.4,0.9-0.9,0.9c-0.6,0-1,0.5-1,1
		C66.7,65.2,66.3,65.6,65.8,65.6z"/>
	<path class="st2" d="M41.9,11c-1.4,0-2.5-1.1-2.5-2.5S40.5,6,41.9,6c1.4,0,2.5,1.1,2.5,2.5S43.3,11,41.9,11L41.9,11z M41.9,7.7
		c-0.4,0-0.8,0.3-0.8,0.8c0,0.4,0.3,0.8,0.8,0.8s0.8-0.3,0.8-0.8C42.7,8.1,42.3,7.7,41.9,7.7z"/>
	<path class="st3" d="M9.2,23.3c-0.5,0-1-0.4-1-1c0-0.7-0.5-1.2-1.2-1.2c-0.5,0-1-0.4-1-1s0.4-1,1-1c0.7,0,1.2-0.5,1.2-1.2
		c0-0.5,0.4-1,1-1s1,0.4,1,1c0,0.7,0.5,1.2,1.2,1.2c0.5,0,1,0.4,1,1s-0.4,1-1,1c-0.7,0-1.2,0.5-1.2,1.2C10.1,22.8,9.7,23.3,9.2,23.3
		z"/>
	<g>
		<path class="st2" d="M87.9,15.6c-0.7,0-1.3-0.3-1.6-0.9c-0.8-1.5,0.3-3.1,1.7-3.1c1.3,0,2.3,1.3,1.9,2.6
			C89.6,15.1,88.8,15.6,87.9,15.6L87.9,15.6z M88,13c-0.3,0-0.6,0.3-0.6,0.6s0.3,0.6,0.6,0.6c0.3,0,0.6-0.3,0.6-0.6S88.3,13,88,13z"
			/>
		<path class="st3" d="M88,16c-0.3,0-0.6-0.3-0.6-0.6c0-0.4-0.3-0.8-0.8-0.8c-0.3,0-0.6-0.3-0.6-0.6s0.3-0.6,0.6-0.6
			c0.4,0,0.8-0.3,0.8-0.8c0-0.3,0.3-0.6,0.6-0.6s0.6,0.3,0.6,0.6c0,0.4,0.3,0.8,0.8,0.8c0.3,0,0.6,0.3,0.6,0.6s-0.3,0.6-0.6,0.6
			c-0.4,0-0.8,0.3-0.8,0.8C88.6,15.7,88.3,16,88,16z"/>
	</g>
	<g>
		<path class="st2" d="M100.9,68.6c-0.7,0-1.3-0.3-1.6-0.9c-0.8-1.5,0.3-3.1,1.7-3.1c1.3,0,2.3,1.3,1.9,2.6
			C102.6,68.1,101.8,68.6,100.9,68.6L100.9,68.6z M101,66c-0.3,0-0.6,0.3-0.6,0.6c0,0.3,0.3,0.6,0.6,0.6c0.3,0,0.6-0.3,0.6-0.6
			C101.6,66.3,101.3,66,101,66z"/>
		<path class="st3" d="M101,69c-0.3,0-0.6-0.3-0.6-0.6c0-0.4-0.3-0.8-0.8-0.8c-0.3,0-0.6-0.3-0.6-0.6s0.3-0.6,0.6-0.6
			c0.4,0,0.8-0.3,0.8-0.8c0-0.3,0.3-0.6,0.6-0.6s0.6,0.3,0.6,0.6c0,0.4,0.3,0.8,0.8,0.8c0.3,0,0.6,0.3,0.6,0.6s-0.3,0.6-0.6,0.6
			c-0.4,0-0.8,0.3-0.8,0.8C101.6,68.7,101.3,69,101,69z"/>
	</g>
	<path class="st3" d="M11.7,51c-1.1,0-2-0.9-2-2s0.9-2,2-2c1.1,0,2,0.9,2,2C13.7,50.1,12.8,51,11.7,51L11.7,51z M11.7,48.4
		c-0.3,0-0.6,0.3-0.6,0.6c0,0.3,0.3,0.6,0.6,0.6s0.6-0.3,0.6-0.6C12.3,48.7,12,48.4,11.7,48.4z"/>
	<path class="st2" d="M11.8,50.7c-0.3,0-0.6-0.3-0.6-0.6c0-0.4-0.3-0.7-0.7-0.7c-0.3,0-0.6-0.3-0.6-0.6c0-0.3,0.3-0.6,0.6-0.6
		c0.4,0,0.7-0.3,0.7-0.7c0-0.3,0.3-0.6,0.6-0.6c0.3,0,0.6,0.3,0.6,0.6c0,0.4,0.3,0.7,0.7,0.7c0.3,0,0.6,0.3,0.6,0.6
		c0,0.3-0.3,0.6-0.6,0.6c-0.4,0-0.7,0.3-0.7,0.7C12.3,50.5,12.1,50.7,11.8,50.7z"/>
	<path class="st1" d="M36.1,31.7c-2.7-0.5-4.3-4.2-3.6-8.2c0.7-4,3.5-6.9,6.2-6.4c2.7,0.5,4.3,4.2,3.6,8.2S38.8,32.2,36.1,31.7
		L36.1,31.7z M37.8,22.2c-0.8-0.1-1.7,0.7-1.9,1.9s0.3,2.3,1.1,2.5c0.8,0.1,1.7-0.7,1.9-1.9S38.6,22.3,37.8,22.2z"/>
</g>
</svg>
