<?xml version="1.0" encoding="utf-8"?>
<!-- Generator: Adobe Illustrator 23.0.1, SVG Export Plug-In . SVG Version: 6.00 Build 0)  -->
<svg version="1.1" id="Layer_1" xmlns="http://www.w3.org/2000/svg" xmlns:xlink="http://www.w3.org/1999/xlink" x="0px" y="0px"
	 viewBox="0 0 118 72" style="enable-background:new 0 0 118 72;" xml:space="preserve">
<style type="text/css">
	.st0{fill:#002856;}
</style>
<g id="Smartphone">
	<path class="st0" d="M66.5,6.8H52.8c-1.6,0-2.8,1.3-2.8,2.8v29.5c0,1.6,1.3,2.8,2.8,2.8h13.6c1.6,0,2.8-1.3,2.8-2.8V9.7
		C69.3,8.1,68,6.8,66.5,6.8z M63.3,9L63.3,9c-0.1,0.4-0.4,0.7-0.8,0.7h-5.6c-0.4,0-0.8-0.3-0.8-0.7l0,0c-0.1-0.5,0.3-1,0.8-1h5.6
		C63,8,63.4,8.4,63.3,9z M68.2,39.2c0,0.9-0.8,1.7-1.7,1.7H52.8c-0.9,0-1.7-0.8-1.7-1.7V9.7c0-0.9,0.8-1.7,1.7-1.7h1.1
		c0.4,0,0.8,0.3,0.8,0.7l0.3,1.7c0.1,0.3,0.3,0.5,0.6,0.5h7.9c0.3,0,0.5-0.2,0.6-0.5l0.3-1.7C64.6,8.2,64.9,8,65.3,8h1.1
		c0.9,0,1.7,0.8,1.7,1.7L68.2,39.2L68.2,39.2z"/>
	<path class="st0" d="M56.8,39.2h-3.4c-0.3,0-0.5,0.2-0.6,0.5c-0.1,0.4,0.2,0.7,0.6,0.7h3.4c0.3,0,0.5-0.2,0.6-0.5
		C57.4,39.5,57.1,39.2,56.8,39.2z"/>
	<path class="st0" d="M59.1,39.2h-0.5c-0.3,0-0.5,0.2-0.6,0.5c-0.1,0.4,0.2,0.7,0.6,0.7h0.5c0.3,0,0.5-0.2,0.6-0.5
		C59.7,39.5,59.4,39.2,59.1,39.2z"/>
</g>
<g>
	<path class="st0" d="M20.5,50.3h-3.6v-1.1c0-0.5,0-0.8-0.1-1S16.5,48,16.3,48s-0.4,0.1-0.5,0.3s-0.2,0.5-0.2,0.9
		c0,0.5,0.1,0.9,0.2,1.1c0.1,0.3,0.5,0.6,1.1,0.9c1.7,1,2.8,1.9,3.3,2.5c0.4,0.7,0.7,1.7,0.7,3.2c0,1.1-0.1,1.8-0.4,2.4
		c-0.2,0.5-0.7,0.9-1.4,1.3s-1.5,0.5-2.5,0.5s-1.9-0.2-2.7-0.6c-0.7-0.4-1.2-0.9-1.4-1.5s-0.3-1.5-0.3-2.6v-1h3.6v1.8
		c0,0.6,0.1,0.9,0.2,1.1s0.3,0.2,0.5,0.2s0.5-0.1,0.6-0.3s0.2-0.5,0.2-0.9c0-0.9-0.1-1.5-0.4-1.7c-0.2-0.3-0.9-0.7-1.8-1.4
		c-1-0.6-1.6-1.1-1.9-1.4c-0.3-0.3-0.6-0.7-0.8-1.2s-0.3-1.2-0.3-2c0-1.1,0.1-2,0.4-2.5c0.3-0.5,0.8-0.9,1.4-1.2
		c0.7-0.3,1.4-0.4,2.4-0.4s1.9,0.2,2.6,0.5s1.2,0.7,1.4,1.2c0.2,0.5,0.3,1.3,0.3,2.5v0.6H20.5z"/>
	<path class="st0" d="M25.6,48.5l-0.1,1.2c0.3-0.5,0.6-0.8,1-1s0.9-0.3,1.4-0.3c1,0,1.8,0.5,2.4,1.4c0.3-0.5,0.7-0.8,1.1-1
		s0.8-0.3,1.3-0.3c0.6,0,1.2,0.2,1.6,0.5s0.7,0.7,0.8,1.1c0.1,0.4,0.2,1.2,0.2,2.2V61h-3.6v-8c0-1,0-1.7-0.1-1.9s-0.2-0.4-0.5-0.4
		s-0.4,0.1-0.5,0.4c-0.1,0.2-0.1,0.9-0.1,1.9v8h-3.6v-8c0-1.2,0-1.9-0.1-2.2c-0.1-0.2-0.2-0.4-0.5-0.4c-0.2,0-0.3,0.1-0.4,0.2
		c-0.1,0.1-0.2,0.3-0.2,0.5s0,0.6,0,1.2v8.5h-3.6V48.5H25.6z"/>
	<path class="st0" d="M39.8,53.2h-3.5v-0.8c0-0.9,0.1-1.7,0.3-2.2s0.7-1,1.3-1.4c0.7-0.4,1.5-0.6,2.6-0.6c1.3,0,2.2,0.2,2.9,0.7
		s1,1,1.2,1.6c0.1,0.6,0.2,2,0.2,4v6.1h-3.6v-1.1c-0.2,0.4-0.5,0.8-0.9,1s-0.8,0.3-1.3,0.3c-0.7,0-1.3-0.2-1.8-0.5
		c-0.5-0.4-0.8-1.2-0.8-2.4v-1c0-0.9,0.1-1.5,0.4-1.9c0.3-0.3,1-0.7,2.2-1.2s1.9-0.8,2-1s0.1-0.5,0.1-1c0-0.6,0-1.1-0.1-1.3
		s-0.3-0.3-0.5-0.3c-0.3,0-0.4,0.1-0.5,0.2c-0.1,0.2-0.1,0.6-0.1,1.3v1.5H39.8z M41,54.9c-0.6,0.4-0.9,0.8-1,1.1s-0.1,0.7-0.1,1.3
		s0,1,0.1,1.2s0.2,0.3,0.5,0.3c0.2,0,0.4-0.1,0.5-0.2c0.1-0.1,0.1-0.5,0.1-1.1L41,54.9L41,54.9z"/>
	<path class="st0" d="M49.8,48.5l-0.1,1.6c0.5-1.2,1.3-1.8,2.4-1.8v4.3c-0.7,0-1.2,0.1-1.5,0.3s-0.5,0.4-0.6,0.8
		c-0.1,0.3-0.1,1.1-0.1,2.3v4.8H46V48.5H49.8z"/>
	<path class="st0" d="M57.1,46.9v1.9h1v1.9h-1v6.6c0,0.8,0,1.3,0.1,1.3c0.1,0.1,0.4,0.1,1,0.1v2h-1.5c-0.9,0-1.5,0-1.8-0.1
		c-0.4-0.1-0.7-0.2-1-0.5s-0.4-0.5-0.5-0.9c-0.1-0.3-0.1-1.1-0.1-2.3v-6.2h-0.8v-1.9h0.8v-1.9C53.3,46.9,57.1,46.9,57.1,46.9z"/>
	<path class="st0" d="M59,45.8h3.9c1.1,0,1.9,0.1,2.4,0.3c0.6,0.2,1,0.4,1.3,0.7s0.5,0.7,0.6,1.1c0.1,0.4,0.2,1.1,0.2,2.1v1.3
		c0,1-0.1,1.6-0.3,2.1c-0.2,0.4-0.6,0.8-1.1,1s-1.2,0.4-2.1,0.4h-1v6H59V45.8z M62.9,48.4v3.8c0.1,0,0.2,0,0.3,0
		c0.4,0,0.6-0.1,0.7-0.3c0.1-0.2,0.2-0.5,0.2-1.1v-1.2c0-0.5-0.1-0.8-0.2-1C63.7,48.4,63.4,48.4,62.9,48.4z"/>
	<path class="st0" d="M72.1,45.8v3.4c0.3-0.3,0.7-0.5,1-0.7c0.4-0.1,0.8-0.2,1.2-0.2c0.7,0,1.2,0.2,1.7,0.5s0.7,0.7,0.8,1.1
		s0.2,1.2,0.2,2.4v8.4h-3.7v-8.6c0-0.7,0-1.2-0.1-1.4s-0.2-0.3-0.5-0.3c-0.2,0-0.4,0.1-0.5,0.3s-0.1,0.6-0.1,1.2v8.7h-3.7V45.8H72.1
		z"/>
	<path class="st0" d="M86.7,52.8v3c0,1.1-0.1,1.9-0.2,2.4s-0.3,1-0.7,1.4c-0.4,0.4-0.8,0.8-1.4,1s-1.2,0.3-2,0.3s-1.5-0.1-2.1-0.3
		s-1-0.5-1.3-0.8c-0.3-0.4-0.5-0.8-0.7-1.3c-0.1-0.5-0.2-1.3-0.2-2.3v-3.1c0-1.1,0.1-2,0.4-2.7c0.2-0.6,0.7-1.2,1.3-1.5
		c0.6-0.4,1.5-0.6,2.5-0.6c0.8,0,1.6,0.1,2.2,0.4c0.6,0.3,1.1,0.6,1.4,1s0.5,0.8,0.7,1.2C86.7,51.3,86.7,51.9,86.7,52.8z M83,51.9
		c0-0.6,0-1-0.1-1.2s-0.2-0.2-0.4-0.2s-0.4,0.1-0.4,0.2C82,50.9,82,51.3,82,51.9v5.5c0,0.6,0,1,0.1,1.1c0.1,0.2,0.2,0.3,0.4,0.3
		c0.2,0,0.4-0.1,0.4-0.2c0.1-0.2,0.1-0.5,0.1-1V51.9z"/>
	<path class="st0" d="M91.7,48.5l-0.1,1.1c0.3-0.5,0.6-0.8,1-1s0.8-0.3,1.4-0.3s1.2,0.2,1.6,0.5s0.7,0.7,0.8,1.1
		c0.1,0.5,0.2,1.2,0.2,2.3v8.6h-3.7v-8.5c0-0.8,0-1.4-0.1-1.5c-0.1-0.2-0.2-0.3-0.5-0.3s-0.4,0.1-0.5,0.3s-0.1,0.8-0.1,1.7v8.3H88
		V48.5H91.7z"/>
	<path class="st0" d="M106.3,54.8h-4.8v2.6c0,0.6,0,0.9,0.1,1.1s0.2,0.2,0.5,0.2s0.5-0.1,0.6-0.3s0.1-0.6,0.1-1.2v-1.6h3.5v0.9
		c0,0.8,0,1.3-0.1,1.7s-0.3,0.8-0.7,1.3s-0.8,0.8-1.3,1s-1.2,0.3-2,0.3s-1.5-0.1-2.1-0.3S99,60,98.7,59.6s-0.6-0.8-0.7-1.3
		s-0.2-1.2-0.2-2.1v-3.6c0-1.1,0.1-1.9,0.4-2.5s0.8-1.1,1.4-1.4c0.7-0.3,1.4-0.5,2.3-0.5c1,0,1.9,0.2,2.6,0.6
		c0.7,0.4,1.2,0.9,1.4,1.6s0.4,1.6,0.4,2.8C106.3,53.2,106.3,54.8,106.3,54.8z M102.5,52.8V52c0-0.6,0-1-0.1-1.2s-0.2-0.3-0.4-0.3
		c-0.3,0-0.4,0.1-0.5,0.2c-0.1,0.2-0.1,0.6-0.1,1.3v0.9h1.1V52.8z"/>
</g>
</svg>
