<svg xmlns="http://www.w3.org/2000/svg" width="121" height="113" viewBox="0 0 121 113">
    <g fill="none" fill-rule="evenodd">
        <g fill="#002856" fill-rule="nonzero">
            <g transform="translate(-731 -1175) translate(731.964 1175.5)">
                <path d="M98.555 111.992c-4.538.015-8.95-1.488-12.534-4.272-2.327-1.813-5.188-2.807-8.138-2.829H41.187c-2.951.021-5.813 1.016-8.14 2.83-8.06 6.215-19.458 5.582-26.78-1.488-7.322-7.07-8.354-18.438-2.424-26.71 2.079-2.895 3.192-6.373 3.18-9.937V49.621c0-.23.034-.458.098-.68l.031-.17C9.082 21.31 31.92.015 59.45.004c27.53-.01 50.383 21.268 52.334 48.729l.054.285c.052.197.078.4.079.604v19.785c-.01 3.605 1.129 7.12 3.252 10.034 4.294 5.924 5.108 13.686 2.136 20.373-2.971 6.686-9.278 11.283-16.553 12.066-.73.075-1.463.113-2.196.113zm-57.368-10.151h36.696c3.625.022 7.141 1.24 10.004 3.464 6.873 5.307 16.6 4.757 22.832-1.29 6.232-6.045 7.074-15.752 1.978-22.782-2.5-3.435-3.843-7.578-3.832-11.827l-.018-19.785-.09-.527C106.996 23.197 85.49 3.08 59.533 3.048c-25.958-.03-47.511 20.034-49.335 45.928-.019.248-.06.494-.124.735v19.874c.013 4.203-1.3 8.304-3.753 11.717-5.047 7.042-4.169 16.72 2.064 22.738 6.233 6.018 15.935 6.557 22.796 1.266 2.863-2.225 6.38-3.443 10.006-3.465z"/>
                <path d="M16.053 48.444c-.306-.038-.383-.074-.377-.343.006-.282.068-.573.104-.866.02-.172 0-.471.224-.527.216-.009.431.009.642.051l7.4.914c.661.106 1.221.546 1.48 1.163.136.338.171.709.103 1.067-.041.357-.115.71-.221 1.054-.017.025-.065.194-.131.187-.262-.072-1.127-.284-1.468-.365-.21-.053-.024-.259.04-.346.098-.173.167-.361.203-.557-.004-.17-.1-.326-.25-.407-.137-.109-.302-.175-.477-.193-.77-.095-7.085-.812-7.272-.832zM26.749 43.588c-.128.395-.233.685-.347 1-.018.052-.028.12-.068.148-.039.07-2.455-1.488-2.789-1.708-.944-.625-1.88-1.191-2.843-1.796-.77-.477-2.61-1.654-2.778-1.743-.18-.095-.234-.1-.171-.277.185-.431.323-.894.477-1.324.074-.201.059-.122.317-.127.401.073 7.743 1.101 7.913 1.104.392.015.768.122 1.163.135.114-.001.78.01.673.301-.064.22-.329.951-.402 1.153-.054.151-.047.168-.215.164-.242-.002-.53-.035-.771-.037l-.323-.016c-.124-.011-.237.069-.268.19-.23.51-.416 1.038-.556 1.58-.02.134-.02.178.125.244.18.094 1.06.497.97.75-.027.09-.063.176-.107.259zm-2.265-2.686c.04-.114.095-.222.136-.337.082-.226.1-.276-.396-.327-.557-.072-.989-.143-1.508-.203-.17-.004-.566-.09-.735-.095-.019.01-.053.024-.062.05-.005.012.012.046.033.069.338.207 1.716 1.09 1.97 1.253.334.221.337.208.466-.145l.096-.265zM32.998 31.317c.329.233.233.345.077.563-.232.33-.503.827-.683.848-.138.034-5.19-1.114-5.846-1.232-.06-.01-.207-.032-.216.028-.018.07.075.104.119.134.374.282 3.725 2.557 4.25 2.928.264.187.3.229.144.447l-.387.547c-.115.148-.22.304-.315.467-.077.11-.149.14-.266.075l-.864-.611c-.903-.674-6.37-4.51-6.774-4.797-.35-.248-.345-.393-.097-.744.16-.248.33-.489.5-.73.042-.082.139-.12.225-.087.898.192 4.952 1.173 5.474 1.247.184.056.376.082.57.077l.008-.012c-.013-.074-.24-.218-.305-.265-.165-.116-4.068-2.748-4.145-2.803-.108-.078-.23-.114-.269-.224-.02-.063.07-.214.098-.277.196-.321.484-.66.69-.973.108-.154.21-.065.375.004.178.076 7.45 5.259 7.637 5.39zM42.61 23.93c-.111.048-.244.169-.384.138-.168-.028-.36-.288-.5-.426-1.554-1.54-3.075-3.132-4.561-4.742-.286-.317-.665-.72-.955-1.047l-.404-.42c-.1-.127-.518-.569-.57-.662-.078-.112-.022-.205.088-.28.315-.178.613-.36.94-.543.164-.092.307-.248.483-.101.293.251 2.837 3.174 4.194 4.61.05.045.105.087.162.124 0 0 .055-.014.047-.026l-.034-.227c-.47-1.824-1.215-3.867-1.636-5.69-.097-.392 0-.492.304-.662.27-.15.546-.29.807-.452.14-.079.26-.115.393.041.064.078.106.172.122.271.572 2.09 2.026 7.73 2.224 8.387.066.253.15.514.204.776.017.084.088.32.019.39-.118.095-.769.444-.942.541zM49.22 20.838c-.399.118-.696.196-1.023.282-.05.013-.112.044-.157.028-.085.008-.17-2.869-.18-3.27-.019-1.133-.083-2.226-.131-3.365-.044-.905-.118-3.093-.139-3.28-.025-.202-.052-.25.13-.298.46-.093.922-.242 1.364-.358.208-.054.132-.02.286.19.166.371 3.488 7.009 3.58 7.15.213.334.338.702.55 1.037.067.093.433.65.136.727-.218.071-.97.268-1.179.323-.156.041-.165.057-.259-.085-.136-.2-.272-.455-.408-.657l-.169-.273c-.06-.11-.191-.158-.308-.115-.552.102-1.094.248-1.62.44-.124.06-.158.083-.131.241.025.202.192 1.157-.066 1.225-.09.028-.182.048-.275.058zm.927-3.394c.117-.03.238-.048.355-.08.234-.06.285-.073.046-.51-.257-.503-.443-.899-.69-1.36-.093-.141-.246-.52-.34-.66-.02-.016-.047-.024-.074-.023-.014.003-.032.036-.04.066.022.397.077 2.034.087 2.337.007.4.02.397.384.302l.272-.072zM62.887 19.026c-.006.403-.153.388-.42.383-.402-.005-.967.051-1.086-.084-.105-.096-2.013-4.914-2.286-5.521-.028-.054-.091-.19-.145-.164-.068.026-.042.12-.042.174-.022.47-.005 4.52-.015 5.163-.005.323-.02.375-.288.37l-.67-.01c-.187-.012-.376-.01-.563.005-.134 0-.202-.044-.212-.178l.016-1.059c.045-1.126.124-7.804.13-8.299.009-.43.13-.507.559-.502.296-.009.59-.003.885 0 .092-.012.178.047.2.137.348.85 1.829 4.75 2.063 5.221.059.185.147.358.26.514h.013c.055-.052.046-.32.047-.4.003-.202-.03-4.91-.028-5.004 0-.134-.036-.255.031-.348.043-.053.217-.063.283-.076.377-.02.819.026 1.195.018.186.004.171.137.209.313.036.19-.133 9.119-.136 9.347zM77.125 19.626c.093-.192.068-.234-.1-.315-.534-.253-1.108-.543-1.646-.785-.144-.07-.205-.039-.292.112-.201.421-.386.84-.6 1.258-.273.538-.566 1.244-.826 1.788-.323.678-.404.475-.972.205-.618-.295-.912-.393-.762-.706l3.461-7.154c.167-.382.386-.9.565-1.276.031-.06.068-.117.11-.17.056-.094.177-.128.275-.076.374.148.72.389 1.094.538.164.063.22.134.193.344-.021.138-1.078 2.1-1.448 2.873l-.034.073c-.222.561-.334.45.236.781.393.233.974.45 1.368.652.156.075.174.07.249-.087.156-.328 1.077-2.382 1.23-2.667l.172-.364c.203-.422.284-.532.684-.342.279.097.55.216.808.357.116.07.262.168.271.308.007.077-.61 1.432-.923 2.085-.693 1.45-2.689 5.474-2.894 6.028-.102.248-.265.898-.659.726-.356-.157-.683-.371-1.052-.502-.078-.024-.198-.051-.193-.154.015-.098.05-.193.102-.278l.786-1.644c.011.008.537-1.062.797-1.608zM84.988 19.888c.377-.438.774-.875 1.15-1.31.213-.244.355-.244.615-.055.263.21.49.46.76.66l.184.158c.154.15 0 .285-.114.398-.212.225-.413.457-.617.691-1.102 1.212-2.29 2.4-3.302 3.69-.461.595-1.326 1.532-.532 2.255.332.268.793.31 1.168.106 1.008-.53 1.705-1.559 2.445-2.393.86-.974 1.692-1.976 2.526-2.959.097-.122.273-.142.395-.047.293.215.573.445.84.69.214.205.18.388-.013.61-1.159 1.34-2.262 2.55-3.433 3.863-.808.913-1.651 2.153-2.944 2.295-.714.032-1.415-.206-1.96-.668-.845-.643-1.397-1.688-1.14-2.744.199-.822.814-1.513 1.34-2.141.859-1.031 1.745-2.076 2.632-3.1zM90.05 36.795c-.334.222-.405.093-.554-.13-.224-.335-.592-.766-.548-.942.02-.14 2.899-4.448 3.245-5.018.03-.052.105-.183.052-.212-.06-.042-.123.034-.167.064-.398.249-3.722 2.563-4.257 2.921-.268.179-.32.197-.47-.025l-.372-.558c-.096-.162-.204-.316-.323-.461-.075-.113-.078-.19.026-.275l.88-.59c.953-.603 6.492-4.33 6.905-4.608.357-.237.49-.181.73.176.175.238.337.483.502.728.062.068.062.173 0 .242-.502.77-2.869 4.205-3.126 4.666-.117.153-.21.324-.275.505l.008.012c.075.016.29-.145.357-.19.169-.113 4.023-2.814 4.102-2.866.112-.074.189-.174.303-.17.068.003.176.14.225.19.231.297.443.686.662.991.104.157-.015.22-.138.35-.136.138-7.58 5.072-7.768 5.2zM94.12 41.092c-.052.017-.098.046-.15.062-.677.218-1.191.328-1.74.506-.408.13-.446.1-.524-.143-.112-.345-.25-.863-.386-1.2-.04-.129.036-.196.19-.245 1.517-.586 6.416-2.091 7.196-2.343.537-.172 1.737-.558 1.78-.558.216-.029.378-.052.468.23.098.306.235.73.32 1.038.077.286.068.346-.208.45-.465.177-2.844.802-3.555 1.045-.022.01-.04.026-.056.045.007.036.033.065.068.077.333.076 4.014.781 4.387.844.126.039.22.144.243.274.09.28.386 1.159.452 1.405.013.033.01.07-.008.1-.018.03-.048.051-.083.056-.173.008-.346-.002-.517-.03-.695-.142-1.177-.242-1.96-.441-.694-.185-1.41-.307-2.11-.421-.158-.018-.318-.014-.475.011-.064.015-.122.048-.167.097-.34.39-.742.76-1.094 1.155-.137.143-2.369 2.539-2.499 2.707-.09.114-.43.547-.574.1-.14-.434-.237-.826-.402-1.251-.023-.064-.04-.13-.05-.197-.06-.233 3.04-3.345 3.446-3.927.01-.033.014-.068.009-.102-.005-.012-.063-.021-.102-.01-.259.069-1.45.523-1.9.666zM103.925 51.363c.025.353-.004.708-.089 1.052-.076.3-.127.598-.493.552-.324-.05-.6-.197-.94-.27-.15-.032-.3-.05-.296-.238.003-.097.03-.19.08-.274.073-.129.128-.267.163-.412.12-.503-.065-1.15-.646-1.24-.547-.098-1.107.096-1.475.513-.565.69-1.007 1.426-1.672 2.027-.575.585-1.355.923-2.176.943-.103.003-.206 0-.308-.01-.296-.037-.586-.115-.86-.234-1.336-.61-1.665-2.176-1.431-3.504.05-.3.126-1.095.54-1.105.345.015.687.073 1.018.171.09.02.178.05.26.092.165.086.135.248.048.388-.172.234-.31.49-.413.762-.144.53-.02 1.316.533 1.621.6.224 1.275.087 1.74-.353.253-.282.436-.602.674-.884.238-.308.504-.592.77-.876.292-.342.628-.645.997-.901.358-.194.761-.286 1.167-.268.527-.007 1.047.12 1.51.373.504.31.897.772 1.123 1.32.09.242.15.497.176.755z"/>
                <circle cx="25.419" cy="73.284" r="2.838"/>
                <circle cx="93.602" cy="73.284" r="2.838"/>
                <path d="M71.155 73.723l-1.463 2.501h9.36l-1.47-2.414c-.382-.592-.583-1.283-.577-1.988V35.38c-.01-.677.175-1.343.53-1.919l1.485-2.484h-9.33l1.418 2.423c.377.59.574 1.279.568 1.98v9.642c.023 1.284-.835 2.417-2.077 2.742l-19.345 5.74c-.663.189-1.376.062-1.934-.344-.553-.415-.879-1.066-.88-1.757V35.38c-.008-.677.175-1.341.529-1.918l1.486-2.485h-9.369l1.422 2.48c.381.57.59 1.237.603 1.923v36.442c-.013.587-.174 1.161-.467 1.67l-.104.192-1.455 2.54h9.37l-1.494-2.498c-.028-.045-.054-.095-.08-.146-.286-.567-.438-1.193-.441-1.828v-9.643c.016-1.244.815-2.342 1.993-2.74l19.436-5.674c.663-.194 1.378-.065 1.93.35.553.414.878 1.064.877 1.755v16.024c.01.67-.17 1.328-.521 1.899z"/>
                <path d="M79.197 71.822v-1.35c8.345-9.652 8.345-23.964 0-33.616V35.38c-.005-.275.069-.546.213-.78l3.474-5.814H66.469c-4.472-1.264-9.207-1.264-13.68 0H36.304l3.332 5.814c.167.228.265.498.284.78v1.634c-8.154 9.603-8.154 23.698 0 33.301v1.508c-.03.279-.128.547-.284.78l-3.332 5.814H52.3c4.78 1.433 9.877 1.433 14.658 0h15.997l-3.545-5.814c-.145-.234-.22-.505-.214-.78zm4.305-18.157c.001 4.88-1.502 9.64-4.305 13.634V40.03c2.803 3.995 4.307 8.756 4.305 13.636zM59.629 29.793c2.57.004 5.122.424 7.558 1.246l2.085 3.561c.144.234.218.505.212.78v9.643c.015.306-.196.577-.496.638l-19.356 5.743V35.379c-.006-.275.068-.546.212-.78l2.1-3.514c2.473-.852 5.07-1.289 7.685-1.293v.001zM35.757 53.665c-.005-4.8 1.446-9.488 4.162-13.446v26.887c-2.715-3.957-4.166-8.643-4.162-13.441zm23.872 23.871c-2.58-.004-5.143-.429-7.587-1.258l-2.197-3.677c-.136-.263-.21-.554-.212-.85v-9.643c.006-.276.172-.525.425-.637l19.426-5.673v16.023c.006.275-.068.546-.212.78l-2.18 3.722c-2.407.8-4.926 1.21-7.463 1.212v.001zm9.135-.779l1.94-3.316c.296-.487.448-1.048.44-1.618V55.798c0-.523-.245-1.016-.664-1.33-.419-.313-.96-.41-1.462-.263l-19.425 5.67c-.958.327-1.606 1.22-1.62 2.232v9.643c.003.553.135 1.097.386 1.59.018.037.038.073.059.107l1.976 3.308H39.168l2.005-3.515c.254-.43.394-.92.406-1.42V35.38c-.014-.588-.196-1.16-.526-1.647l-1.886-3.288h11.226l-1.975 3.302c-.3.49-.455 1.057-.446 1.633v16.023c0 .523.247 1.016.667 1.33.42.313.962.41 1.464.261l19.358-5.743c1.01-.264 1.706-1.186 1.684-2.229V35.38c.006-.602-.164-1.192-.488-1.699l-1.894-3.236H79.96l-1.973 3.302c-.303.49-.459 1.057-.45 1.633v36.442c-.004.604.167 1.195.494 1.702l1.969 3.232-11.235.001z"/>
                <path d="M77.005 71.822V35.38c-.01-.677.175-1.343.53-1.919l1.485-2.484h-9.33l1.418 2.423c.377.59.574 1.279.568 1.98v9.642c.023 1.284-.835 2.417-2.077 2.742l-19.345 5.74c-.663.189-1.376.062-1.934-.344-.553-.415-.879-1.066-.88-1.757V35.38c-.008-.677.175-1.341.529-1.918l1.486-2.485h-9.369l1.422 2.48c.381.57.59 1.237.603 1.923v36.442c-.013.587-.174 1.161-.467 1.67l-.104.192-1.455 2.54h9.37l-1.494-2.498c-.028-.045-.054-.095-.08-.146-.286-.567-.438-1.193-.441-1.828v-9.643c.016-1.244.815-2.342 1.993-2.74l19.436-5.674c.663-.194 1.378-.065 1.93.35.553.414.878 1.064.877 1.755v16.024c.01.67-.17 1.329-.521 1.9l-1.463 2.501h9.36l-1.47-2.414c-.382-.592-.583-1.284-.577-1.989zM18.46 86.387c0 .038-.017.075-.047.099-.03.023-.07.032-.107.023-.669-.076-1.384-.153-2.053.076-1.172.38-1.704 1.659-1.887 2.77-.15.863-.093 1.749.166 2.586.229.776.64 1.597 1.371 2.008.427.183.891.261 1.354.229.472 0 1.233-.275 1.233.09 0 .275.014.26 0 .534l-.046.868c-.005.062-.04.117-.091.151-.065.042-.138.068-.214.077-1.659.259-3.59-.228-4.64-1.613-.573-.816-.91-1.775-.974-2.77-.14-1.06-.089-2.137.151-3.18.105-.443.264-.873.472-1.278.795-1.459 2.27-2.42 3.926-2.556.365-.015 1.386-.076 1.386.487 0 .486.014.897 0 1.4zM21.412 95.882c-.471.016-.822.016-1.202.016-.062 0-.136.015-.183-.016-.09-.014.64-3.195.747-3.636.303-1.248.547-2.465.82-3.728.214-1.004.76-3.425.792-3.637.03-.228.015-.288.229-.288.533.03 1.08 0 1.597 0 .244 0 .152.014.259.288.075.457 1.81 8.689 1.87 8.87.138.426.169.867.306 1.293.045.122.288.837-.062.837-.258.015-1.14.015-1.384.015-.183 0-.198.016-.258-.168-.092-.259-.169-.578-.259-.836l-.107-.35c-.036-.137-.165-.227-.305-.213-.633-.049-1.269-.044-1.9.015-.154.03-.2.045-.214.228-.03.228-.122 1.324-.427 1.324-.106.005-.213.001-.319-.014zm1.993-3.454c.137 0 .274.015.41.015.276 0 .336 0 .199-.547-.137-.624-.228-1.111-.365-1.69-.06-.182-.121-.639-.181-.821-.02-.024-.047-.04-.077-.045-.015 0-.045.03-.062.06-.09.442-.502 2.253-.577 2.587-.107.441-.092.441.334.441h.32zM28.307 86.585c-.015-.472-.06-1.825.062-1.917.118-.058.25-.08.38-.061.532 0 1.095-.015 1.643-.015 3.165 0 3.44 2.586 3.44 3.986 0 1.551-.702 3.377-3.242 3.377-.122 0-.547-.045-.547.169 0 .196.06 3.79-.046 3.834-.123.039-.252.055-.38.046-.517.015-.517 0-1.035 0-.228 0-.258-.046-.258-.274 0-.624 0-8.247-.017-9.145zm1.751 3.135c-.015.166-.015.334-.015.501.006.118.096.214.212.229.461.01.904-.179 1.217-.518.427-.47.504-1.354.442-1.947-.077-.822-.578-1.598-1.46-1.659-.151-.015-.35-.015-.395.152-.007.102-.007.203 0 .305-.016.609 0 2.601 0 2.937zM35.369 92.884c-.03-.852.031-4.67.031-5.736 0-.624-.016-1.248.015-1.856.015-.777.06-.73.699-.73.442 0 2.268 0 2.725-.015.456-.031.563-.031 1.019-.046.274 0 .35.046.38.29.046.44 0 .897.031 1.338.015.29-.076.274-.364.304l-2.147.015c-.228.015-.288.061-.303.305-.082.61-.103 1.227-.062 1.84.015.197.045.23.259.23.639-.047.943.045 1.597 0 .169-.016.335-.032.502-.032.259 0 .35.092.382.35l.045.457c0 .32-.03.335-.03.654.016.14-.035.278-.137.374-.102.095-.244.138-.382.113h-1.9c-.306 0-.336.107-.336.427 0 .593-.015 1.339-.015 1.917 0 .715-.106.623.579.608.41 0 1.43.031 1.642.015.179-.018.356.045.483.172s.19.304.171.483c-.01.253-.005.507.017.76 0 .457-.107.625-.412.686-.272.037-.547.053-.822.045-.82.03-1.643-.03-2.465 0-.317.007-.634-.024-.943-.091-.152-.031-.197-.076-.197-.244-.03-.487-.061-.974-.077-1.46-.014-.396 0-.79 0-1.17l.015-.003zM47.53 94.345c-.03-1.37.045-6.467.045-7.562 0-.046-.015-.092-.015-.137-.03-.169-.137-.213-.288-.213-.244-.015-1.11-.015-1.324-.015-.365 0-.35-.427-.35-.852 0-.67-.016-.974.364-.974.502 0 .914.015 1.416.015 1.019-.015 3.5-.015 3.759-.015.364 0 .243.578.243.912 0 .38.075.929-.243.929h-1.34c-.305 0-.38.076-.38.304l-.047 8.521c.015.259.076.746-.212.746h-1.37c-.214 0-.229-.031-.229-.244-.014-.472-.014-.943-.029-1.415zM60.42 90.358c-.015.83-.137 1.653-.365 2.45-.274.959-.73 1.824-1.551 2.39-.58.444-1.268.722-1.993.806-.107 0-.197.015-.304.015-.091 0-.183-.015-.29-.015-1.74-.204-3.162-1.486-3.545-3.196-.235-.796-.358-1.62-.365-2.45-.03-1.004.104-2.006.397-2.966.513-1.675 2.06-2.819 3.81-2.819 1.752 0 3.299 1.144 3.812 2.819.292.96.425 1.963.394 2.966zm-1.963-1.69c-.182-.835-.547-1.657-1.247-2.16-.12-.092-.253-.164-.395-.213-.192-.084-.4-.126-.61-.122-.204-.004-.406.038-.593.122-.143.046-.277.118-.395.213-.715.501-1.08 1.324-1.249 2.16-.197.921-.228 1.87-.09 2.8.152.838.455 1.964 1.247 2.39.331.188.7.298 1.08.32.385-.022.76-.131 1.095-.32.79-.426 1.095-1.552 1.248-2.39.137-.93.107-1.88-.091-2.8zM61.959 84.576c.426 0 .685.016 1.02 0 .188-.013.36.108.41.29.047.136 1.37 5.72 1.385 5.782.016.03.031.107.091.107.047 0 .062-.061.062-.092.107-.517.898-4.838 1.019-5.508.015-.076.015-.153.03-.214.076-.289.121-.319.442-.334.395-.03.608.015 1.003-.015h.184c.35.015.457.213.487.547.106.852.867 5.22.882 5.28.03.153.062.32.168.32.062 0 .122-.228.122-.244.168-.714.38-1.415.579-2.13.273-.958.486-2.069.715-3.043.045-.152.122-.32.166-.471.052-.15.194-.247.35-.244.107-.012.214-.017.32-.015.336-.016.625.015.96.015.668 0 .273.959.166 1.278-.303.959-.561 2.024-.805 2.998-.32 1.217-.64 2.42-.944 3.637-.243.988-.502 2.114-.702 3.119-.026.211-.214.365-.426.35h-1.218c-.12 0-.166-.076-.196-.169-.184-.745-1.095-5.066-1.172-5.249-.015-.028-.044-.046-.076-.046-.027.004-.05.021-.061.046-.034.084-.06.17-.075.259-.367 1.506-.747 3.058-1.05 4.625-.047.259-.063.534-.26.534h-1.323c-.184 0-.199 0-.244-.183-.122-.426-2.48-10.18-2.603-10.65-.027-.105-.033-.214-.015-.32.032-.199.139-.275.35-.275.122 0 .244.015.259.015zM80.756 95.548c0 .456-.168.44-.472.44-.457 0-1.095.077-1.232-.075-.122-.107-2.375-5.54-2.695-6.224-.03-.061-.105-.213-.168-.183-.077.03-.045.137-.045.198-.015.532.075 5.128.075 5.858 0 .365-.015.426-.319.426h-.762c-.213-.01-.426-.005-.638.016-.152 0-.229-.046-.244-.197v-1.202c.032-1.278 0-8.856 0-9.419 0-.487.137-.578.624-.578.335-.015.67-.015 1.005-.015.104-.015.202.05.227.152.412.959 2.161 5.356 2.435 5.889.046.106.213.533.305.578h.015c.061-.061.046-.365.046-.457 0-.228-.123-5.569-.123-5.675 0-.153-.045-.29.032-.396.045-.06.243-.076.318-.09.427-.032.93.014 1.354 0 .214 0 .199.15.244.348.048.213.018 10.346.018 10.606zM89.203 84.514c.402-.005.803.052 1.188.168.333.107.668.183.592.594-.075.365-.259.67-.365 1.05-.045.168-.075.335-.289.32-.109-.01-.213-.047-.305-.107-.14-.092-.294-.164-.455-.213-.564-.169-1.31 0-1.446.654-.147.614.037 1.26.487 1.705.746.684 1.553 1.232 2.191 2.023.625.69.958 1.596.926 2.527-.002.117-.012.233-.03.349-.06.333-.167.656-.318.959-.777 1.476-2.573 1.75-4.064 1.4-.334-.076-1.232-.214-1.217-.685.04-.39.126-.773.258-1.141.028-.101.07-.199.122-.29.107-.182.29-.136.442-.03.254.21.536.384.837.517.594.197 1.49.107 1.87-.502.321-.547.153-1.551-.288-1.992-.305-.305-.654-.532-.958-.822-.336-.289-.64-.608-.944-.928-.37-.353-.692-.752-.959-1.187-.196-.417-.275-.88-.227-1.34.024-.597.202-1.179.517-1.688.384-.551.933-.966 1.567-1.187.282-.088.574-.14.868-.154zM95.14 95.045c.002.236-.085.464-.244.64-.28.31-.726.407-1.11.243-.944-.411-.534-1.933.501-1.825.482.052.849.457.853.942zM98.063 95.882c-.472.016-.823.016-1.203.016-.061 0-.136.015-.183-.016-.09-.014.64-3.195.747-3.636.303-1.248.547-2.465.82-3.728.214-1.004.76-3.425.792-3.637.03-.228.016-.288.229-.288.533.03 1.08 0 1.597 0 .244 0 .152.014.259.288.075.457 1.81 8.689 1.87 8.87.138.426.17.867.306 1.293.045.122.288.837-.062.837-.258.015-1.14.015-1.384.015-.183 0-.198.016-.258-.168-.092-.259-.169-.578-.259-.836l-.106-.35c-.036-.137-.166-.227-.306-.213-.633-.049-1.268-.044-1.9.015-.154.03-.199.045-.214.228-.03.228-.122 1.324-.427 1.324-.106.005-.213.001-.318-.014zm1.993-3.454c.136 0 .273.015.41.015.275 0 .335 0 .198-.547-.137-.624-.228-1.111-.365-1.69-.06-.182-.121-.639-.181-.821-.02-.024-.047-.04-.077-.045-.015 0-.045.03-.062.06-.09.442-.502 2.253-.577 2.587-.107.441-.091.441.334.441h.32zM106.829 95.045c.002.236-.085.464-.244.64-.28.31-.726.407-1.11.243-.944-.411-.534-1.933.501-1.825.482.052.849.457.853.942z"/>
                <path d="M66.201 62.114l-.903 1.518c-.031.044-.056.093-.072.144l-3.85 8.71c-.048.123-.042.262.019.38l1.066 1.824h-5.819l1.048-1.824c.07-.116.077-.258.018-.38-.488-1.084-.957-2.168-1.445-3.234-.814-1.825-1.608-3.65-2.44-5.476l-.054-.126-.904-1.536h4.337l-.686 1.156c-.07.116-.077.258-.018.38l3.035 6.776 3.018-6.793c.049-.123.042-.261-.018-.38l-.669-1.138 4.337-.001zM63.29 32.511l-.95 1.466c-.036.06-.055.129-.053.199v7.365c-.005 1.434-.87 2.725-2.195 3.275-1.325.55-2.85.25-3.869-.76l-1.753-.36 3.032-3.223.437 1.775c0 .017.019.017.019.035h.019c.192.211.462.335.748.344.595-.007 1.075-.49 1.077-1.086v-7.365c.002-.07-.017-.14-.054-.199l-.877-1.466h4.42z"/>
            </g>
        </g>
    </g>
</svg>
